# Blender 5.0.1
# www.blender.org
mtllib fire_hydrant.mtl
o Base
v 0.000000 -0.038036 -1.644587
v 0.000000 0.156052 -1.492171
v 0.629356 -0.038036 -1.519400
v 0.571029 0.156052 -1.378587
v 1.162899 -0.038036 -1.162899
v 1.055124 0.156052 -1.055125
v 1.519400 -0.038036 -0.629356
v 1.378587 0.156052 -0.571029
v 1.644587 -0.038036 0.000000
v 1.492171 0.156052 0.000000
v 1.519400 -0.038036 0.629356
v 1.378587 0.156052 0.571029
v 1.162899 -0.038036 1.162899
v 1.055124 0.156052 1.055125
v 0.629356 -0.038036 1.519400
v 0.571029 0.156052 1.378587
v 0.000000 -0.038036 1.644587
v 0.000000 0.156052 1.492171
v -0.629356 -0.038036 1.519400
v -0.571029 0.156052 1.378587
v -1.162899 -0.038036 1.162899
v -1.055125 0.156052 1.055125
v -1.519400 -0.038036 0.629356
v -1.378587 0.156052 0.571029
v -1.644587 -0.038036 0.000000
v -1.492172 0.156052 0.000000
v -1.519400 -0.038036 -0.629356
v -1.378587 0.156052 -0.571029
v -1.162899 -0.038036 -1.162899
v -1.055125 0.156052 -1.055125
v -0.629356 -0.038036 -1.519400
v -0.571029 0.156052 -1.378587
v 0.334070 0.281700 -0.806516
v 0.000000 0.281700 -0.872966
v 0.617280 0.281700 -0.617281
v 0.806516 0.281700 -0.334070
v 0.872966 0.281700 0.000000
v 0.806516 0.281700 0.334070
v 0.617280 0.281700 0.617281
v 0.334070 0.281700 0.806516
v 0.000000 0.281700 0.872966
v -0.334070 0.281700 0.806516
v -0.617281 0.281700 0.617281
v -0.806516 0.281700 0.334070
v -0.872967 0.281700 0.000000
v -0.806516 0.281700 -0.334070
v -0.617281 0.281700 -0.617281
v -0.334070 0.281700 -0.806516
v 0.446439 0.281700 -1.077800
v 0.000000 0.281700 -1.166602
v 0.824912 0.281700 -0.824912
v 1.077800 0.281700 -0.446439
v 1.166602 0.281700 0.000000
v 1.077800 0.281700 0.446439
v 0.824912 0.281700 0.824912
v 0.446439 0.281700 1.077800
v 0.000000 0.281700 1.166602
v -0.446439 0.281700 1.077800
v -0.824912 0.281700 0.824912
v -1.077800 0.281700 0.446439
v -1.166602 0.281700 0.000000
v -1.077800 0.281700 -0.446439
v -0.824912 0.281700 -0.824912
v -0.446439 0.281700 -1.077800
v 0.334070 1.873858 -0.806516
v -0.000000 1.873858 -0.872966
v 0.617280 1.873858 -0.617281
v 0.806516 1.873858 -0.334070
v 0.872966 1.873858 0.000000
v 0.806516 1.873858 0.334070
v 0.617280 1.873858 0.617281
v 0.334070 1.873858 0.806516
v -0.000000 1.873858 0.872966
v -0.334070 1.873858 0.806516
v -0.617281 1.873858 0.617281
v -0.806516 1.873858 0.334070
v -0.872967 1.873858 0.000000
v -0.806516 1.873858 -0.334070
v -0.617281 1.873858 -0.617281
v -0.334070 1.873858 -0.806516
v 0.334070 1.873858 -0.806516
v -0.000000 1.873858 -0.872966
v 0.617280 1.873858 -0.617281
v 0.806516 1.873858 -0.334070
v 0.872966 1.873858 0.000000
v 0.806516 1.873858 0.334070
v 0.617280 1.873858 0.617281
v 0.334070 1.873858 0.806516
v -0.000000 1.873858 0.872966
v -0.334070 1.873858 0.806516
v -0.617281 1.873858 0.617281
v -0.806516 1.873858 0.334070
v -0.872967 1.873858 0.000000
v -0.806516 1.873858 -0.334070
v -0.617281 1.873858 -0.617281
v -0.334070 1.873858 -0.806516
v 0.390119 2.032032 -0.941832
v -0.000000 2.032032 -1.019431
v 0.720847 2.032032 -0.720847
v 0.941832 2.032032 -0.390119
v 1.019431 2.032032 0.000000
v 0.941832 2.032032 0.390120
v 0.720847 2.032032 0.720847
v 0.390119 2.032032 0.941832
v -0.000000 2.032032 1.019431
v -0.390120 2.032032 0.941832
v -0.720847 2.032032 0.720847
v -0.941832 2.032032 0.390120
v -1.019432 2.032032 0.000000
v -0.941832 2.032032 -0.390119
v -0.720847 2.032032 -0.720847
v -0.390120 2.032032 -0.941832
v 0.390119 2.195903 -0.941832
v -0.000000 2.195903 -1.019431
v 0.720847 2.195903 -0.720847
v 0.941832 2.195903 -0.390119
v 1.019431 2.195903 0.000000
v 0.941832 2.195903 0.390120
v 0.720847 2.195903 0.720847
v 0.390119 2.195903 0.941832
v -0.000000 2.195903 1.019431
v -0.390120 2.195903 0.941832
v -0.720847 2.195903 0.720847
v -0.941832 2.195903 0.390120
v -1.019432 2.195903 0.000000
v -0.941832 2.195903 -0.390119
v -0.720847 2.195903 -0.720847
v -0.390120 2.195903 -0.941832
v 0.347433 2.349715 -0.838777
v -0.000000 2.349715 -0.907886
v 0.641972 2.349715 -0.641972
v 0.838777 2.349715 -0.347433
v 0.907886 2.349715 0.000000
v 0.838777 2.349715 0.347433
v 0.641972 2.349715 0.641972
v 0.347433 2.349715 0.838777
v -0.000000 2.349715 0.907886
v -0.347433 2.349715 0.838777
v -0.641972 2.349715 0.641972
v -0.838777 2.349715 0.347433
v -0.907886 2.349715 0.000000
v -0.838777 2.349715 -0.347433
v -0.641972 2.349715 -0.641972
v -0.347433 2.349715 -0.838777
v 0.347433 3.487539 -0.838777
v -0.000000 3.487539 -0.907886
v 0.641972 3.487539 -0.641972
v 0.838777 3.487539 -0.347433
v 0.907886 3.487539 0.000000
v 0.838777 3.487539 0.347433
v 0.641972 3.487539 0.641972
v 0.347433 3.487539 0.838777
v -0.000000 3.487539 0.907886
v -0.347433 3.487539 0.838777
v -0.641972 3.487539 0.641972
v -0.838777 3.487539 0.347433
v -0.907886 3.487539 0.000000
v -0.838777 3.487539 -0.347433
v -0.641972 3.487539 -0.641972
v -0.347433 3.487539 -0.838777
v 0.347433 4.089314 -0.838777
v -0.000000 4.089314 -0.907886
v 0.641972 4.089314 -0.641972
v 0.838777 4.089314 -0.347433
v 0.907886 4.089314 0.000000
v 0.838777 4.089314 0.347433
v 0.641972 4.089314 0.641972
v 0.347433 4.089314 0.838777
v -0.000000 4.089314 0.907886
v -0.347433 4.089314 0.838777
v -0.641972 4.089314 0.641972
v -0.838777 4.089314 0.347433
v -0.907886 4.089314 0.000000
v -0.838777 4.089314 -0.347433
v -0.641972 4.089314 -0.641972
v -0.347433 4.089314 -0.838777
v 0.560262 4.326220 -1.352591
v -0.000000 4.326220 -1.464034
v 1.035228 4.326220 -1.035229
v 1.352591 4.326220 -0.560262
v 1.464034 4.326220 0.000000
v 1.352591 4.326220 0.560262
v 1.035229 4.326220 1.035229
v 0.560262 4.326220 1.352591
v -0.000000 4.326220 1.464034
v -0.560262 4.326220 1.352591
v -1.035229 4.326220 1.035229
v -1.352592 4.326220 0.560262
v -1.464035 4.326220 0.000000
v -1.352592 4.326220 -0.560262
v -1.035229 4.326220 -1.035229
v -0.560262 4.326220 -1.352591
v 0.560262 4.579502 -1.352591
v -0.000000 4.579502 -1.464034
v 1.035228 4.579502 -1.035229
v 1.352591 4.579502 -0.560262
v 1.464034 4.579502 0.000000
v 1.352591 4.579502 0.560262
v 1.035229 4.579502 1.035229
v 0.560262 4.579502 1.352591
v -0.000000 4.579502 1.464034
v -0.560262 4.579502 1.352591
v -1.035229 4.579502 1.035229
v -1.352592 4.579502 0.560262
v -1.464035 4.579502 0.000000
v -1.352592 4.579502 -0.560262
v -1.035229 4.579502 -1.035229
v -0.560262 4.579502 -1.352591
v 0.346580 4.700394 -0.836717
v -0.000000 4.700394 -0.905656
v 0.640395 4.700394 -0.640396
v 0.836717 4.700394 -0.346580
v 0.905656 4.700394 0.000000
v 0.836717 4.700394 0.346580
v 0.640396 4.700394 0.640396
v 0.346580 4.700394 0.836717
v -0.000000 4.700394 0.905656
v -0.346580 4.700394 0.836717
v -0.640396 4.700394 0.640396
v -0.836717 4.700394 0.346580
v -0.905657 4.700394 0.000000
v -0.836717 4.700394 -0.346580
v -0.640396 4.700394 -0.640396
v -0.346580 4.700394 -0.836717
v 0.346580 4.954254 -0.836717
v -0.000000 4.954254 -0.905656
v 0.640395 4.954254 -0.640396
v 0.836717 4.954254 -0.346580
v 0.905656 4.954254 0.000000
v 0.836717 4.954254 0.346580
v 0.640396 4.954254 0.640396
v 0.346580 4.954254 0.836717
v -0.000000 4.954254 0.905656
v -0.346580 4.954254 0.836717
v -0.640396 4.954254 0.640396
v -0.836717 4.954254 0.346580
v -0.905657 4.954254 0.000000
v -0.836717 4.954254 -0.346580
v -0.640396 4.954254 -0.640396
v -0.346580 4.954254 -0.836717
v 0.306204 5.171783 -0.739243
v -0.000000 5.171783 -0.800150
v 0.565792 5.171783 -0.565792
v 0.739242 5.171783 -0.306204
v 0.800150 5.171783 0.000000
v 0.739242 5.171783 0.306204
v 0.565792 5.171783 0.565792
v 0.306204 5.171783 0.739243
v -0.000000 5.171783 0.800151
v -0.306204 5.171783 0.739243
v -0.565792 5.171783 0.565792
v -0.739243 5.171783 0.306204
v -0.800151 5.171783 0.000000
v -0.739243 5.171783 -0.306204
v -0.565792 5.171783 -0.565792
v -0.306204 5.171783 -0.739243
v 0.226329 5.333449 -0.546408
v -0.000000 5.333449 -0.591428
v 0.418202 5.333449 -0.418202
v 0.546408 5.333449 -0.226329
v 0.591428 5.333449 0.000000
v 0.546408 5.333449 0.226330
v 0.418202 5.333449 0.418203
v 0.226329 5.333449 0.546408
v -0.000000 5.333449 0.591428
v -0.226330 5.333449 0.546408
v -0.418203 5.333449 0.418203
v -0.546408 5.333449 0.226330
v -0.591428 5.333449 0.000000
v -0.546408 5.333449 -0.226329
v -0.418203 5.333449 -0.418202
v -0.226330 5.333449 -0.546408
v 0.140561 5.461844 -0.339344
v -0.000000 5.461844 -0.367303
v 0.259723 5.461844 -0.259723
v 0.339344 5.461844 -0.140561
v 0.367303 5.461844 0.000000
v 0.339344 5.461844 0.140561
v 0.259723 5.461844 0.259723
v 0.140561 5.461844 0.339344
v -0.000000 5.461844 0.367304
v -0.140561 5.461844 0.339344
v -0.259723 5.461844 0.259723
v -0.339344 5.461844 0.140561
v -0.367304 5.461844 0.000000
v -0.339344 5.461844 -0.140561
v -0.259723 5.461844 -0.259723
v -0.140561 5.461844 -0.339344
v 0.084350 5.515093 -0.203639
v -0.000000 5.515093 -0.220417
v 0.155858 5.515093 -0.155858
v 0.203639 5.515093 -0.084350
v 0.220417 5.515093 0.000000
v 0.203639 5.515093 0.084350
v 0.155858 5.515093 0.155859
v 0.084350 5.515093 0.203639
v -0.000000 5.515093 0.220417
v -0.084350 5.515093 0.203639
v -0.155859 5.515093 0.155859
v -0.203639 5.515093 0.084350
v -0.220417 5.515093 0.000000
v -0.203639 5.515093 -0.084350
v -0.155859 5.515093 -0.155858
v -0.084350 5.515093 -0.203639
v 0.118441 5.624244 -0.285941
v -0.000000 5.624244 -0.309500
v 0.218850 5.624244 -0.218850
v 0.285941 5.624244 -0.118441
v 0.309500 5.624244 0.000000
v 0.285941 5.624244 0.118441
v 0.218850 5.624244 0.218850
v 0.118441 5.624244 0.285941
v -0.000000 5.624244 0.309500
v -0.118441 5.624244 0.285941
v -0.218850 5.624244 0.218850
v -0.285941 5.624244 0.118441
v -0.309500 5.624244 0.000000
v -0.285941 5.624244 -0.118441
v -0.218850 5.624244 -0.218850
v -0.118441 5.624244 -0.285941
v 0.118441 5.852875 -0.285941
v -0.000000 5.852875 -0.309500
v 0.218850 5.852875 -0.218850
v 0.285941 5.852875 -0.118441
v 0.309500 5.852875 0.000000
v 0.285941 5.852875 0.118441
v 0.218850 5.852875 0.218850
v 0.118441 5.852875 0.285941
v -0.000000 5.852875 0.309500
v -0.118441 5.852875 0.285941
v -0.218850 5.852875 0.218850
v -0.285941 5.852875 0.118441
v -0.309500 5.852875 0.000000
v -0.285941 5.852875 -0.118441
v -0.218850 5.852875 -0.218850
v -0.118441 5.852875 -0.285941
v 0.059976 6.067400 -0.144794
v -0.000000 6.067400 -0.156724
v 0.110821 6.067400 -0.110821
v 0.144794 6.067400 -0.059976
v 0.156724 6.067400 0.000000
v 0.144794 6.067400 0.059976
v 0.110821 6.067400 0.110821
v 0.059976 6.067400 0.144795
v -0.000000 6.067400 0.156724
v -0.059976 6.067400 0.144795
v -0.110821 6.067400 0.110821
v -0.144795 6.067400 0.059976
v -0.156725 6.067400 0.000000
v -0.144795 6.067400 -0.059976
v -0.110821 6.067400 -0.110821
v -0.059976 6.067400 -0.144794
v 0.059976 6.209257 -0.144794
v -0.000000 6.209257 -0.156724
v 0.110821 6.209257 -0.110821
v 0.144794 6.209257 -0.059976
v 0.156724 6.209257 0.000000
v 0.144794 6.209257 0.059976
v 0.110821 6.209257 0.110821
v 0.059976 6.209257 0.144795
v -0.000000 6.209257 0.156724
v -0.059976 6.209257 0.144795
v -0.110821 6.209257 0.110821
v -0.144795 6.209257 0.059976
v -0.156725 6.209257 0.000000
v -0.144795 6.209257 -0.059976
v -0.110821 6.209257 -0.110821
v -0.059976 6.209257 -0.144794
v -0.830717 3.221021 -0.719773
v -1.278642 3.221021 -0.395040
v -0.830717 3.496466 -0.664983
v -1.278642 3.372196 -0.364969
v -0.830717 3.729977 -0.508956
v -1.278642 3.500356 -0.279335
v -0.830717 3.886004 -0.275445
v -1.278642 3.585990 -0.151175
v -0.830717 3.940794 -0.000000
v -1.278642 3.616061 -0.000000
v -0.830717 3.886004 0.275445
v -1.278642 3.585990 0.151175
v -0.830717 3.729977 0.508956
v -1.278642 3.500356 0.279335
v -0.830717 3.496466 0.664983
v -1.278642 3.372196 0.364969
v -0.830717 3.221021 0.719773
v -1.278642 3.221021 0.395040
v -0.830717 2.945576 0.664983
v -1.278642 3.069845 0.364969
v -0.830717 2.712065 0.508956
v -1.278642 2.941685 0.279335
v -0.830717 2.556037 0.275445
v -1.278642 2.856051 0.151175
v -0.830717 2.501248 -0.000000
v -1.278642 2.825981 -0.000000
v -0.830717 2.556037 -0.275445
v -1.278642 2.856051 -0.151175
v -0.830717 2.712065 -0.508956
v -1.278642 2.941685 -0.279335
v -0.830717 2.945576 -0.664983
v -1.278642 3.069845 -0.364969
v -1.278642 3.496466 -0.664983
v -1.278642 3.221021 -0.719773
v -1.278642 3.729977 -0.508956
v -1.278642 3.886004 -0.275445
v -1.278642 3.940794 -0.000000
v -1.278642 3.886004 0.275445
v -1.278642 3.729977 0.508956
v -1.278642 3.496466 0.664983
v -1.278642 3.221021 0.719773
v -1.278642 2.945576 0.664983
v -1.278642 2.712065 0.508956
v -1.278642 2.556037 0.275445
v -1.278642 2.501248 -0.000000
v -1.278642 2.556037 -0.275445
v -1.278642 2.712065 -0.508956
v -1.278642 2.945576 -0.664983
v -1.493814 3.315158 -0.227267
v -1.493814 3.221021 -0.245992
v -1.493814 3.394963 -0.173943
v -1.493814 3.448288 -0.094137
v -1.493814 3.467013 -0.000000
v -1.493814 3.448288 0.094137
v -1.493814 3.394963 0.173943
v -1.493814 3.315158 0.227267
v -1.493814 3.221021 0.245992
v -1.493814 3.126884 0.227267
v -1.493814 3.047078 0.173943
v -1.493814 2.993753 0.094137
v -1.493814 2.975029 -0.000000
v -1.493814 2.993753 -0.094137
v -1.493814 3.047078 -0.173943
v -1.493814 3.126884 -0.227267
v -1.493814 3.372196 -0.364969
v -1.493814 3.221021 -0.395040
v -1.493814 3.500356 -0.279335
v -1.493814 3.585990 -0.151175
v -1.493814 3.616061 -0.000000
v -1.493814 3.585990 0.151175
v -1.493814 3.500356 0.279335
v -1.493814 3.372196 0.364969
v -1.493814 3.221021 0.395040
v -1.493814 3.069845 0.364969
v -1.493814 2.941685 0.279335
v -1.493814 2.856051 0.151175
v -1.493814 2.825981 -0.000000
v -1.493814 2.856051 -0.151175
v -1.493814 2.941685 -0.279335
v -1.493814 3.069845 -0.364969
v -1.614213 3.315158 -0.227267
v -1.614213 3.221021 -0.245992
v -1.614213 3.394963 -0.173943
v -1.614213 3.448288 -0.094137
v -1.614213 3.467013 -0.000000
v -1.614213 3.448288 0.094137
v -1.614213 3.394963 0.173943
v -1.614213 3.315158 0.227267
v -1.614213 3.221021 0.245992
v -1.614213 3.126884 0.227267
v -1.614213 3.047078 0.173943
v -1.614213 2.993753 0.094137
v -1.614213 2.975029 -0.000000
v -1.614213 2.993753 -0.094137
v -1.614213 3.047078 -0.173943
v -1.614213 3.126884 -0.227267
v 0.000000 2.788859 -0.775739
v 0.000000 2.788859 -1.143799
v 0.192133 2.827068 -0.775739
v 0.192133 2.827068 -1.143799
v 0.355015 2.935877 -0.775739
v 0.355015 2.935877 -1.143799
v 0.463850 3.098721 -0.775739
v 0.463850 3.098721 -1.143799
v 0.502068 3.290808 -0.775739
v 0.502068 3.290808 -1.143799
v 0.463850 3.482896 -0.775739
v 0.463850 3.482896 -1.143799
v 0.355015 3.645740 -0.775739
v 0.355015 3.645740 -1.143799
v 0.192133 3.754549 -0.775739
v 0.192133 3.754549 -1.143799
v 0.000000 3.792757 -0.775739
v 0.000000 3.792757 -1.143799
v -0.192133 3.754549 -0.775739
v -0.192133 3.754549 -1.143799
v -0.355015 3.645740 -0.775739
v -0.355015 3.645740 -1.143799
v -0.463850 3.482896 -0.775739
v -0.463850 3.482896 -1.143799
v -0.502068 3.290808 -0.775739
v -0.502068 3.290808 -1.143799
v -0.463850 3.098721 -0.775739
v -0.463850 3.098721 -1.143799
v -0.355015 2.935877 -0.775739
v -0.355015 2.935877 -1.143799
v -0.192133 2.827068 -0.775739
v -0.192133 2.827068 -1.143799
v 0.175428 2.867388 -1.338057
v 0.000000 2.832502 -1.338057
v 0.324148 2.966737 -1.338057
v 0.423520 3.115422 -1.338057
v 0.458414 3.290808 -1.338057
v 0.423520 3.466195 -1.338057
v 0.324148 3.614880 -1.338057
v 0.175428 3.714228 -1.338057
v 0.000000 3.749115 -1.338057
v -0.175428 3.714228 -1.338057
v -0.324148 3.614880 -1.338057
v -0.423520 3.466195 -1.338057
v -0.458414 3.290808 -1.338057
v -0.423520 3.115422 -1.338057
v -0.324148 2.966737 -1.338057
v -0.175428 2.867388 -1.338057
v 0.050454 3.169030 -1.491725
v 0.000000 3.158997 -1.491725
v 0.093227 3.197604 -1.491725
v 0.121807 3.240366 -1.491725
v 0.131843 3.290808 -1.491725
v 0.121807 3.341250 -1.491725
v 0.093227 3.384013 -1.491725
v 0.050454 3.412586 -1.491725
v 0.000000 3.422620 -1.491725
v -0.050454 3.412586 -1.491725
v -0.093227 3.384013 -1.491725
v -0.121807 3.341250 -1.491725
v -0.131843 3.290808 -1.491725
v -0.121807 3.240366 -1.491725
v -0.093227 3.197604 -1.491725
v -0.050454 3.169030 -1.491725
v 0.148176 2.933163 -1.491725
v 0.000000 2.903696 -1.491725
v 0.273794 3.017078 -1.491725
v 0.357730 3.142666 -1.491725
v 0.387204 3.290808 -1.491725
v 0.357730 3.438950 -1.491725
v 0.273794 3.564538 -1.491725
v 0.148176 3.648453 -1.491725
v 0.000000 3.677921 -1.491725
v -0.148176 3.648453 -1.491725
v -0.273794 3.564538 -1.491725
v -0.357730 3.438950 -1.491725
v -0.387204 3.290808 -1.491725
v -0.357730 3.142666 -1.491725
v -0.273794 3.017078 -1.491725
v -0.148176 2.933163 -1.491725
v 0.050454 3.169030 -1.711732
v -0.000001 3.158997 -1.711732
v 0.093226 3.197604 -1.711732
v 0.121806 3.240366 -1.711732
v 0.131842 3.290808 -1.711732
v 0.121806 3.341250 -1.711732
v 0.093226 3.384013 -1.711732
v 0.050454 3.412586 -1.711732
v -0.000001 3.422620 -1.711732
v -0.050455 3.412586 -1.711732
v -0.093227 3.384013 -1.711732
v -0.121807 3.341250 -1.711732
v -0.131843 3.290808 -1.711732
v -0.121807 3.240366 -1.711732
v -0.093227 3.197604 -1.711732
v -0.050455 3.169030 -1.711732
v 0.000000 3.792757 0.775741
v 0.000000 3.792757 1.143800
v 0.192133 3.754549 0.775741
v 0.192133 3.754549 1.143800
v 0.355015 3.645740 0.775741
v 0.355015 3.645740 1.143800
v 0.463850 3.482896 0.775741
v 0.463850 3.482896 1.143800
v 0.502068 3.290808 0.775741
v 0.502068 3.290808 1.143800
v 0.463850 3.098721 0.775741
v 0.463850 3.098721 1.143800
v 0.355015 2.935877 0.775741
v 0.355015 2.935877 1.143800
v 0.192133 2.827068 0.775741
v 0.192133 2.827068 1.143800
v 0.000000 2.788859 0.775741
v 0.000000 2.788859 1.143800
v -0.192133 2.827068 0.775741
v -0.192133 2.827068 1.143800
v -0.355015 2.935877 0.775741
v -0.355015 2.935877 1.143800
v -0.463850 3.098721 0.775741
v -0.463850 3.098721 1.143800
v -0.502068 3.290808 0.775741
v -0.502068 3.290808 1.143800
v -0.463850 3.482896 0.775741
v -0.463850 3.482896 1.143800
v -0.355015 3.645740 0.775741
v -0.355015 3.645740 1.143800
v -0.192133 3.754549 0.775741
v -0.192133 3.754549 1.143800
v 0.175428 3.714228 1.338059
v 0.000000 3.749115 1.338059
v 0.324148 3.614880 1.338059
v 0.423520 3.466195 1.338059
v 0.458414 3.290808 1.338059
v 0.423520 3.115422 1.338059
v 0.324148 2.966737 1.338059
v 0.175428 2.867388 1.338059
v 0.000000 2.832502 1.338059
v -0.175428 2.867388 1.338059
v -0.324148 2.966737 1.338059
v -0.423520 3.115422 1.338059
v -0.458414 3.290808 1.338059
v -0.423520 3.466195 1.338059
v -0.324148 3.614880 1.338059
v -0.175428 3.714228 1.338059
v 0.050454 3.412586 1.491726
v 0.000000 3.422620 1.491726
v 0.093227 3.384013 1.491726
v 0.121807 3.341250 1.491727
v 0.131843 3.290808 1.491727
v 0.121807 3.240366 1.491727
v 0.093227 3.197604 1.491727
v 0.050454 3.169030 1.491727
v 0.000000 3.158997 1.491727
v -0.050454 3.169030 1.491727
v -0.093227 3.197604 1.491727
v -0.121807 3.240366 1.491727
v -0.131843 3.290808 1.491727
v -0.121807 3.341250 1.491727
v -0.093227 3.384013 1.491726
v -0.050454 3.412586 1.491726
v 0.148176 3.648453 1.491726
v 0.000000 3.677921 1.491726
v 0.273794 3.564538 1.491726
v 0.357730 3.438950 1.491727
v 0.387204 3.290808 1.491727
v 0.357730 3.142666 1.491727
v 0.273794 3.017078 1.491727
v 0.148176 2.933163 1.491727
v 0.000000 2.903696 1.491727
v -0.148176 2.933163 1.491727
v -0.273794 3.017078 1.491727
v -0.357730 3.142666 1.491727
v -0.387204 3.290808 1.491727
v -0.357730 3.438950 1.491727
v -0.273794 3.564538 1.491726
v -0.148176 3.648453 1.491726
v 0.050454 3.412586 1.711734
v -0.000001 3.422620 1.711734
v 0.093226 3.384013 1.711734
v 0.121806 3.341250 1.711734
v 0.131842 3.290808 1.711734
v 0.121806 3.240366 1.711734
v 0.093226 3.197604 1.711734
v 0.050454 3.169030 1.711734
v -0.000001 3.158997 1.711734
v -0.050455 3.169030 1.711734
v -0.093227 3.197604 1.711734
v -0.121807 3.240366 1.711734
v -0.131843 3.290808 1.711734
v -0.121807 3.341250 1.711734
v -0.093227 3.384013 1.711734
v -0.050455 3.412586 1.711734
vn -0.0000 0.6176 -0.7865
vn 0.3010 0.6176 -0.7266
vn 0.5561 0.6176 -0.5561
vn 0.7266 0.6176 -0.3010
vn 0.7865 0.6176 -0.0000
vn 0.7266 0.6176 0.3010
vn 0.5561 0.6176 0.5561
vn 0.3010 0.6176 0.7266
vn -0.0000 0.6176 0.7865
vn -0.3010 0.6176 0.7266
vn -0.5561 0.6176 0.5561
vn -0.7266 0.6176 0.3010
vn -0.7865 0.6176 -0.0000
vn -0.7266 0.6176 -0.3010
vn -0.5561 0.6176 -0.5561
vn 0.3326 0.9329 -0.1378
vn 0.2546 0.9329 -0.2546
vn 0.1450 0.9788 -0.1450
vn 0.1894 0.9788 -0.0785
vn -0.3010 0.6176 -0.7266
vn -0.0000 -1.0000 -0.0000
vn -0.7071 -0.0000 -0.7071
vn -0.9239 -0.0000 -0.3827
vn -0.0000 0.9329 0.3601
vn 0.1378 0.9329 0.3326
vn 0.0785 0.9788 0.1894
vn -0.0000 0.9788 0.2050
vn 0.1378 0.9329 -0.3326
vn -0.0000 0.9329 -0.3601
vn -0.0000 0.9788 -0.2050
vn 0.0785 0.9788 -0.1894
vn -0.3326 0.9329 -0.1378
vn -0.3601 0.9329 -0.0000
vn -0.2050 0.9788 -0.0000
vn -0.1894 0.9788 -0.0785
vn 0.2546 0.9329 0.2546
vn 0.3326 0.9329 0.1378
vn 0.1894 0.9788 0.0785
vn 0.1450 0.9788 0.1450
vn -0.3326 0.9329 0.1378
vn -0.2546 0.9329 0.2546
vn -0.1450 0.9788 0.1450
vn -0.1894 0.9788 0.0785
vn -0.1378 0.9329 -0.3326
vn -0.0785 0.9788 -0.1894
vn 0.3601 0.9329 -0.0000
vn 0.2050 0.9788 -0.0000
vn -0.1378 0.9329 0.3326
vn -0.0785 0.9788 0.1894
vn -0.2546 0.9329 -0.2546
vn -0.1450 0.9788 -0.1450
vn -0.0000 1.0000 -0.0000
vn 0.3827 -0.0000 0.9239
vn 0.7071 -0.0000 0.7071
vn -0.3827 -0.0000 -0.9239
vn -0.0000 -0.0000 1.0000
vn 0.3827 -0.0000 -0.9239
vn -0.0000 -0.0000 -1.0000
vn -0.3827 -0.0000 0.9239
vn 0.7071 -0.0000 -0.7071
vn -0.7071 -0.0000 0.7071
vn 0.9239 -0.0000 -0.3827
vn -0.9239 -0.0000 0.3827
vn 1.0000 -0.0000 -0.0000
vn -1.0000 -0.0000 -0.0000
vn 0.9239 -0.0000 0.3827
vn -0.6779 -0.6794 0.2808
vn -0.5188 -0.6794 0.5188
vn 0.7337 -0.6794 -0.0000
vn 0.6779 -0.6794 -0.2808
vn -0.7337 -0.6794 -0.0000
vn 0.6779 -0.6794 0.2808
vn -0.6779 -0.6794 -0.2808
vn 0.5188 -0.6794 0.5188
vn -0.5188 -0.6794 -0.5188
vn 0.2808 -0.6794 0.6779
vn -0.2808 -0.6794 -0.6779
vn -0.0000 -0.6794 0.7337
vn 0.2808 -0.6794 -0.6779
vn -0.0000 -0.6794 -0.7337
vn -0.2808 -0.6794 0.6779
vn 0.5188 -0.6794 -0.5188
vn 0.5724 0.5871 0.5724
vn 0.7479 0.5871 0.3098
vn -0.5724 0.5871 -0.5724
vn -0.7479 0.5871 -0.3098
vn 0.3098 0.5871 0.7479
vn -0.3098 0.5871 -0.7479
vn -0.0000 0.5871 0.8095
vn 0.3098 0.5871 -0.7479
vn -0.0000 0.5871 -0.8095
vn -0.3098 0.5871 0.7479
vn 0.5724 0.5871 -0.5724
vn -0.5724 0.5871 0.5724
vn 0.7479 0.5871 -0.3098
vn -0.7479 0.5871 0.3098
vn 0.8095 0.5871 -0.0000
vn -0.8095 0.5871 -0.0000
vn -0.2771 -0.9200 -0.2771
vn -0.3621 -0.9200 -0.1500
vn 0.1500 -0.9200 0.3621
vn 0.2771 -0.9200 0.2771
vn -0.1500 -0.9200 -0.3621
vn -0.0000 -0.9200 0.3919
vn 0.1500 -0.9200 -0.3621
vn -0.0000 -0.9200 -0.3919
vn -0.1500 -0.9200 0.3621
vn 0.2771 -0.9200 -0.2771
vn -0.2771 -0.9200 0.2771
vn 0.3621 -0.9200 -0.1500
vn -0.3621 -0.9200 0.1500
vn 0.3919 -0.9200 -0.0000
vn -0.3919 -0.9200 -0.0000
vn 0.3621 -0.9200 0.1500
vn -0.0810 0.9774 0.1955
vn -0.0000 0.9774 0.2116
vn -0.9017 0.2180 -0.3735
vn -0.6901 0.2180 -0.6901
vn 0.1496 0.9774 -0.1496
vn 0.0810 0.9774 -0.1955
vn -0.1496 0.9774 0.1496
vn 0.1955 0.9774 -0.0810
vn -0.1955 0.9774 0.0810
vn 0.2116 0.9774 -0.0000
vn -0.2116 0.9774 -0.0000
vn 0.1955 0.9774 0.0810
vn -0.1955 0.9774 -0.0810
vn 0.1496 0.9774 0.1496
vn -0.1496 0.9774 -0.1496
vn 0.0810 0.9774 0.1955
vn -0.0810 0.9774 -0.1955
vn -0.0000 0.9774 -0.2116
vn 0.9759 0.2180 -0.0000
vn 0.9016 0.2180 -0.3735
vn 0.7274 0.6166 -0.3013
vn 0.7873 0.6166 -0.0000
vn 0.6901 0.2180 0.6901
vn 0.3735 0.2180 0.9016
vn -0.3735 0.2180 -0.9016
vn -0.0000 0.2180 0.9759
vn -0.0000 0.2180 -0.9759
vn 0.3735 0.2180 -0.9016
vn -0.3735 0.2180 0.9016
vn 0.6901 0.2180 -0.6901
vn -0.6901 0.2180 0.6901
vn -0.9016 0.2180 0.3735
vn -0.9759 0.2180 -0.0000
vn 0.9016 0.2180 0.3735
vn -0.3013 0.6166 0.7274
vn -0.0000 0.6166 0.7873
vn -0.0000 0.8272 0.5620
vn -0.2151 0.8272 0.5192
vn -0.7274 0.6166 0.3013
vn -0.7873 0.6166 -0.0000
vn 0.7274 0.6166 0.3013
vn -0.7274 0.6166 -0.3013
vn 0.5567 0.6166 0.5567
vn -0.5567 0.6166 -0.5567
vn 0.3013 0.6166 0.7274
vn -0.3013 0.6166 -0.7274
vn -0.0000 0.6166 -0.7873
vn 0.3013 0.6166 -0.7274
vn 0.5567 0.6166 -0.5567
vn -0.5567 0.6166 0.5567
vn -0.3974 0.8272 -0.3974
vn -0.5192 0.8272 -0.2151
vn -0.3966 0.9032 -0.1643
vn -0.3035 0.9032 -0.3035
vn 0.2151 0.8272 -0.5192
vn 0.3974 0.8272 -0.3974
vn -0.3974 0.8272 0.3974
vn 0.5192 0.8272 -0.2151
vn -0.5192 0.8272 0.2151
vn 0.5620 0.8272 -0.0000
vn -0.5620 0.8272 -0.0000
vn 0.5192 0.8272 0.2151
vn 0.3974 0.8272 0.3974
vn 0.2151 0.8272 0.5192
vn -0.2151 0.8272 -0.5192
vn -0.0000 0.8272 -0.5620
vn -0.4293 0.9032 -0.0000
vn -0.3966 0.9032 0.1643
vn -0.3149 0.9401 0.1304
vn -0.3408 0.9401 -0.0000
vn 0.3035 0.9032 0.3035
vn 0.1643 0.9032 0.3966
vn -0.1643 0.9032 -0.3966
vn -0.0000 0.9032 0.4293
vn -0.0000 0.9032 -0.4293
vn 0.1643 0.9032 -0.3966
vn -0.1643 0.9032 0.3966
vn 0.3035 0.9032 -0.3035
vn -0.3035 0.9032 0.3035
vn 0.3966 0.9032 -0.1643
vn 0.4293 0.9032 -0.0000
vn 0.3966 0.9032 0.1643
vn -0.2965 -0.6323 -0.7158
vn -0.5478 -0.6323 -0.5478
vn 0.3408 0.9401 -0.0000
vn 0.3149 0.9401 0.1304
vn -0.3149 0.9401 -0.1304
vn 0.2410 0.9401 0.2410
vn -0.2410 0.9401 -0.2410
vn 0.1304 0.9401 0.3149
vn -0.1304 0.9401 -0.3149
vn -0.0000 0.9401 0.3408
vn -0.0000 0.9401 -0.3408
vn 0.1304 0.9401 -0.3149
vn -0.1304 0.9401 0.3149
vn 0.2410 0.9401 -0.2410
vn -0.2410 0.9401 0.2410
vn 0.3149 0.9401 -0.1304
vn -0.0000 -0.6323 0.7747
vn 0.2965 -0.6323 0.7158
vn 0.2965 -0.6323 -0.7158
vn -0.0000 -0.6323 -0.7747
vn -0.2965 -0.6323 0.7158
vn 0.5478 -0.6323 -0.5478
vn -0.5478 -0.6323 0.5478
vn 0.7158 -0.6323 -0.2965
vn -0.7158 -0.6323 0.2965
vn 0.7747 -0.6323 -0.0000
vn -0.7747 -0.6323 -0.0000
vn 0.7158 -0.6323 0.2965
vn -0.7158 -0.6323 -0.2965
vn 0.5478 -0.6323 0.5478
vn 0.7525 0.5801 -0.3117
vn 0.5760 0.5801 -0.5760
vn -0.7525 0.5801 0.3117
vn -0.5760 0.5801 0.5760
vn 0.8146 0.5801 -0.0000
vn -0.8146 0.5801 -0.0000
vn 0.7525 0.5801 0.3117
vn -0.7525 0.5801 -0.3117
vn 0.5760 0.5801 0.5760
vn -0.5760 0.5801 -0.5760
vn 0.3117 0.5801 0.7525
vn -0.3117 0.5801 -0.7525
vn -0.0000 0.5801 0.8146
vn 0.3117 0.5801 -0.7525
vn -0.0000 0.5801 -0.8146
vn -0.3117 0.5801 0.7525
vn -0.0000 0.3827 -0.9239
vn -0.0000 0.7071 -0.7071
vn -0.0000 0.9239 -0.3827
vn -0.0000 0.9239 0.3827
vn -0.0000 0.7071 0.7071
vn -0.0000 0.3827 0.9239
vn -0.0000 -0.3827 0.9239
vn -0.0000 -0.7071 0.7071
vn -0.0000 -0.9239 0.3827
vn -0.0000 -0.9239 -0.3827
vn -0.0000 -0.7071 -0.7071
vn -0.0000 -0.3827 -0.9239
vn -0.0000 -0.9941 -0.1088
vn 0.3803 -0.9184 -0.1088
vn 0.3826 -0.9239 -0.0000
vn 0.7028 -0.7030 -0.1088
vn 0.7070 -0.7072 -0.0000
vn 0.9184 -0.3805 -0.1088
vn 0.9238 -0.3828 -0.0000
vn 0.9941 -0.0000 -0.1088
vn 0.9184 0.3805 -0.1088
vn 0.9238 0.3828 -0.0000
vn 0.7028 0.7030 -0.1088
vn 0.7070 0.7072 -0.0000
vn 0.3803 0.9184 -0.1088
vn 0.3826 0.9239 -0.0000
vn -0.0000 0.9941 -0.1088
vn -0.3803 0.9184 -0.1088
vn -0.3826 0.9239 -0.0000
vn -0.7028 0.7030 -0.1088
vn -0.7070 0.7072 -0.0000
vn -0.9184 0.3805 -0.1088
vn -0.9238 0.3828 -0.0000
vn -0.9941 -0.0000 -0.1088
vn -0.9184 -0.3805 -0.1088
vn -0.9238 -0.3828 -0.0000
vn -0.7028 -0.7030 -0.1088
vn -0.7070 -0.7072 -0.0000
vn 0.6704 -0.6705 -0.3177
vn 0.8760 -0.3629 -0.3177
vn -0.3803 -0.9184 -0.1088
vn -0.3826 -0.9239 -0.0000
vn -0.8760 -0.3629 -0.3177
vn -0.9482 -0.0000 -0.3177
vn -0.9073 -0.0000 -0.4205
vn -0.8382 -0.3473 -0.4204
vn 0.3628 0.8761 -0.3177
vn -0.0000 0.9482 -0.3177
vn -0.0000 -0.9482 -0.3177
vn 0.3628 -0.8761 -0.3177
vn 0.8760 0.3629 -0.3177
vn 0.6704 0.6705 -0.3177
vn -0.6704 0.6705 -0.3177
vn -0.8760 0.3629 -0.3177
vn -0.3628 -0.8761 -0.3177
vn 0.9482 -0.0000 -0.3177
vn -0.3628 0.8761 -0.3177
vn -0.6704 -0.6705 -0.3177
vn 0.8382 0.3473 -0.4204
vn 0.6415 0.6417 -0.4204
vn -0.6415 -0.6417 -0.4204
vn 0.3472 0.8383 -0.4204
vn -0.3472 -0.8383 -0.4204
vn -0.0000 0.9074 -0.4204
vn -0.0000 -0.9074 -0.4204
vn 0.3472 -0.8383 -0.4204
vn -0.3472 0.8383 -0.4204
vn 0.6415 -0.6417 -0.4204
vn -0.6415 0.6417 -0.4204
vn 0.8382 -0.3473 -0.4204
vn -0.8382 0.3473 -0.4204
vn 0.9073 -0.0000 -0.4205
vn -0.0000 0.9941 0.1088
vn 0.3803 0.9184 0.1088
vn 0.7028 0.7030 0.1088
vn 0.9184 0.3805 0.1088
vn 0.9941 -0.0000 0.1088
vn 0.9184 -0.3805 0.1088
vn 0.7028 -0.7030 0.1088
vn 0.3803 -0.9184 0.1088
vn -0.0000 -0.9941 0.1088
vn -0.3803 -0.9184 0.1088
vn -0.7028 -0.7030 0.1088
vn -0.9184 -0.3805 0.1088
vn -0.9941 -0.0000 0.1088
vn -0.9184 0.3805 0.1088
vn -0.7028 0.7030 0.1088
vn 0.6704 0.6705 0.3177
vn 0.8760 0.3629 0.3177
vn -0.3803 0.9184 0.1088
vn -0.8760 0.3629 0.3177
vn -0.9482 -0.0000 0.3177
vn -0.9073 -0.0000 0.4205
vn -0.8382 0.3473 0.4204
vn 0.3628 -0.8761 0.3177
vn -0.0000 -0.9482 0.3177
vn -0.0000 0.9482 0.3177
vn 0.3628 0.8761 0.3177
vn 0.8760 -0.3629 0.3177
vn 0.6704 -0.6705 0.3177
vn -0.6704 -0.6705 0.3177
vn -0.8760 -0.3629 0.3177
vn -0.3628 0.8761 0.3177
vn 0.9482 -0.0000 0.3177
vn -0.3628 -0.8761 0.3177
vn -0.6704 0.6705 0.3177
vn 0.8382 -0.3473 0.4204
vn 0.6415 -0.6417 0.4204
vn -0.6415 0.6417 0.4204
vn 0.3472 -0.8383 0.4204
vn -0.3472 0.8383 0.4204
vn -0.0000 -0.9074 0.4204
vn -0.0000 0.9074 0.4204
vn 0.3472 0.8383 0.4204
vn -0.3472 -0.8383 0.4204
vn 0.6415 0.6417 0.4204
vn -0.6415 -0.6417 0.4204
vn 0.8382 0.3473 0.4204
vn -0.8382 -0.3473 0.4204
vn 0.9073 -0.0000 0.4205
vt 1.000000 0.500000
vt 1.000000 1.000000
vt 0.937500 1.000000
vt 0.937500 0.500000
vt 0.875000 1.000000
vt 0.875000 0.500000
vt 0.812500 1.000000
vt 0.812500 0.500000
vt 0.750000 1.000000
vt 0.750000 0.500000
vt 0.687500 1.000000
vt 0.687500 0.500000
vt 0.625000 1.000000
vt 0.625000 0.500000
vt 0.562500 1.000000
vt 0.562500 0.500000
vt 0.500000 1.000000
vt 0.500000 0.500000
vt 0.437500 1.000000
vt 0.437500 0.500000
vt 0.375000 1.000000
vt 0.375000 0.500000
vt 0.312500 1.000000
vt 0.312500 0.500000
vt 0.250000 1.000000
vt 0.250000 0.500000
vt 0.187500 1.000000
vt 0.187500 0.500000
vt 0.125000 1.000000
vt 0.125000 0.500000
vt 0.062500 1.000000
vt 0.062500 0.500000
vt 0.000000 1.000000
vt 0.000000 0.500000
vt 0.750000 0.490000
vt 0.841844 0.471731
vt 0.919706 0.419706
vt 0.971731 0.341844
vt 0.990000 0.250000
vt 0.971731 0.158156
vt 0.919706 0.080294
vt 0.841844 0.028269
vt 0.750000 0.010000
vt 0.658156 0.028269
vt 0.580294 0.080294
vt 0.528269 0.158156
vt 0.510000 0.250000
vt 0.528269 0.341844
vt 0.580294 0.419706
vt 0.658156 0.471731
vt 0.123010 0.376991
vt 0.084079 0.318727
vt 0.250000 0.429592
vt 0.318727 0.415921
vt 0.341844 0.471731
vt 0.250000 0.490000
vt 0.376990 0.376990
vt 0.419706 0.419706
vt 0.415921 0.318727
vt 0.471731 0.341844
vt 0.429592 0.250000
vt 0.490000 0.250000
vt 0.415921 0.181273
vt 0.471731 0.158156
vt 0.376990 0.123010
vt 0.419706 0.080294
vt 0.318727 0.084079
vt 0.341844 0.028269
vt 0.250000 0.070408
vt 0.250000 0.010000
vt 0.181273 0.084079
vt 0.158156 0.028269
vt 0.123010 0.123010
vt 0.080294 0.080294
vt 0.084079 0.181273
vt 0.028269 0.158156
vt 0.070408 0.250000
vt 0.010000 0.250000
vt 0.028269 0.341844
vt 0.080294 0.419706
vt 0.181273 0.415921
vt 0.158156 0.471731
vt 0.118278 0.250000
vt 0.128305 0.199592
vt 0.250000 0.381722
vt 0.300408 0.371695
vt 0.343141 0.343141
vt 0.371695 0.300408
vt 0.381722 0.250000
vt 0.371695 0.199592
vt 0.343141 0.156859
vt 0.300408 0.128305
vt 0.250000 0.118278
vt 0.199592 0.128305
vt 0.156859 0.156859
vt 0.128305 0.300408
vt 0.156859 0.343141
vt 0.199592 0.371695
vt 0.307999 0.192001
vt 0.325780 0.218611
vt 0.250000 0.332023
vt 0.281389 0.325780
vt 0.307999 0.307999
vt 0.325780 0.281389
vt 0.332023 0.250000
vt 0.281389 0.174220
vt 0.250000 0.167977
vt 0.218611 0.174220
vt 0.192001 0.192001
vt 0.174220 0.218611
vt 0.167977 0.250000
vt 0.174220 0.281389
vt 0.192001 0.307999
vt 0.218611 0.325780
vt 0.325499 0.281273
vt 0.307785 0.307785
vt 0.250000 0.331720
vt 0.281273 0.325499
vt 0.331720 0.250000
vt 0.325499 0.218727
vt 0.307785 0.192215
vt 0.281273 0.174501
vt 0.250000 0.168280
vt 0.218727 0.174501
vt 0.192215 0.192215
vt 0.174501 0.218727
vt 0.168280 0.250000
vt 0.174501 0.281273
vt 0.192215 0.307785
vt 0.218727 0.325499
s 1
usemtl Material.001
f 1/1/1 2/2/1 4/3/2 3/4/2
f 3/4/2 4/3/2 6/5/3 5/6/3
f 5/6/3 6/5/3 8/7/4 7/8/4
f 7/8/4 8/7/4 10/9/5 9/10/5
f 9/10/5 10/9/5 12/11/6 11/12/6
f 11/12/6 12/11/6 14/13/7 13/14/7
f 13/14/7 14/13/7 16/15/8 15/16/8
f 15/16/8 16/15/8 18/17/9 17/18/9
f 17/18/9 18/17/9 20/19/10 19/20/10
f 19/20/10 20/19/10 22/21/11 21/22/11
f 21/22/11 22/21/11 24/23/12 23/24/12
f 23/24/12 24/23/12 26/25/13 25/26/13
f 25/26/13 26/25/13 28/27/14 27/28/14
f 27/28/14 28/27/14 30/29/15 29/30/15
f 8/7/16 6/5/17 51/5/18 52/7/19
f 29/30/15 30/29/15 32/31/20 31/32/20
f 31/32/20 32/31/20 2/33/1 1/34/1
f 1/35/21 3/36/21 5/37/21 7/38/21 9/39/21 11/40/21 13/41/21 15/42/21 17/43/21 19/44/21 21/45/21 23/46/21 25/47/21 27/48/21 29/49/21 31/50/21
f 47/51/22 46/52/23 78/52/23 79/51/22
f 18/17/24 16/15/25 56/15/26 57/17/27
f 4/3/28 2/2/29 50/2/30 49/3/31
f 28/27/32 26/25/33 61/25/34 62/27/35
f 14/13/36 12/11/37 54/11/38 55/13/39
f 24/23/40 22/21/41 59/21/42 60/23/43
f 2/33/29 32/31/44 64/31/45 50/33/30
f 10/9/46 8/7/16 52/7/19 53/9/47
f 20/19/48 18/17/24 57/17/27 58/19/49
f 30/29/50 28/27/32 62/27/35 63/29/51
f 6/5/17 4/3/28 49/3/31 51/5/18
f 16/15/25 14/13/36 55/13/39 56/15/26
f 26/25/33 24/23/40 60/23/43 61/25/34
f 12/11/37 10/9/46 53/9/47 54/11/38
f 22/21/41 20/19/48 58/19/49 59/21/42
f 32/31/44 30/29/50 63/29/51 64/31/45
f 34/53/52 33/54/52 49/55/31 50/56/30
f 33/54/52 35/57/52 51/58/18 49/55/31
f 35/57/52 36/59/52 52/60/19 51/58/18
f 36/59/52 37/61/52 53/62/47 52/60/19
f 37/61/52 38/63/52 54/64/38 53/62/47
f 38/63/52 39/65/52 55/66/39 54/64/38
f 39/65/52 40/67/52 56/68/26 55/66/39
f 40/67/52 41/69/52 57/70/27 56/68/26
f 41/69/52 42/71/52 58/72/49 57/70/27
f 42/71/52 43/73/52 59/74/42 58/72/49
f 43/73/52 44/75/52 60/76/43 59/74/42
f 44/75/52 45/77/52 61/78/34 60/76/43
f 45/77/52 46/52/52 62/79/35 61/78/34
f 46/52/52 47/51/52 63/80/51 62/79/35
f 47/51/52 48/81/52 64/82/45 63/80/51
f 48/81/52 34/53/52 50/56/30 64/82/45
f 69/61/52 68/59/52 84/59/52 85/61/52
f 40/67/53 39/65/54 71/65/54 72/67/53
f 48/81/55 47/51/22 79/51/22 80/81/55
f 41/69/56 40/67/53 72/67/53 73/69/56
f 33/54/57 34/53/58 66/53/58 65/54/57
f 34/53/58 48/81/55 80/81/55 66/53/58
f 42/71/59 41/69/56 73/69/56 74/71/59
f 35/57/60 33/54/57 65/54/57 67/57/60
f 43/73/61 42/71/59 74/71/59 75/73/61
f 36/59/62 35/57/60 67/57/60 68/59/62
f 44/75/63 43/73/61 75/73/61 76/75/63
f 37/61/64 36/59/62 68/59/62 69/61/64
f 45/77/65 44/75/63 76/75/63 77/77/65
f 38/63/66 37/61/64 69/61/64 70/63/66
f 46/52/23 45/77/65 77/77/65 78/52/23
f 39/65/54 38/63/66 70/63/66 71/65/54
f 92/75/67 91/73/68 107/73/68 108/75/67
f 77/77/52 76/75/52 92/75/52 93/77/52
f 70/63/52 69/61/52 85/61/52 86/63/52
f 78/52/52 77/77/52 93/77/52 94/52/52
f 71/65/52 70/63/52 86/63/52 87/65/52
f 79/51/52 78/52/52 94/52/52 95/51/52
f 72/67/52 71/65/52 87/65/52 88/67/52
f 80/81/52 79/51/52 95/51/52 96/81/52
f 73/69/52 72/67/52 88/67/52 89/69/52
f 65/54/52 66/53/52 82/53/52 81/54/52
f 66/53/52 80/81/52 96/81/52 82/53/52
f 74/71/52 73/69/52 89/69/52 90/71/52
f 67/57/52 65/54/52 81/54/52 83/57/52
f 75/73/52 74/71/52 90/71/52 91/73/52
f 68/59/52 67/57/52 83/57/52 84/59/52
f 76/75/52 75/73/52 91/73/52 92/75/52
f 97/54/57 98/53/58 114/53/58 113/54/57
f 85/61/69 84/59/70 100/59/70 101/61/69
f 93/77/71 92/75/67 108/75/67 109/77/71
f 86/63/72 85/61/69 101/61/69 102/63/72
f 94/52/73 93/77/71 109/77/71 110/52/73
f 87/65/74 86/63/72 102/63/72 103/65/74
f 95/51/75 94/52/73 110/52/73 111/51/75
f 88/67/76 87/65/74 103/65/74 104/67/76
f 96/81/77 95/51/75 111/51/75 112/81/77
f 89/69/78 88/67/76 104/67/76 105/69/78
f 81/54/79 82/53/80 98/53/80 97/54/79
f 82/53/80 96/81/77 112/81/77 98/53/80
f 90/71/81 89/69/78 105/69/78 106/71/81
f 83/57/82 81/54/79 97/54/79 99/57/82
f 91/73/68 90/71/81 106/71/81 107/73/68
f 84/59/70 83/57/82 99/57/82 100/59/70
f 119/65/83 118/63/84 134/63/84 135/65/83
f 98/53/58 112/81/55 128/81/55 114/53/58
f 106/71/59 105/69/56 121/69/56 122/71/59
f 99/57/60 97/54/57 113/54/57 115/57/60
f 107/73/61 106/71/59 122/71/59 123/73/61
f 100/59/62 99/57/60 115/57/60 116/59/62
f 108/75/63 107/73/61 123/73/61 124/75/63
f 101/61/64 100/59/62 116/59/62 117/61/64
f 109/77/65 108/75/63 124/75/63 125/77/65
f 102/63/66 101/61/64 117/61/64 118/63/66
f 110/52/23 109/77/65 125/77/65 126/52/23
f 103/65/54 102/63/66 118/63/66 119/65/54
f 111/51/22 110/52/23 126/52/23 127/51/22
f 104/67/53 103/65/54 119/65/54 120/67/53
f 112/81/55 111/51/22 127/51/22 128/81/55
f 105/69/56 104/67/53 120/67/53 121/69/56
f 140/75/63 139/73/61 155/73/61 156/75/63
f 127/51/85 126/52/86 142/52/86 143/51/85
f 120/67/87 119/65/83 135/65/83 136/67/87
f 128/81/88 127/51/85 143/51/85 144/81/88
f 121/69/89 120/67/87 136/67/87 137/69/89
f 113/54/90 114/53/91 130/53/91 129/54/90
f 114/53/91 128/81/88 144/81/88 130/53/91
f 122/71/92 121/69/89 137/69/89 138/71/92
f 115/57/93 113/54/90 129/54/90 131/57/93
f 123/73/94 122/71/92 138/71/92 139/73/94
f 116/59/95 115/57/93 131/57/93 132/59/95
f 124/75/96 123/73/94 139/73/94 140/75/96
f 117/61/97 116/59/95 132/59/95 133/61/97
f 125/77/98 124/75/96 140/75/96 141/77/98
f 118/63/84 117/61/97 133/61/97 134/63/84
f 126/52/86 125/77/98 141/77/98 142/52/86
f 146/53/58 160/81/55 176/81/55 162/53/58
f 133/61/64 132/59/62 148/59/62 149/61/64
f 141/77/65 140/75/63 156/75/63 157/77/65
f 134/63/66 133/61/64 149/61/64 150/63/66
f 142/52/23 141/77/65 157/77/65 158/52/23
f 135/65/54 134/63/66 150/63/66 151/65/54
f 143/51/22 142/52/23 158/52/23 159/51/22
f 136/67/53 135/65/54 151/65/54 152/67/53
f 144/81/55 143/51/22 159/51/22 160/81/55
f 137/69/56 136/67/53 152/67/53 153/69/56
f 129/54/57 130/53/58 146/53/58 145/54/57
f 130/53/58 144/81/55 160/81/55 146/53/58
f 138/71/59 137/69/56 153/69/56 154/71/59
f 131/57/60 129/54/57 145/54/57 147/57/60
f 139/73/61 138/71/59 154/71/59 155/73/61
f 132/59/62 131/57/60 147/57/60 148/59/62
f 175/51/99 174/52/100 190/52/100 191/51/99
f 154/71/59 153/69/56 169/69/56 170/71/59
f 147/57/60 145/54/57 161/54/57 163/57/60
f 155/73/61 154/71/59 170/71/59 171/73/61
f 148/59/62 147/57/60 163/57/60 164/59/62
f 156/75/63 155/73/61 171/73/61 172/75/63
f 149/61/64 148/59/62 164/59/62 165/61/64
f 157/77/65 156/75/63 172/75/63 173/77/65
f 150/63/66 149/61/64 165/61/64 166/63/66
f 158/52/23 157/77/65 173/77/65 174/52/23
f 151/65/54 150/63/66 166/63/66 167/65/54
f 159/51/22 158/52/23 174/52/23 175/51/22
f 152/67/53 151/65/54 167/65/54 168/67/53
f 160/81/55 159/51/22 175/51/22 176/81/55
f 153/69/56 152/67/53 168/67/53 169/69/56
f 145/54/57 146/53/58 162/53/58 161/54/57
f 181/61/64 180/59/62 196/59/62 197/61/64
f 168/67/101 167/65/102 183/65/102 184/67/101
f 176/81/103 175/51/99 191/51/99 192/81/103
f 169/69/104 168/67/101 184/67/101 185/69/104
f 161/54/105 162/53/106 178/53/106 177/54/105
f 162/53/106 176/81/103 192/81/103 178/53/106
f 170/71/107 169/69/104 185/69/104 186/71/107
f 163/57/108 161/54/105 177/54/105 179/57/108
f 171/73/109 170/71/107 186/71/107 187/73/109
f 164/59/110 163/57/108 179/57/108 180/59/110
f 172/75/111 171/73/109 187/73/109 188/75/111
f 165/61/112 164/59/110 180/59/110 181/61/112
f 173/77/113 172/75/111 188/75/111 189/77/113
f 166/63/114 165/61/112 181/61/112 182/63/114
f 174/52/100 173/77/113 189/77/113 190/52/100
f 167/65/102 166/63/114 182/63/114 183/65/102
f 202/71/115 201/69/116 217/69/116 218/71/115
f 189/77/65 188/75/63 204/75/63 205/77/65
f 182/63/66 181/61/64 197/61/64 198/63/66
f 190/52/23 189/77/65 205/77/65 206/52/23
f 183/65/54 182/63/66 198/63/66 199/65/54
f 191/51/22 190/52/23 206/52/23 207/51/22
f 184/67/53 183/65/54 199/65/54 200/67/53
f 192/81/55 191/51/22 207/51/22 208/81/55
f 185/69/56 184/67/53 200/67/53 201/69/56
f 177/54/57 178/53/58 194/53/58 193/54/57
f 178/53/58 192/81/55 208/81/55 194/53/58
f 186/71/59 185/69/56 201/69/56 202/71/59
f 179/57/60 177/54/57 193/54/57 195/57/60
f 187/73/61 186/71/59 202/71/59 203/73/61
f 180/59/62 179/57/60 195/57/60 196/59/62
f 188/75/63 187/73/61 203/73/61 204/75/63
f 223/51/22 222/52/23 238/52/117 239/51/118
f 195/57/119 193/54/120 209/54/120 211/57/119
f 203/73/121 202/71/115 218/71/115 219/73/121
f 196/59/122 195/57/119 211/57/119 212/59/122
f 204/75/123 203/73/121 219/73/121 220/75/123
f 197/61/124 196/59/122 212/59/122 213/61/124
f 205/77/125 204/75/123 220/75/123 221/77/125
f 198/63/126 197/61/124 213/61/124 214/63/126
f 206/52/127 205/77/125 221/77/125 222/52/127
f 199/65/128 198/63/126 214/63/126 215/65/128
f 207/51/129 206/52/127 222/52/127 223/51/129
f 200/67/130 199/65/128 215/65/128 216/67/130
f 208/81/131 207/51/129 223/51/129 224/81/131
f 201/69/116 200/67/130 216/67/130 217/69/116
f 193/54/120 194/53/132 210/53/132 209/54/120
f 194/53/132 208/81/131 224/81/131 210/53/132
f 229/61/133 228/59/134 244/59/135 245/61/136
f 216/67/53 215/65/54 231/65/137 232/67/138
f 224/81/55 223/51/22 239/51/118 240/81/139
f 217/69/56 216/67/53 232/67/138 233/69/140
f 209/54/57 210/53/58 226/53/141 225/54/142
f 210/53/58 224/81/55 240/81/139 226/53/141
f 218/71/59 217/69/56 233/69/140 234/71/143
f 211/57/60 209/54/57 225/54/142 227/57/144
f 219/73/61 218/71/59 234/71/143 235/73/145
f 212/59/62 211/57/60 227/57/144 228/59/134
f 220/75/63 219/73/61 235/73/145 236/75/146
f 213/61/64 212/59/62 228/59/134 229/61/133
f 221/77/65 220/75/63 236/75/146 237/77/147
f 214/63/66 213/61/64 229/61/133 230/63/148
f 222/52/23 221/77/65 237/77/147 238/52/117
f 215/65/54 214/63/66 230/63/148 231/65/137
f 250/71/149 249/69/150 265/69/151 266/71/152
f 237/77/147 236/75/146 252/75/153 253/77/154
f 230/63/148 229/61/133 245/61/136 246/63/155
f 238/52/117 237/77/147 253/77/154 254/52/156
f 231/65/137 230/63/148 246/63/155 247/65/157
f 239/51/118 238/52/117 254/52/156 255/51/158
f 232/67/138 231/65/137 247/65/157 248/67/159
f 240/81/139 239/51/118 255/51/158 256/81/160
f 233/69/140 232/67/138 248/67/159 249/69/150
f 225/54/142 226/53/141 242/53/161 241/54/162
f 226/53/141 240/81/139 256/81/160 242/53/161
f 234/71/143 233/69/140 249/69/150 250/71/149
f 227/57/144 225/54/142 241/54/162 243/57/163
f 235/73/145 234/71/143 250/71/149 251/73/164
f 228/59/134 227/57/144 243/57/163 244/59/135
f 236/75/146 235/73/145 251/73/164 252/75/153
f 271/51/165 270/52/166 286/52/167 287/51/168
f 243/57/163 241/54/162 257/54/169 259/57/170
f 251/73/164 250/71/149 266/71/152 267/73/171
f 244/59/135 243/57/163 259/57/170 260/59/172
f 252/75/153 251/73/164 267/73/171 268/75/173
f 245/61/136 244/59/135 260/59/172 261/61/174
f 253/77/154 252/75/153 268/75/173 269/77/175
f 246/63/155 245/61/136 261/61/174 262/63/176
f 254/52/156 253/77/154 269/77/175 270/52/166
f 247/65/157 246/63/155 262/63/176 263/65/177
f 255/51/158 254/52/156 270/52/166 271/51/165
f 248/67/159 247/65/157 263/65/177 264/67/178
f 256/81/160 255/51/158 271/51/165 272/81/179
f 249/69/150 248/67/159 264/67/178 265/69/151
f 241/54/162 242/53/161 258/53/180 257/54/169
f 242/53/161 256/81/160 272/81/179 258/53/180
f 285/77/181 284/75/182 300/75/183 301/77/184
f 264/67/178 263/65/177 279/65/185 280/67/186
f 272/81/179 271/51/165 287/51/168 288/81/187
f 265/69/151 264/67/178 280/67/186 281/69/188
f 257/54/169 258/53/180 274/53/189 273/54/190
f 258/53/180 272/81/179 288/81/187 274/53/189
f 266/71/152 265/69/151 281/69/188 282/71/191
f 259/57/170 257/54/169 273/54/190 275/57/192
f 267/73/171 266/71/152 282/71/191 283/73/193
f 260/59/172 259/57/170 275/57/192 276/59/194
f 268/75/173 267/73/171 283/73/193 284/75/182
f 261/61/174 260/59/172 276/59/194 277/61/195
f 269/77/175 268/75/173 284/75/182 285/77/181
f 262/63/176 261/61/174 277/61/195 278/63/196
f 270/52/166 269/77/175 285/77/181 286/52/167
f 263/65/177 262/63/176 278/63/196 279/65/185
f 304/81/197 303/51/198 319/51/198 320/81/197
f 278/63/196 277/61/195 293/61/199 294/63/200
f 286/52/167 285/77/181 301/77/184 302/52/201
f 279/65/185 278/63/196 294/63/200 295/65/202
f 287/51/168 286/52/167 302/52/201 303/51/203
f 280/67/186 279/65/185 295/65/202 296/67/204
f 288/81/187 287/51/168 303/51/203 304/81/205
f 281/69/188 280/67/186 296/67/204 297/69/206
f 273/54/190 274/53/189 290/53/207 289/54/208
f 274/53/189 288/81/187 304/81/205 290/53/207
f 282/71/191 281/69/188 297/69/206 298/71/209
f 275/57/192 273/54/190 289/54/208 291/57/210
f 283/73/193 282/71/191 298/71/209 299/73/211
f 276/59/194 275/57/192 291/57/210 292/59/212
f 284/75/182 283/73/193 299/73/211 300/75/183
f 277/61/195 276/59/194 292/59/212 293/61/199
f 318/52/23 317/77/65 333/77/65 334/52/23
f 297/69/213 296/67/214 312/67/214 313/69/213
f 289/54/215 290/53/216 306/53/216 305/54/215
f 290/53/216 304/81/197 320/81/197 306/53/216
f 298/71/217 297/69/213 313/69/213 314/71/217
f 291/57/218 289/54/215 305/54/215 307/57/218
f 299/73/219 298/71/217 314/71/217 315/73/219
f 292/59/220 291/57/218 307/57/218 308/59/220
f 300/75/221 299/73/219 315/73/219 316/75/221
f 293/61/222 292/59/220 308/59/220 309/61/222
f 301/77/223 300/75/221 316/75/221 317/77/223
f 294/63/224 293/61/222 309/61/222 310/63/224
f 302/52/225 301/77/223 317/77/223 318/52/225
f 295/65/226 294/63/224 310/63/224 311/65/226
f 303/51/198 302/52/225 318/52/225 319/51/198
f 296/67/214 295/65/226 311/65/226 312/67/214
f 324/59/227 323/57/228 339/57/228 340/59/227
f 311/65/54 310/63/66 326/63/66 327/65/54
f 319/51/22 318/52/23 334/52/23 335/51/22
f 312/67/53 311/65/54 327/65/54 328/67/53
f 320/81/55 319/51/22 335/51/22 336/81/55
f 313/69/56 312/67/53 328/67/53 329/69/56
f 305/54/57 306/53/58 322/53/58 321/54/57
f 306/53/58 320/81/55 336/81/55 322/53/58
f 314/71/59 313/69/56 329/69/56 330/71/59
f 307/57/60 305/54/57 321/54/57 323/57/60
f 315/73/61 314/71/59 330/71/59 331/73/61
f 308/59/62 307/57/60 323/57/60 324/59/62
f 316/75/63 315/73/61 331/73/61 332/75/63
f 309/61/64 308/59/62 324/59/62 325/61/64
f 317/77/65 316/75/63 332/75/63 333/77/65
f 310/63/66 309/61/64 325/61/64 326/63/66
f 345/69/56 344/67/53 360/67/53 361/69/56
f 332/75/229 331/73/230 347/73/230 348/75/229
f 325/61/231 324/59/227 340/59/227 341/61/231
f 333/77/232 332/75/229 348/75/229 349/77/232
f 326/63/233 325/61/231 341/61/231 342/63/233
f 334/52/234 333/77/232 349/77/232 350/52/234
f 327/65/235 326/63/233 342/63/233 343/65/235
f 335/51/236 334/52/234 350/52/234 351/51/236
f 328/67/237 327/65/235 343/65/235 344/67/237
f 336/81/238 335/51/236 351/51/236 352/81/238
f 329/69/239 328/67/237 344/67/237 345/69/239
f 321/54/240 322/53/241 338/53/241 337/54/240
f 322/53/241 336/81/238 352/81/238 338/53/241
f 330/71/242 329/69/239 345/69/239 346/71/242
f 323/57/228 321/54/240 337/54/240 339/57/228
f 331/73/230 330/71/242 346/71/242 347/73/230
f 353/54/52 354/53/52 368/81/52 367/51/52 366/52/52 365/77/52 364/75/52 363/73/52 362/71/52 361/69/52 360/67/52 359/65/52 358/63/52 357/61/52 356/59/52 355/57/52
f 337/54/57 338/53/58 354/53/58 353/54/57
f 338/53/58 352/81/55 368/81/55 354/53/58
f 346/71/59 345/69/56 361/69/56 362/71/59
f 339/57/60 337/54/57 353/54/57 355/57/60
f 347/73/61 346/71/59 362/71/59 363/73/61
f 340/59/62 339/57/60 355/57/60 356/59/62
f 348/75/63 347/73/61 363/73/61 364/75/63
f 341/61/64 340/59/62 356/59/62 357/61/64
f 349/77/65 348/75/63 364/75/63 365/77/65
f 342/63/66 341/61/64 357/61/64 358/63/66
f 350/52/23 349/77/65 365/77/65 366/52/23
f 343/65/54 342/63/66 358/63/66 359/65/54
f 351/51/22 350/52/23 366/52/23 367/51/22
f 344/67/53 343/65/54 359/65/54 360/67/53
f 352/81/55 351/51/22 367/51/22 368/81/55
f 369/1/58 402/2/58 401/3/243 371/4/243
f 371/4/243 401/3/243 403/5/244 373/6/244
f 373/6/244 403/5/244 404/7/245 375/8/245
f 375/8/245 404/7/245 405/9/52 377/10/52
f 377/10/52 405/9/52 406/11/246 379/12/246
f 379/12/246 406/11/246 407/13/247 381/14/247
f 381/14/247 407/13/247 408/15/248 383/16/248
f 383/16/248 408/15/248 409/17/56 385/18/56
f 385/18/56 409/17/56 410/19/249 387/20/249
f 387/20/249 410/19/249 411/21/250 389/22/250
f 389/22/250 411/21/250 412/23/251 391/24/251
f 391/24/251 412/23/251 413/25/21 393/26/21
f 393/26/21 413/25/21 414/27/252 395/28/252
f 395/28/252 414/27/252 415/29/253 397/30/253
f 394/83/21 392/84/251 444/84/251 445/83/21
f 397/30/253 415/29/253 416/31/254 399/32/254
f 399/32/254 416/31/254 402/33/58 369/34/58
f 369/35/64 371/36/64 373/37/64 375/38/64 377/39/64 379/40/64 381/41/64 383/42/64 385/43/64 387/44/64 389/45/64 391/46/64 393/47/64 395/48/64 397/49/64 399/50/64
f 370/85/65 372/86/65 401/55/65 402/56/65
f 372/86/65 374/87/65 403/58/65 401/55/65
f 374/87/65 376/88/65 404/60/65 403/58/65
f 376/88/65 378/89/65 405/62/65 404/60/65
f 378/89/65 380/90/65 406/64/65 405/62/65
f 380/90/65 382/91/65 407/66/65 406/64/65
f 382/91/65 384/92/65 408/68/65 407/66/65
f 384/92/65 386/93/65 409/70/65 408/68/65
f 386/93/65 388/94/65 410/72/65 409/70/65
f 388/94/65 390/95/65 411/74/65 410/72/65
f 390/95/65 392/84/65 412/76/65 411/74/65
f 392/84/65 394/83/65 413/78/65 412/76/65
f 394/83/65 396/96/65 414/79/65 413/78/65
f 396/96/65 398/97/65 415/80/65 414/79/65
f 398/97/65 400/98/65 416/82/65 415/80/65
f 400/98/65 370/85/65 402/56/65 416/82/65
f 423/99/247 422/100/246 454/100/246 455/99/247
f 380/90/246 378/89/52 437/89/52 438/90/246
f 396/96/252 394/83/21 445/83/21 446/96/252
f 382/91/247 380/90/246 438/90/246 439/91/247
f 398/97/253 396/96/252 446/96/252 447/97/253
f 384/92/248 382/91/247 439/91/247 440/92/248
f 400/98/254 398/97/253 447/97/253 448/98/254
f 386/93/56 384/92/248 440/92/248 441/93/56
f 372/86/243 370/85/58 434/85/58 433/86/243
f 370/85/58 400/98/254 448/98/254 434/85/58
f 388/94/249 386/93/56 441/93/56 442/94/249
f 374/87/244 372/86/243 433/86/243 435/87/244
f 390/95/250 388/94/249 442/94/249 443/95/250
f 376/88/245 374/87/244 435/87/244 436/88/245
f 392/84/251 390/95/250 443/95/250 444/84/251
f 378/89/52 376/88/245 436/88/245 437/89/52
f 418/101/65 417/102/65 433/86/65 434/85/65
f 417/102/65 419/103/65 435/87/65 433/86/65
f 419/103/65 420/104/65 436/88/65 435/87/65
f 420/104/65 421/105/65 437/89/65 436/88/65
f 421/105/65 422/100/65 438/90/65 437/89/65
f 422/100/65 423/99/65 439/91/65 438/90/65
f 423/99/65 424/106/65 440/92/65 439/91/65
f 424/106/65 425/107/65 441/93/65 440/92/65
f 425/107/65 426/108/65 442/94/65 441/93/65
f 426/108/65 427/109/65 443/95/65 442/94/65
f 427/109/65 428/110/65 444/84/65 443/95/65
f 428/110/65 429/111/65 445/83/65 444/84/65
f 429/111/65 430/112/65 446/96/65 445/83/65
f 430/112/65 431/113/65 447/97/65 446/96/65
f 431/113/65 432/114/65 448/98/65 447/97/65
f 432/114/65 418/101/65 434/85/65 448/98/65
f 449/102/65 450/101/65 464/114/65 463/113/65 462/112/65 461/111/65 460/110/65 459/109/65 458/108/65 457/107/65 456/106/65 455/99/65 454/100/65 453/105/65 452/104/65 451/103/65
f 431/113/253 430/112/252 462/112/252 463/113/253
f 424/106/248 423/99/247 455/99/247 456/106/248
f 432/114/254 431/113/253 463/113/253 464/114/254
f 425/107/56 424/106/248 456/106/248 457/107/56
f 417/102/243 418/101/58 450/101/58 449/102/243
f 418/101/58 432/114/254 464/114/254 450/101/58
f 426/108/249 425/107/56 457/107/56 458/108/249
f 419/103/244 417/102/243 449/102/243 451/103/244
f 427/109/250 426/108/249 458/108/249 459/109/250
f 420/104/245 419/103/244 451/103/244 452/104/245
f 428/110/251 427/109/250 459/109/250 460/110/251
f 421/105/52 420/104/245 452/104/245 453/105/52
f 429/111/21 428/110/251 460/110/251 461/111/21
f 422/100/246 421/105/52 453/105/52 454/100/246
f 430/112/252 429/111/21 461/111/21 462/112/252
f 465/1/21 466/2/255 468/3/256 467/4/257
f 467/4/257 468/3/256 470/5/258 469/6/259
f 469/6/259 470/5/258 472/7/260 471/8/261
f 471/8/261 472/7/260 474/9/262 473/10/64
f 473/10/64 474/9/262 476/11/263 475/12/264
f 475/12/264 476/11/263 478/13/265 477/14/266
f 477/14/266 478/13/265 480/15/267 479/16/268
f 479/16/268 480/15/267 482/17/269 481/18/52
f 481/18/52 482/17/269 484/19/270 483/20/271
f 483/20/271 484/19/270 486/21/272 485/22/273
f 485/22/273 486/21/272 488/23/274 487/24/275
f 487/24/275 488/23/274 490/25/276 489/26/65
f 489/26/65 490/25/276 492/27/277 491/28/278
f 491/28/278 492/27/277 494/29/279 493/30/280
f 472/7/260 470/5/258 499/5/281 500/7/282
f 493/30/280 494/29/279 496/31/283 495/32/284
f 495/32/284 496/31/283 466/33/255 465/34/21
f 465/35/56 467/36/56 469/37/56 471/38/56 473/39/56 475/40/56 477/41/56 479/42/56 481/43/56 483/44/56 485/45/56 487/46/56 489/47/56 491/48/56 493/49/56 495/50/56
f 510/27/285 509/25/286 541/25/287 542/27/288
f 482/17/269 480/15/267 504/15/289 505/17/290
f 468/3/256 466/2/255 498/2/291 497/3/292
f 492/27/277 490/25/276 509/25/286 510/27/285
f 478/13/265 476/11/263 502/11/293 503/13/294
f 488/23/274 486/21/272 507/21/295 508/23/296
f 466/33/255 496/31/283 512/31/297 498/33/291
f 474/9/262 472/7/260 500/7/282 501/9/298
f 484/19/270 482/17/269 505/17/290 506/19/299
f 494/29/279 492/27/277 510/27/285 511/29/300
f 470/5/258 468/3/256 497/3/292 499/5/281
f 480/15/267 478/13/265 503/13/294 504/15/289
f 490/25/276 488/23/274 508/23/296 509/25/286
f 476/11/263 474/9/262 501/9/298 502/11/293
f 486/21/272 484/19/270 506/19/299 507/21/295
f 496/31/283 494/29/279 511/29/300 512/31/297
f 516/115/261 515/116/259 547/116/259 548/115/261
f 503/13/294 502/11/293 534/11/301 535/13/302
f 511/29/300 510/27/285 542/27/288 543/29/303
f 504/15/289 503/13/294 535/13/302 536/15/304
f 512/31/297 511/29/300 543/29/303 544/31/305
f 505/17/290 504/15/289 536/15/304 537/17/306
f 497/3/292 498/2/291 530/2/307 529/3/308
f 498/33/291 512/31/297 544/31/305 530/33/307
f 506/19/299 505/17/290 537/17/306 538/19/309
f 499/5/281 497/3/292 529/3/308 531/5/310
f 507/21/295 506/19/299 538/19/309 539/21/311
f 500/7/282 499/5/281 531/5/310 532/7/312
f 508/23/296 507/21/295 539/21/311 540/23/313
f 501/9/298 500/7/282 532/7/312 533/9/314
f 509/25/286 508/23/296 540/23/313 541/25/287
f 502/11/293 501/9/298 533/9/314 534/11/301
f 514/117/58 513/118/58 529/55/58 530/56/58
f 513/118/58 515/116/58 531/58/58 529/55/58
f 515/116/58 516/115/58 532/60/58 531/58/58
f 516/115/58 517/119/58 533/62/58 532/60/58
f 517/119/58 518/120/58 534/64/58 533/62/58
f 518/120/58 519/121/58 535/66/58 534/64/58
f 519/121/58 520/122/58 536/68/58 535/66/58
f 520/122/58 521/123/58 537/70/58 536/68/58
f 521/123/58 522/124/58 538/72/58 537/70/58
f 522/124/58 523/125/58 539/74/58 538/72/58
f 523/125/58 524/126/58 540/76/58 539/74/58
f 524/126/58 525/127/58 541/78/58 540/76/58
f 525/127/58 526/128/58 542/79/58 541/78/58
f 526/128/58 527/129/58 543/80/58 542/79/58
f 527/129/58 528/130/58 544/82/58 543/80/58
f 528/130/58 514/117/58 530/56/58 544/82/58
f 545/118/58 546/117/58 560/130/58 559/129/58 558/128/58 557/127/58 556/126/58 555/125/58 554/124/58 553/123/58 552/122/58 551/121/58 550/120/58 549/119/58 548/115/58 547/116/58
f 524/126/275 523/125/273 555/125/273 556/126/275
f 517/119/64 516/115/261 548/115/261 549/119/64
f 525/127/65 524/126/275 556/126/275 557/127/65
f 518/120/264 517/119/64 549/119/64 550/120/264
f 526/128/278 525/127/65 557/127/65 558/128/278
f 519/121/266 518/120/264 550/120/264 551/121/266
f 527/129/280 526/128/278 558/128/278 559/129/280
f 520/122/268 519/121/266 551/121/266 552/122/268
f 528/130/284 527/129/280 559/129/280 560/130/284
f 521/123/52 520/122/268 552/122/268 553/123/52
f 513/118/257 514/117/21 546/117/21 545/118/257
f 514/117/21 528/130/284 560/130/284 546/117/21
f 522/124/271 521/123/52 553/123/52 554/124/271
f 515/116/259 513/118/257 545/118/257 547/116/259
f 523/125/273 522/124/271 554/124/271 555/125/273
f 561/1/52 562/2/315 564/3/316 563/4/268
f 563/4/268 564/3/316 566/5/317 565/6/266
f 565/6/266 566/5/317 568/7/318 567/8/264
f 567/8/264 568/7/318 570/9/319 569/10/64
f 569/10/64 570/9/319 572/11/320 571/12/261
f 571/12/261 572/11/320 574/13/321 573/14/259
f 573/14/259 574/13/321 576/15/322 575/16/257
f 575/16/257 576/15/322 578/17/323 577/18/21
f 577/18/21 578/17/323 580/19/324 579/20/284
f 579/20/284 580/19/324 582/21/325 581/22/280
f 581/22/280 582/21/325 584/23/326 583/24/278
f 583/24/278 584/23/326 586/25/327 585/26/65
f 585/26/65 586/25/327 588/27/328 587/28/275
f 587/28/275 588/27/328 590/29/329 589/30/273
f 568/7/318 566/5/317 595/5/330 596/7/331
f 589/30/273 590/29/329 592/31/332 591/32/271
f 591/32/271 592/31/332 562/33/315 561/34/52
f 561/35/58 563/36/58 565/37/58 567/38/58 569/39/58 571/40/58 573/41/58 575/42/58 577/43/58 579/44/58 581/45/58 583/46/58 585/47/58 587/48/58 589/49/58 591/50/58
f 606/27/333 605/25/334 637/25/335 638/27/336
f 578/17/323 576/15/322 600/15/337 601/17/338
f 564/3/316 562/2/315 594/2/339 593/3/340
f 588/27/328 586/25/327 605/25/334 606/27/333
f 574/13/321 572/11/320 598/11/341 599/13/342
f 584/23/326 582/21/325 603/21/343 604/23/344
f 562/33/315 592/31/332 608/31/345 594/33/339
f 570/9/319 568/7/318 596/7/331 597/9/346
f 580/19/324 578/17/323 601/17/338 602/19/347
f 590/29/329 588/27/328 606/27/333 607/29/348
f 566/5/317 564/3/316 593/3/340 595/5/330
f 576/15/322 574/13/321 599/13/342 600/15/337
f 586/25/327 584/23/326 604/23/344 605/25/334
f 572/11/320 570/9/319 597/9/346 598/11/341
f 582/21/325 580/19/324 602/19/347 603/21/343
f 592/31/332 590/29/329 607/29/348 608/31/345
f 612/115/264 611/116/266 643/116/266 644/115/264
f 599/13/342 598/11/341 630/11/349 631/13/350
f 607/29/348 606/27/333 638/27/336 639/29/351
f 600/15/337 599/13/342 631/13/350 632/15/352
f 608/31/345 607/29/348 639/29/351 640/31/353
f 601/17/338 600/15/337 632/15/352 633/17/354
f 593/3/340 594/2/339 626/2/355 625/3/356
f 594/33/339 608/31/345 640/31/353 626/33/355
f 602/19/347 601/17/338 633/17/354 634/19/357
f 595/5/330 593/3/340 625/3/356 627/5/358
f 603/21/343 602/19/347 634/19/357 635/21/359
f 596/7/331 595/5/330 627/5/358 628/7/360
f 604/23/344 603/21/343 635/21/359 636/23/361
f 597/9/346 596/7/331 628/7/360 629/9/362
f 605/25/334 604/23/344 636/23/361 637/25/335
f 598/11/341 597/9/346 629/9/362 630/11/349
f 610/117/56 609/118/56 625/55/56 626/56/56
f 609/118/56 611/116/56 627/58/56 625/55/56
f 611/116/56 612/115/56 628/60/56 627/58/56
f 612/115/56 613/119/56 629/62/56 628/60/56
f 613/119/56 614/120/56 630/64/56 629/62/56
f 614/120/56 615/121/56 631/66/56 630/64/56
f 615/121/56 616/122/56 632/68/56 631/66/56
f 616/122/56 617/123/56 633/70/56 632/68/56
f 617/123/56 618/124/56 634/72/56 633/70/56
f 618/124/56 619/125/56 635/74/56 634/72/56
f 619/125/56 620/126/56 636/76/56 635/74/56
f 620/126/56 621/127/56 637/78/56 636/76/56
f 621/127/56 622/128/56 638/79/56 637/78/56
f 622/128/56 623/129/56 639/80/56 638/79/56
f 623/129/56 624/130/56 640/82/56 639/80/56
f 624/130/56 610/117/56 626/56/56 640/82/56
f 641/118/56 642/117/56 656/130/56 655/129/56 654/128/56 653/127/56 652/126/56 651/125/56 650/124/56 649/123/56 648/122/56 647/121/56 646/120/56 645/119/56 644/115/56 643/116/56
f 620/126/278 619/125/280 651/125/280 652/126/278
f 613/119/64 612/115/264 644/115/264 645/119/64
f 621/127/65 620/126/278 652/126/278 653/127/65
f 614/120/261 613/119/64 645/119/64 646/120/261
f 622/128/275 621/127/65 653/127/65 654/128/275
f 615/121/259 614/120/261 646/120/261 647/121/259
f 623/129/273 622/128/275 654/128/275 655/129/273
f 616/122/257 615/121/259 647/121/259 648/122/257
f 624/130/271 623/129/273 655/129/273 656/130/271
f 617/123/21 616/122/257 648/122/257 649/123/21
f 609/118/268 610/117/52 642/117/52 641/118/268
f 610/117/52 624/130/271 656/130/271 642/117/52
f 618/124/284 617/123/21 649/123/21 650/124/284
f 611/116/266 609/118/268 641/118/268 643/116/266
f 619/125/280 618/124/284 650/124/284 651/125/280
