# Blender 5.0.1
# www.blender.org
mtllib hospital.mtl
o Body
v -55.687321 0.000000 -48.962875
v -55.687321 58.643726 -48.962875
v -55.687321 0.000000 63.493866
v -55.687321 58.643726 63.493866
v 28.882530 0.000000 -48.962875
v 28.882530 58.643726 -48.962875
v 28.882530 0.000000 63.493866
v 28.882530 58.643726 63.493866
v 28.882530 0.000000 -29.213039
v 28.882530 13.252327 -29.213039
v 28.882530 13.252327 -13.017367
v 28.882530 0.000000 -13.017367
v -38.773350 0.000000 63.493866
v -21.859379 0.000000 63.493866
v -4.945407 0.000000 63.493866
v 11.968564 0.000000 63.493866
v -38.773350 58.643726 63.493866
v -21.859379 58.643726 63.493866
v -4.945407 58.643726 63.493866
v 11.968564 58.643726 63.493866
v -38.773350 0.000000 -48.962875
v -21.859379 0.000000 -48.962875
v -4.945407 0.000000 -48.962875
v 11.968564 0.000000 -48.962875
v -38.773350 58.643726 -48.962875
v -21.859379 58.643726 -48.962875
v -4.945407 58.643726 -48.962875
v 11.968564 58.643726 -48.962875
v -55.687321 0.000000 -32.897625
v -55.687321 0.000000 -16.832375
v -55.687321 0.000000 -0.767129
v -55.687321 0.000000 15.298120
v -55.687321 0.000000 31.363373
v -55.687321 0.000000 47.428619
v -55.687321 58.643726 -32.897625
v -55.687321 58.643726 -16.832375
v -55.687321 58.643726 -0.767129
v -55.687321 58.643726 15.298120
v -55.687321 58.643726 31.363373
v -55.687321 58.643726 47.428619
v 28.882530 58.643726 -32.897625
v 28.882530 58.643726 -16.832375
v 28.882530 58.643726 -0.767129
v 28.882530 58.643726 15.298120
v 28.882530 58.643726 31.363373
v 28.882530 58.643726 47.428619
v 11.968564 58.643726 47.428612
v 11.968564 58.643726 31.363365
v 11.968564 58.643726 15.298116
v 11.968564 58.643726 -0.767134
v 11.968564 58.643726 -16.832382
v 11.968564 58.643726 -32.897629
v -4.945407 58.643726 47.428612
v -4.945407 58.643726 31.363365
v -4.945407 58.643726 15.298116
v -4.945407 58.643726 -0.767134
v -4.945407 58.643726 -16.832382
v -4.945407 58.643726 -32.897629
v -21.859379 58.643726 47.428612
v -21.859379 58.643726 31.363365
v -21.859379 58.643726 15.298116
v -21.859379 58.643726 -0.767134
v -21.859379 58.643726 -16.832382
v -21.859379 58.643726 -32.897629
v -38.773350 58.643726 47.428612
v -38.773350 58.643726 31.363365
v -38.773350 58.643726 15.298116
v -38.773350 58.643726 -0.767134
v -38.773350 58.643726 -16.832382
v -38.773350 58.643726 -32.897629
v -38.773350 0.000000 47.428612
v -38.773350 0.000000 31.363365
v -38.773350 0.000000 15.298116
v -38.773350 0.000000 -0.767134
v -38.773350 0.000000 -16.832382
v -38.773350 0.000000 -32.897629
v -21.859379 0.000000 47.428612
v -21.859379 0.000000 31.363365
v -21.859379 0.000000 15.298116
v -21.859379 0.000000 -0.767134
v -21.859379 0.000000 -16.832382
v -21.859379 0.000000 -32.897629
v -4.945407 0.000000 47.428612
v -4.945407 0.000000 31.363365
v -4.945407 0.000000 15.298116
v -4.945407 0.000000 -0.767134
v -4.945407 0.000000 -16.832382
v -4.945407 0.000000 -32.897629
v 11.968564 0.000000 47.428612
v 11.968564 0.000000 31.363365
v 11.968564 0.000000 15.298116
v 11.968564 0.000000 -0.767134
v 11.968564 0.000000 -32.897629
v 11.968564 58.643726 47.428612
v 11.968564 58.643726 31.363365
v 11.968564 58.643726 15.298116
v 11.968564 58.643726 -0.767134
v 11.968564 58.643726 -16.832382
v 11.968564 58.643726 -32.897629
v -4.945407 58.643726 47.428612
v -4.945407 58.643726 31.363365
v -4.945407 58.643726 15.298116
v -4.945407 58.643726 -0.767134
v -4.945407 58.643726 -16.832382
v -4.945407 58.643726 -32.897629
v -21.859379 58.643726 47.428612
v -21.859379 58.643726 31.363365
v -21.859379 58.643726 15.298116
v -21.859379 58.643726 -0.767134
v -21.859379 58.643726 -16.832382
v -21.859379 58.643726 -32.897629
v -38.773350 58.643726 47.428612
v -38.773350 58.643726 31.363365
v -38.773350 58.643726 15.298116
v -38.773350 58.643726 -0.767134
v -38.773350 58.643726 -16.832382
v -38.773350 58.643726 -32.897629
v -55.687321 19.547909 -48.962875
v -55.687321 29.321863 -48.962875
v -55.687321 39.095818 -48.962875
v -55.687321 48.869774 -48.962875
v -55.687321 19.547909 63.493866
v -55.687321 29.321863 63.493866
v -55.687321 39.095818 63.493866
v -55.687321 48.869774 63.493866
v 28.882530 19.547909 63.493866
v 28.882530 29.321863 63.493866
v 28.882530 39.095818 63.493866
v 28.882530 48.869774 63.493866
v 28.882530 19.547909 -48.962875
v 28.882530 29.321863 -48.962875
v 28.882530 39.095818 -48.962875
v 28.882530 48.869774 -48.962875
v 11.968564 48.869774 -48.962875
v 11.968564 39.095818 -48.962875
v 11.968564 29.321863 -48.962875
v 11.968564 19.547909 -48.962875
v -4.945407 48.869774 -48.962875
v -4.945407 39.095818 -48.962875
v -4.945407 29.321863 -48.962875
v -4.945407 19.547909 -48.962875
v -21.859379 48.869774 -48.962875
v -21.859379 39.095818 -48.962875
v -21.859379 29.321863 -48.962875
v -21.859379 19.547909 -48.962875
v -38.773350 48.869774 -48.962875
v -38.773350 39.095818 -48.962875
v -38.773350 29.321863 -48.962875
v -38.773350 19.547909 -48.962875
v -38.773350 48.869774 63.493866
v -38.773350 39.095818 63.493866
v -38.773350 29.321863 63.493866
v -38.773350 19.547909 63.493866
v -21.859379 48.869774 63.493866
v -21.859379 39.095818 63.493866
v -21.859379 29.321863 63.493866
v -21.859379 19.547909 63.493866
v -4.945407 48.869774 63.493866
v -4.945407 39.095818 63.493866
v -4.945407 29.321863 63.493866
v -4.945407 19.547909 63.493866
v 11.968564 48.869774 63.493866
v 11.968564 39.095818 63.493866
v 11.968564 29.321863 63.493866
v 11.968564 19.547909 63.493866
v -55.687321 48.869774 -32.897625
v -55.687321 39.095818 -32.897625
v -55.687321 29.321863 -32.897625
v -55.687321 19.547909 -32.897625
v -55.687321 48.869774 -16.832375
v -55.687321 39.095818 -16.832375
v -55.687321 29.321863 -16.832375
v -55.687321 19.547909 -16.832375
v -55.687321 48.869774 -0.767129
v -55.687321 39.095818 -0.767129
v -55.687321 29.321863 -0.767129
v -55.687321 19.547909 -0.767129
v -55.687321 48.869774 15.298120
v -55.687321 39.095818 15.298120
v -55.687321 29.321863 15.298120
v -55.687321 19.547909 15.298120
v -55.687321 48.869774 31.363373
v -55.687321 39.095818 31.363373
v -55.687321 29.321863 31.363373
v -55.687321 19.547909 31.363373
v -55.687321 48.869774 47.428619
v -55.687321 39.095818 47.428619
v -55.687321 29.321863 47.428619
v -55.687321 19.547909 47.428619
v 28.882530 29.321863 47.428627
v 28.882530 29.321863 31.363373
v 28.882530 29.321863 15.298123
v 28.882530 29.321863 -0.767142
v 28.882530 29.321863 -16.832382
v 28.882530 29.321863 -32.897636
v 28.882530 48.869774 47.428627
v 28.882530 48.869774 31.363365
v 28.882530 48.869774 15.298112
v 28.882530 48.869774 -0.767140
v 28.882530 48.869774 -16.832378
v 28.882530 48.869774 -32.897636
v 28.882530 19.547909 47.428619
v 28.882530 19.547909 31.363373
v 28.882530 19.547909 15.298123
v 28.882530 19.547909 -0.767142
v 28.882530 19.547909 -16.832382
v 28.882530 19.547909 -32.897629
v 28.882530 39.095818 47.428627
v 28.882530 39.095818 31.363373
v 28.882530 39.095818 15.298120
v 28.882530 39.095818 -0.767138
v 28.882530 39.095818 -16.832378
v 28.882530 39.095818 -32.897636
v 28.882530 0.000000 -0.767138
v 28.882530 0.000000 47.428619
v 28.882530 0.000000 31.363373
v 28.882530 0.000000 15.298123
v 28.882530 0.000000 -29.213039
v 28.882530 13.252327 -29.213039
v 28.882530 13.252327 -13.017367
v 28.882530 0.000000 -13.017367
v -55.687321 10.580021 -32.897625
v 28.882530 9.773954 -13.017367
v -55.687321 10.580023 -48.962875
v -55.687321 10.580021 -16.832375
v 4.992828 0.000000 -29.213039
v 58.478878 0.056915 -34.340405
v 58.478878 20.524687 -34.340405
v 59.185986 0.056915 -34.633297
v 59.185986 20.524687 -34.633297
v 59.478878 0.056915 -35.340405
v 59.478878 20.524687 -35.340405
v 59.185986 0.056915 -36.047512
v 59.185986 20.524687 -36.047512
v 58.478878 0.056915 -36.340405
v 58.478878 20.524687 -36.340405
v 57.771770 0.056915 -36.047512
v 57.771770 20.524687 -36.047512
v 57.478878 0.056915 -35.340405
v 57.478878 20.524687 -35.340405
v 57.771770 0.056915 -34.633297
v 57.771770 20.524687 -34.633297
v 58.478878 0.056915 -5.449524
v 58.478878 20.524687 -5.449524
v 59.185986 0.056915 -5.742416
v 59.185986 20.524687 -5.742416
v 59.478878 0.056915 -6.449524
v 59.478878 20.524687 -6.449524
v 59.185986 0.056915 -7.156631
v 59.185986 20.524687 -7.156631
v 58.478878 0.056915 -7.449524
v 58.478878 20.524687 -7.449524
v 57.771770 0.056915 -7.156631
v 57.771770 20.524687 -7.156631
v 57.478878 0.056915 -6.449524
v 57.478878 20.524687 -6.449524
v 57.771770 0.056915 -5.742416
v 57.771770 20.524687 -5.742416
v 28.823635 18.524685 -40.543270
v 28.823635 20.524685 -40.543270
v 28.823635 18.524685 -1.133109
v 28.823635 20.524685 -1.133109
v 63.192089 18.524685 -40.543270
v 63.192089 20.524685 -40.543270
v 63.192089 18.524685 -1.133109
v 63.192089 20.524685 -1.133109
v 28.882530 43.700405 -17.602291
v 28.882530 43.700405 -24.074074
v 28.882530 63.115749 -24.074074
v 28.882530 63.115749 -17.602291
v 31.753582 43.700405 -24.074074
v 31.753582 43.700405 -17.602291
v 31.753582 63.115749 -17.602291
v 31.753582 63.115749 -24.074074
v 28.882530 50.172188 -30.545849
v 28.882530 56.643974 -30.545849
v 28.882530 56.643967 -11.130515
v 28.882530 50.172184 -11.130515
v 31.753582 56.643967 -11.130515
v 31.753582 50.172184 -11.130515
v 31.753582 56.643967 -30.545849
v 31.753582 50.172184 -30.545849
v 31.753582 56.643967 -17.602291
v 31.753582 50.172184 -17.602291
v 31.753582 56.643967 -24.074074
v 31.753582 50.172184 -24.074074
v 28.882530 56.643967 -24.074074
v 28.882530 50.172184 -24.074074
v 28.882530 56.643967 -17.602291
v 28.882530 50.172184 -17.602291
v 28.882530 0.000000 -30.853401
v 28.882530 13.232187 -29.213039
v 28.882530 0.000000 -11.564662
v 28.882530 13.998896 -11.564663
v 28.882530 13.998892 -30.853401
v 11.968564 9.773956 -48.962875
v -4.945407 9.773956 -48.962875
v -21.859379 9.773956 -48.962875
v -38.773350 9.773956 -48.962875
v -55.687321 9.773954 63.493866
v -38.773350 9.773956 63.493866
v -21.859379 9.773956 63.493866
v -4.945407 9.773956 63.493866
v 11.968564 9.773956 63.493866
v -55.687321 9.773956 -0.767129
v -55.687321 9.773956 15.298120
v -55.687321 9.773956 31.363373
v -55.687321 9.773956 47.428619
v 28.882530 9.773954 63.493866
v 28.882530 9.773956 31.363373
v 28.882530 9.773956 15.298123
v 28.882530 9.773956 -0.767140
v 28.882530 9.773956 47.428619
v -55.687321 9.773956 -48.962875
v -55.687321 9.773958 -16.832375
v -55.687321 9.773958 -32.897625
v 28.882530 9.773956 -11.564663
v 28.882530 9.773956 -13.017367
v 28.882530 9.773956 -48.962875
v 28.882530 9.773956 -29.213039
v 28.882530 9.773956 -30.853401
v 11.968564 0.000000 -11.564662
v 4.992828 13.252327 -13.017367
v 4.992828 0.000000 -13.017367
v 4.992828 0.000000 -29.213039
v 4.992828 13.252327 -29.213039
v 4.992828 13.252327 -13.017367
v 4.992828 9.773956 -13.017367
v 4.992828 9.773956 -29.213039
vn 1.0000 -0.0000 -0.0000
vn -0.0000 -0.0000 -1.0000
vn -1.0000 -0.0000 -0.0000
vn -0.0000 -0.0000 1.0000
vn -0.0000 1.0000 -0.0000
vn -0.0000 -1.0000 -0.0000
vn -0.3827 -0.0000 -0.9239
vn -0.9239 -0.0000 -0.3827
vn -0.9239 -0.0000 0.3827
vn -0.3827 -0.0000 0.9239
vn 0.3827 -0.0000 0.9239
vn 0.9239 -0.0000 0.3827
vn 0.9239 -0.0000 -0.3827
vn 0.3827 -0.0000 -0.9239
vt 0.583333 0.214286
vt 0.625000 0.214286
vt 0.625000 0.250000
vt 0.583333 0.250000
vt 0.583333 0.450000
vt 0.625000 0.450000
vt 0.625000 0.500000
vt 0.583333 0.500000
vt 0.583333 0.750000
vt 0.583333 0.714286
vt 0.625000 0.714286
vt 0.625000 0.750000
vt 0.583333 0.950000
vt 0.625000 0.950000
vt 0.625000 1.000000
vt 0.583333 1.000000
vt 0.325000 0.500000
vt 0.375000 0.500000
vt 0.375000 0.535714
vt 0.325000 0.535714
vt 0.825000 0.714286
vt 0.875000 0.714286
vt 0.875000 0.750000
vt 0.825000 0.750000
vt 0.675000 0.714286
vt 0.675000 0.750000
vt 0.725000 0.714286
vt 0.725000 0.750000
vt 0.775000 0.714286
vt 0.775000 0.750000
vt 0.125000 0.714286
vt 0.175000 0.714286
vt 0.175000 0.750000
vt 0.125000 0.750000
vt 0.225000 0.714286
vt 0.225000 0.750000
vt 0.275000 0.714286
vt 0.275000 0.750000
vt 0.325000 0.714286
vt 0.325000 0.750000
vt 0.625000 0.800000
vt 0.583333 0.800000
vt 0.625000 0.850000
vt 0.583333 0.850000
vt 0.625000 0.900000
vt 0.583333 0.900000
vt 0.625000 0.300000
vt 0.583333 0.300000
vt 0.625000 0.350000
vt 0.583333 0.350000
vt 0.625000 0.400000
vt 0.583333 0.400000
vt 0.275000 0.500000
vt 0.275000 0.535714
vt 0.325000 0.571429
vt 0.275000 0.571429
vt 0.325000 0.607143
vt 0.275000 0.607143
vt 0.325000 0.642857
vt 0.275000 0.642857
vt 0.225000 0.500000
vt 0.225000 0.535714
vt 0.225000 0.571429
vt 0.225000 0.607143
vt 0.225000 0.642857
vt 0.275000 0.678571
vt 0.225000 0.678571
vt 0.175000 0.500000
vt 0.175000 0.535714
vt 0.175000 0.571429
vt 0.175000 0.607143
vt 0.175000 0.642857
vt 0.175000 0.678571
vt 0.125000 0.500000
vt 0.125000 0.535714
vt 0.125000 0.571429
vt 0.125000 0.607143
vt 0.125000 0.642857
vt 0.125000 0.678571
vt 0.775000 0.500000
vt 0.825000 0.500000
vt 0.825000 0.535714
vt 0.775000 0.535714
vt 0.825000 0.571429
vt 0.675000 0.678571
vt 0.675000 0.642857
vt 0.725000 0.678571
vt 0.675000 0.607143
vt 0.725000 0.500000
vt 0.725000 0.535714
vt 0.775000 0.571429
vt 0.725000 0.571429
vt 0.775000 0.607143
vt 0.725000 0.607143
vt 0.725000 0.642857
vt 0.775000 0.642857
vt 0.775000 0.678571
vt 0.675000 0.500000
vt 0.675000 0.535714
vt 0.675000 0.571429
vt 0.625000 0.535714
vt 0.625000 0.571429
vt 0.625000 0.607143
vt 0.625000 0.642857
vt 0.625000 0.678571
vt 0.875000 0.500000
vt 0.875000 0.535714
vt 0.875000 0.571429
vt 0.875000 0.607143
vt 0.825000 0.607143
vt 0.875000 0.642857
vt 0.825000 0.642857
vt 0.875000 0.678571
vt 0.825000 0.678571
vt 0.583333 0.000000
vt 0.625000 0.000000
vt 0.625000 0.035714
vt 0.583333 0.035714
vt 0.625000 0.071429
vt 0.583333 0.071429
vt 0.625000 0.107143
vt 0.583333 0.107143
vt 0.625000 0.142857
vt 0.583333 0.142857
vt 0.625000 0.178571
vt 0.583333 0.178571
vt 0.416667 0.142857
vt 0.458333 0.142857
vt 0.458333 0.178571
vt 0.416667 0.178571
vt 0.500000 0.178571
vt 0.500000 0.214286
vt 0.458333 0.214286
vt 0.541667 0.178571
vt 0.541667 0.214286
vt 0.416667 0.107143
vt 0.458333 0.107143
vt 0.500000 0.142857
vt 0.541667 0.142857
vt 0.375000 0.071429
vt 0.416667 0.071429
vt 0.375000 0.107143
vt 0.500000 0.107143
vt 0.541667 0.107143
vt 0.458333 0.071429
vt 0.500000 0.071429
vt 0.541667 0.071429
vt 0.458333 0.035714
vt 0.500000 0.035714
vt 0.541667 0.035714
vt 0.416667 0.400000
vt 0.458333 0.400000
vt 0.458333 0.450000
vt 0.416667 0.450000
vt 0.458333 0.000000
vt 0.500000 0.000000
vt 0.541667 0.000000
vt 0.416667 0.350000
vt 0.458333 0.350000
vt 0.500000 0.400000
vt 0.500000 0.450000
vt 0.541667 0.400000
vt 0.541667 0.450000
vt 0.416667 0.300000
vt 0.458333 0.300000
vt 0.500000 0.350000
vt 0.541667 0.350000
vt 0.416667 0.250000
vt 0.458333 0.250000
vt 0.500000 0.300000
vt 0.541667 0.300000
vt 0.416667 0.900000
vt 0.458333 0.900000
vt 0.458333 0.950000
vt 0.416667 0.950000
vt 0.500000 0.250000
vt 0.541667 0.250000
vt 0.416667 0.850000
vt 0.458333 0.850000
vt 0.500000 0.900000
vt 0.500000 0.950000
vt 0.541667 0.900000
vt 0.541667 0.950000
vt 0.416667 0.800000
vt 0.458333 0.800000
vt 0.500000 0.850000
vt 0.541667 0.850000
vt 0.500000 0.800000
vt 0.541667 0.800000
vt 0.375000 0.950000
vt 0.416667 1.000000
vt 0.375000 1.000000
vt 0.458333 0.750000
vt 0.500000 0.750000
vt 0.541667 0.750000
vt 0.458333 0.500000
vt 0.416667 0.500000
vt 0.500000 1.000000
vt 0.458333 1.000000
vt 0.541667 1.000000
vt 0.458333 0.714286
vt 0.500000 0.714286
vt 0.541667 0.714286
vt 0.416667 0.214286
vt 0.500000 0.500000
vt 0.541667 0.500000
vt 0.583333 0.678571
vt 0.583333 0.642857
vt 0.583333 0.607143
vt 0.583333 0.571429
vt 0.583333 0.535714
vt 0.458333 0.678571
vt 0.500000 0.678571
vt 0.458333 0.642857
vt 0.500000 0.642857
vt 0.458333 0.607143
vt 0.500000 0.607143
vt 0.500000 0.535714
vt 0.458333 0.535714
vt 0.541667 0.678571
vt 0.541667 0.642857
vt 0.541667 0.607143
vt 0.541667 0.571429
vt 0.541667 0.535714
vt 0.500000 0.571429
vt 0.416667 0.607143
vt 0.416667 0.642857
vt 0.325000 0.666861
vt 0.375000 0.666861
vt 0.375000 0.670090
vt 0.375000 0.706095
vt 0.375000 0.709741
vt 0.375000 0.035714
vt 0.416667 0.035714
vt 0.375000 0.000000
vt 0.416667 0.000000
vt 0.375000 0.800000
vt 0.375000 0.850000
vt 0.416667 0.535714
vt 0.458333 0.571429
vt 0.416667 0.571429
vt 0.375000 0.571429
vt 0.375000 0.607143
vt 0.375000 0.642857
vt 0.375000 0.670090
vt 0.418754 0.670090
vt 0.434266 0.670090
vt 0.418744 0.670090
vt 0.434433 0.706095
vt 0.434343 0.706095
vt 0.418833 0.706095
vt 0.434433 0.670090
vt 0.417617 0.709741
vt 1.000000 0.500000
vt 1.000000 1.000000
vt 0.875000 1.000000
vt 0.750000 1.000000
vt 0.750000 0.500000
vt 0.250000 1.000000
vt 0.250000 0.500000
vt 0.125000 1.000000
vt 0.000000 1.000000
vt 0.000000 0.500000
vt 0.375000 0.250000
vt 0.375000 0.750000
vt 0.625000 0.583333
vt 0.875000 0.583333
vt 0.875000 0.666667
vt 0.625000 0.666667
vt 0.125000 0.583333
vt 0.375000 0.583333
vt 0.375000 0.666667
vt 0.125000 0.666667
vt 0.541667 0.583333
vt 0.541667 0.666667
vt 0.541667 0.083333
vt 0.625000 0.083333
vt 0.625000 0.166667
vt 0.541667 0.166667
vt 0.375000 0.083333
vt 0.458333 0.083333
vt 0.458333 0.166667
vt 0.375000 0.166667
vt 0.458333 0.000000
vt 0.458333 0.583333
vt 0.458333 0.666667
vt 0.458333 0.500000
vt 0.458333 0.750000
vt 0.458333 1.000000
vt 0.458333 0.250000
vt 0.375000 0.666861
vt 0.418475 0.666861
vt 0.418833 0.670090
vt 0.416667 0.750000
vt 0.436039 0.709741
vt 0.437267 0.666861
vt 0.375000 0.900000
vt 0.375000 0.642857
vt 0.375000 0.607143
vt 0.375000 0.178571
vt 0.375000 0.214286
vt 0.375000 0.450000
vt 0.375000 0.300000
vt 0.375000 0.350000
vt 0.375000 0.400000
vt 0.375000 0.142857
vt 0.420103 0.000000
vt 0.420103 0.035714
vt 0.420103 0.071429
vt 0.420103 1.000000
vt 0.000000 0.000000
s 0
usemtl Material.009
f 186/1/1 40/2/1 4/3/1 125/4/1
f 162/5/2 20/6/2 8/7/2 129/8/2
f 133/9/3 201/10/3 41/11/3 6/12/3
f 146/13/4 25/14/4 2/15/4 121/16/4
f 16/17/5 7/18/5 215/19/5 89/20/5
f 70/21/6 35/22/6 2/23/6 25/24/6
f 41/11/6 52/25/6 28/26/6 6/12/6
f 52/25/6 58/27/6 27/28/6 28/26/6
f 58/27/6 64/29/6 26/30/6 27/28/6
f 64/29/6 70/21/6 25/24/6 26/30/6
f 29/31/5 76/32/5 21/33/5 1/34/5
f 76/32/5 82/35/5 22/36/5 21/33/5
f 82/35/5 88/37/5 23/38/5 22/36/5
f 88/37/5 93/39/5 24/40/5 23/38/5
f 133/9/4 6/12/4 28/41/4 134/42/4
f 134/42/4 28/41/4 27/43/4 138/44/4
f 138/44/4 27/43/4 26/45/4 142/46/4
f 142/46/4 26/45/4 25/14/4 146/13/4
f 125/4/2 4/3/2 17/47/2 150/48/2
f 150/48/2 17/47/2 18/49/2 154/50/2
f 154/50/2 18/49/2 19/51/2 158/52/2
f 158/52/2 19/51/2 20/6/2 162/5/2
f 15/53/5 16/17/5 89/20/5 83/54/5
f 83/54/5 89/20/5 90/55/5 84/56/5
f 84/56/5 90/55/5 91/57/5 85/58/5
f 85/58/5 91/57/5 92/59/5 86/60/5
f 14/61/5 15/53/5 83/54/5 77/62/5
f 77/62/5 83/54/5 84/56/5 78/63/5
f 78/63/5 84/56/5 85/58/5 79/64/5
f 79/64/5 85/58/5 86/60/5 80/65/5
f 80/65/5 86/60/5 87/66/5 81/67/5
f 81/67/5 87/66/5 88/37/5 82/35/5
f 13/68/5 14/61/5 77/62/5 71/69/5
f 71/69/5 77/62/5 78/63/5 72/70/5
f 72/70/5 78/63/5 79/64/5 73/71/5
f 73/71/5 79/64/5 80/65/5 74/72/5
f 74/72/5 80/65/5 81/67/5 75/73/5
f 75/73/5 81/67/5 82/35/5 76/32/5
f 3/74/5 13/68/5 71/69/5 34/75/5
f 34/75/5 71/69/5 72/70/5 33/76/5
f 33/76/5 72/70/5 73/71/5 32/77/5
f 32/77/5 73/71/5 74/72/5 31/78/5
f 31/78/5 74/72/5 75/73/5 30/79/5
f 30/79/5 75/73/5 76/32/5 29/31/5
f 18/80/6 17/81/6 65/82/6 59/83/6
f 65/82/5 66/84/5 113/84/5 112/82/5
f 51/85/5 50/86/5 97/86/5 98/85/5
f 57/87/5 58/27/5 105/27/5 104/87/5
f 50/86/5 49/88/5 96/88/5 97/86/5
f 70/21/5 64/29/5 111/29/5 117/21/5
f 19/89/6 18/80/6 59/83/6 53/90/6
f 53/90/6 59/83/6 60/91/6 54/92/6
f 54/92/6 60/91/6 61/93/6 55/94/6
f 56/95/5 57/87/5 104/87/5 103/95/5
f 56/95/6 62/96/6 63/97/6 57/87/6
f 57/87/6 63/97/6 64/29/6 58/27/6
f 20/98/6 19/89/6 53/90/6 47/99/6
f 47/99/5 53/90/5 100/90/5 94/99/5
f 64/29/5 63/97/5 110/97/5 111/29/5
f 49/88/5 48/100/5 95/100/5 96/88/5
f 63/97/5 62/96/5 109/96/5 110/97/5
f 48/100/5 47/99/5 94/99/5 95/100/5
f 8/7/6 20/98/6 47/99/6 46/101/6
f 46/101/6 47/99/6 48/100/6 45/102/6
f 45/102/6 48/100/6 49/88/6 44/103/6
f 44/103/6 49/88/6 50/86/6 43/104/6
f 43/104/6 50/86/6 51/85/6 42/105/6
f 42/105/6 51/85/6 52/25/6 41/11/6
f 17/81/6 4/106/6 40/107/6 65/82/6
f 65/82/6 40/107/6 39/108/6 66/84/6
f 66/84/6 39/108/6 38/109/6 67/110/6
f 67/110/6 38/109/6 37/111/6 68/112/6
f 68/112/6 37/111/6 36/113/6 69/114/6
f 69/114/6 36/113/6 35/22/6 70/21/6
f 121/115/1 2/116/1 35/117/1 166/118/1
f 166/118/1 35/117/1 36/119/1 170/120/1
f 170/120/1 36/119/1 37/121/1 174/122/1
f 174/122/1 37/121/1 38/123/1 178/124/1
f 178/124/1 38/123/1 39/125/1 182/126/1
f 182/126/1 39/125/1 40/2/1 186/1/1
f 52/25/5 51/85/5 98/85/5 99/25/5
f 66/84/5 67/110/5 114/110/5 113/84/5
f 59/83/5 65/82/5 112/82/5 106/83/5
f 60/91/5 59/83/5 106/83/5 107/91/5
f 55/94/5 61/93/5 108/93/5 102/94/5
f 67/110/5 68/112/5 115/112/5 114/110/5
f 61/93/5 60/91/5 107/91/5 108/93/5
f 62/96/5 56/95/5 103/95/5 109/96/5
f 53/90/5 54/92/5 101/92/5 100/90/5
f 68/112/5 69/114/5 116/114/5 115/112/5
f 58/27/5 52/25/5 99/25/5 105/27/5
f 54/92/5 55/94/5 102/94/5 101/92/5
f 69/114/5 70/21/5 117/21/5 116/114/5
f 306/127/1 181/128/1 185/129/1 307/130/1
f 184/131/1 183/134/1 187/135/1 188/132/1
f 305/136/1 177/137/1 181/128/1 306/127/1
f 181/128/1 180/138/1 184/131/1 185/129/1
f 179/139/1 178/124/1 182/126/1 183/134/1
f 30/140/1 315/141/1 305/136/1 31/142/1
f 176/143/1 175/144/1 179/139/1 180/138/1
f 173/145/1 172/146/1 176/143/1 177/137/1
f 172/146/1 171/147/1 175/144/1 176/143/1
f 171/147/1 170/120/1 174/122/1 175/144/1
f 168/149/1 167/150/1 171/147/1 172/146/1
f 303/151/2 161/152/2 165/153/2 304/154/2
f 118/155/1 119/156/1 168/149/1 169/148/1
f 119/156/1 120/157/1 167/150/1 168/149/1
f 120/157/1 121/115/1 166/118/1 167/150/1
f 302/158/2 157/159/2 161/152/2 303/151/2
f 160/160/2 159/162/2 163/163/2 164/161/2
f 301/164/2 153/165/2 157/159/2 302/158/2
f 157/159/2 156/166/2 160/160/2 161/152/2
f 156/166/2 155/167/2 159/162/2 160/160/2
f 155/167/2 154/50/2 158/52/2 159/162/2
f 300/168/2 122/169/2 153/165/2 301/164/2
f 152/170/2 151/171/2 155/167/2 156/166/2
f 298/172/4 145/173/4 149/174/4 299/175/4
f 122/169/2 123/176/2 152/170/2 153/165/2
f 123/176/2 124/177/2 151/171/2 152/170/2
f 124/177/2 125/4/2 150/48/2 151/171/2
f 297/178/4 141/179/4 145/173/4 298/172/4
f 144/180/4 143/182/4 147/183/4 148/181/4
f 296/184/4 137/185/4 141/179/4 297/178/4
f 141/179/4 140/186/4 144/180/4 145/173/4
f 140/186/4 139/187/4 143/182/4 144/180/4
f 139/187/4 138/44/4 142/46/4 143/182/4
f 136/188/4 135/189/4 139/187/4 140/186/4
f 21/190/4 299/175/4 314/191/4 1/192/4
f 130/193/4 131/194/4 136/188/4 137/185/4
f 131/194/4 132/195/4 135/189/4 136/188/4
f 132/195/4 133/9/4 134/42/4 135/189/4
f 304/154/2 165/153/2 126/196/2 309/197/2
f 149/174/4 148/181/4 119/198/4 118/199/4
f 148/181/4 147/183/4 120/200/4 119/198/4
f 147/183/4 146/13/4 121/16/4 120/200/4
f 130/193/3 207/201/3 195/202/3 131/194/3
f 131/194/3 195/202/3 213/203/3 132/195/3
f 132/195/3 213/203/3 201/10/3 133/9/3
f 308/204/1 189/133/1 122/169/1 300/168/1
f 165/153/2 164/161/2 127/205/2 126/196/2
f 164/161/2 163/163/2 128/206/2 127/205/2
f 163/163/2 162/5/2 129/8/2 128/206/2
f 189/133/1 188/132/1 123/176/1 122/169/1
f 188/132/1 187/135/1 124/177/1 123/176/1
f 187/135/1 186/1/1 125/4/1 124/177/1
f 41/11/3 201/10/3 200/207/3 42/105/3
f 42/105/3 200/207/3 199/208/3 43/104/3
f 43/104/3 199/208/3 198/209/3 44/103/3
f 44/103/3 198/209/3 197/210/3 45/102/3
f 45/102/3 197/210/3 196/211/3 46/101/3
f 46/101/3 196/211/3 129/8/3 8/7/3
f 195/202/3 207/201/3 206/212/3 194/213/3
f 194/213/3 206/212/3 205/214/3 193/215/3
f 193/215/3 205/214/3 204/216/3 192/217/3
f 190/218/3 202/219/3 126/196/3 127/205/3
f 201/10/3 213/203/3 212/220/3 200/207/3
f 200/207/3 212/220/3 211/221/3 199/208/3
f 198/209/3 210/222/3 209/223/3 197/210/3
f 196/211/3 208/224/3 128/206/3 129/8/3
f 213/203/3 195/202/3 194/213/3 212/220/3
f 212/220/3 194/213/3 193/215/3 211/221/3
f 211/221/3 193/215/3 192/217/3 210/222/3
f 210/222/3 192/217/3 191/225/3 209/223/3
f 209/223/3 191/225/3 190/218/3 208/224/3
f 208/224/3 190/218/3 127/205/3 128/206/3
f 307/130/1 185/129/1 189/133/1 308/204/1
f 311/226/3 204/216/3 205/214/3 312/227/3
f 322/228/5 293/229/5 12/230/5 9/231/5 291/232/5 93/39/5
f 183/134/1 184/131/1 180/138/1 179/139/1
f 29/233/1 316/234/1 315/141/1 30/140/1
f 1/235/1 314/236/1 316/234/1 29/233/1
f 24/237/4 296/184/4 297/178/4 23/238/4
f 313/239/3 202/219/3 203/240/3 310/241/3
f 310/241/3 203/240/3 204/216/3 311/226/3
f 89/20/5 215/19/5 216/242/5 90/55/5
f 90/55/5 216/242/5 217/243/5 91/57/5
f 91/57/5 217/243/5 214/244/5 92/59/5
f 12/245/5 318/246/5 11/247/5 220/247/5 223/248/5 221/245/5
f 10/249/5 292/250/5 320/251/5 9/231/5 218/231/5 219/249/5
f 220/252/5 219/249/5 326/249/5 327/252/5
f 313/239/3 309/197/3 126/196/3 202/219/3
f 259/235/1 260/116/1 262/3/1 261/264/1
f 261/264/2 262/3/2 266/7/2 265/18/2
f 265/18/3 266/7/3 264/12/3 263/265/3
f 263/265/4 264/12/4 260/15/4 259/192/4
f 261/74/5 265/18/5 263/265/5 259/34/5
f 266/7/6 262/106/6 260/23/6 264/12/6
f 93/39/5 291/232/5 5/265/5 24/40/5
f 319/294/3 321/253/3 295/295/3 130/193/3
f 23/238/4 297/178/4 298/172/4 22/297/4
f 22/297/4 298/172/4 299/175/4 21/190/4
f 312/227/3 317/292/3 293/291/3 214/298/3
f 215/19/3 7/18/3 309/197/3 313/239/3
f 216/242/3 310/241/3 311/226/3 217/299/3
f 215/19/3 313/239/3 310/241/3 216/242/3
f 217/299/3 311/226/3 312/227/3 214/298/3
f 33/300/1 307/130/1 308/204/1 34/301/1
f 34/301/1 308/204/1 300/168/1 3/264/1
f 16/302/2 304/154/2 309/197/2 7/18/2
f 3/264/2 300/168/2 301/164/2 13/303/2
f 13/303/2 301/164/2 302/158/2 14/304/2
f 14/304/2 302/158/2 303/151/2 15/305/2
f 15/305/2 303/151/2 304/154/2 16/302/2
f 31/142/1 305/136/1 306/127/1 32/306/1
f 32/306/1 306/127/1 307/130/1 33/300/1
f 205/214/3 294/296/3 317/292/3 312/227/3
f 316/234/1 314/236/1 224/307/1 118/155/1 169/148/1 222/308/1
f 305/136/1 315/141/1 225/309/1 173/145/1 177/137/1
f 314/191/4 299/175/4 149/174/4 118/199/4 224/310/4
f 315/141/1 316/234/1 222/308/1 169/148/1 173/145/1 225/309/1
f 320/251/2 9/231/2 226/231/2 329/251/2
f 321/253/3 319/294/3 5/265/3 291/232/3
f 11/252/5 10/249/5 219/249/5 220/252/5
f 130/193/4 137/185/4 296/184/4 319/294/4
f 319/294/4 296/184/4 24/237/4 5/265/4
f 219/249/2 218/231/2 325/231/2 326/249/2
f 130/193/3 295/295/3 294/296/3 205/214/3 206/212/3 207/201/3
f 87/66/5 322/228/5 93/39/5 88/37/5
f 322/228/5 87/66/5 86/60/5 92/59/5
f 322/228/5 92/59/5 214/244/5 293/229/5
f 318/246/4 11/247/4 323/247/4 328/246/4
f 12/245/4 318/246/4 328/246/4 324/245/4
f 326/249/3 325/231/3 324/311/3 327/252/3
usemtl Material.004
f 106/83/6 112/82/6 113/84/6 107/91/6
f 107/91/6 113/84/6 114/110/6 108/93/6
f 108/93/6 114/110/6 115/112/6 109/96/6
f 109/96/6 115/112/6 116/114/6 110/97/6
f 110/97/6 116/114/6 117/21/6 111/29/6
f 102/94/6 108/93/6 109/96/6 103/95/6
f 94/99/6 100/90/6 101/92/6 95/100/6
f 95/100/6 101/92/6 102/94/6 96/88/6
f 96/88/6 102/94/6 103/95/6 97/86/6
f 97/86/6 103/95/6 104/87/6 98/85/6
f 98/85/6 104/87/6 105/27/6 99/25/6
usemtl Material.012
f 185/129/1 184/131/1 188/132/1 189/133/1
f 183/134/1 182/126/1 186/1/1 187/135/1
f 177/137/1 176/143/1 180/138/1 181/128/1
f 175/144/1 174/122/1 178/124/1 179/139/1
f 169/148/1 168/149/1 172/146/1 173/145/1
f 167/150/1 166/118/1 170/120/1 171/147/1
f 161/152/2 160/160/2 164/161/2 165/153/2
f 159/162/2 158/52/2 162/5/2 163/163/2
f 153/165/2 152/170/2 156/166/2 157/159/2
f 151/171/2 150/48/2 154/50/2 155/167/2
f 145/173/4 144/180/4 148/181/4 149/174/4
f 143/182/4 142/46/4 146/13/4 147/183/4
f 137/185/4 136/188/4 140/186/4 141/179/4
f 135/189/4 134/42/4 138/44/4 139/187/4
f 199/208/3 211/221/3 210/222/3 198/209/3
f 197/210/3 209/223/3 208/224/3 196/211/3
f 192/217/3 204/216/3 203/240/3 191/225/3
f 191/225/3 203/240/3 202/219/3 190/218/3
usemtl Material.001
f 227/254/7 228/255/7 230/256/7 229/106/7
f 229/106/8 230/256/8 232/257/8 231/258/8
f 231/258/9 232/257/9 234/15/9 233/7/9
f 233/7/10 234/15/10 236/198/10 235/205/10
f 235/205/11 236/198/11 238/192/11 237/18/11
f 237/18/12 238/192/12 240/259/12 239/260/12
f 245/106/8 246/256/8 248/257/8 247/258/8
f 239/260/13 240/259/13 242/261/13 241/74/13
f 241/74/14 242/261/14 228/262/14 227/263/14
f 243/254/7 244/255/7 246/256/7 245/106/7
f 247/258/9 248/257/9 250/15/9 249/7/9
f 249/7/10 250/15/10 252/198/10 251/205/10
f 251/205/11 252/198/11 254/192/11 253/18/11
f 253/18/12 254/192/12 256/259/12 255/260/12
f 255/260/13 256/259/13 258/261/13 257/74/13
f 257/74/14 258/261/14 244/262/14 243/263/14
usemtl Material.007
f 273/266/6 270/267/6 269/268/6 274/269/6
f 267/270/5 272/271/5 271/272/5 268/273/5
f 283/274/3 273/266/3 274/269/3 285/275/3
f 287/276/1 269/277/1 270/278/1 289/279/1
f 268/280/1 288/281/1 290/282/1 267/283/1
f 288/281/1 287/276/1 289/279/1 290/282/1
f 275/284/1 276/157/1 287/276/1 288/281/1
f 272/271/3 284/285/3 286/286/3 271/272/3
f 284/285/3 283/274/3 285/275/3 286/286/3
f 280/287/3 279/206/3 283/274/3 284/285/3
f 282/288/4 281/195/4 276/200/4 275/289/4
f 286/286/3 285/275/3 281/195/3 282/288/3
f 278/290/2 277/177/2 279/206/2 280/287/2
f 290/282/1 289/279/1 277/177/1 278/290/1
f 285/275/4 274/269/4 269/268/4 287/276/4
f 287/276/6 276/157/6 281/195/6 285/275/6
f 283/274/2 289/279/2 270/267/2 273/266/2
f 283/274/6 279/206/6 277/177/6 289/279/6
f 288/281/5 286/286/5 282/288/5 275/284/5
f 288/281/4 268/280/4 271/272/4 286/286/4
f 284/285/5 290/282/5 278/290/5 280/287/5
f 290/282/2 284/285/2 272/271/2 267/283/2
usemtl Material.002
f 9/231/3 320/251/3 321/253/3 291/232/3
f 293/291/3 317/292/3 318/293/3 12/245/3
f 294/296/3 295/295/3 292/250/3 10/249/3 11/252/3
f 318/293/3 317/292/3 294/296/3 11/252/3
f 321/253/3 320/251/3 292/250/3 295/295/3
