# Blender 5.0.1
# www.blender.org
mtllib pine_2.mtl
o green
v 0.027678 1.584495 -4.023316
v -0.052325 4.816627 -1.448849
v 2.858755 1.633511 -2.859192
v 1.009329 4.835008 -1.012302
v 4.038767 1.600503 -0.034468
v 1.451834 4.822630 0.046969
v 2.876480 1.504807 2.796170
v 1.015976 4.786743 1.108458
v 0.052746 1.402479 3.974574
v -0.042924 4.748371 1.550360
v -2.778331 1.353463 2.810450
v -1.104578 4.729990 1.113813
v -3.958344 1.386471 -0.014274
v -1.547083 4.742368 0.054542
v -2.796057 1.482168 -2.844912
v -1.111225 4.778255 -1.006948
v -1.115143 3.715014 -3.293092
v -0.309601 5.921072 -1.234909
v 1.511206 3.530788 -3.063056
v 0.675280 5.851988 -1.148646
v 3.206054 3.411902 -1.038723
v 1.310848 5.807405 -0.389521
v 2.976582 3.427999 1.594079
v 1.224796 5.813441 0.597780
v 0.957212 3.569648 3.293092
v 0.467532 5.866560 1.234909
v -1.669137 3.753874 3.063056
v -0.517349 5.935645 1.148646
v -3.363986 3.872760 1.038723
v -1.152917 5.980227 0.389521
v -3.134513 3.856663 -1.594079
v -1.066865 5.974191 -0.597780
v -1.874767 5.438499 -2.143049
v -0.611198 7.618986 -0.757620
v 0.146757 5.339800 -2.807783
v 0.146873 7.581973 -1.006896
v 2.043186 5.200805 -1.847363
v 0.858034 7.529850 -0.646738
v 2.703618 5.102936 0.175610
v 1.105696 7.493149 0.111877
v 1.741182 5.103523 2.076107
v 0.744783 7.493369 0.824563
v -0.280341 5.202223 2.740840
v -0.013289 7.530382 1.073838
v -2.176771 5.341218 1.780421
v -0.724449 7.582505 0.713681
v -2.837203 5.439087 -0.242553
v -0.972112 7.619206 -0.044934
v -2.072729 6.795694 -0.695229
v -0.799242 8.380876 -0.259215
v -0.970274 6.820068 -1.969152
v -0.385822 8.390016 -0.736937
v 0.709914 6.854675 -2.090211
v 0.244249 8.402994 -0.782333
v 1.983603 6.879243 -0.987489
v 0.721882 8.412207 -0.368813
v 2.104684 6.879380 0.693053
v 0.767287 8.412258 0.261391
v 1.002229 6.855005 1.966977
v 0.353867 8.403117 0.739112
v -0.677959 6.820398 2.088036
v -0.276204 8.390140 0.784509
v -1.951648 6.795831 0.985313
v -0.753837 8.380927 0.370988
v -0.249944 8.380668 -1.485023
v 0.863827 8.343756 -1.200234
v 1.450183 8.326298 -0.210872
v 1.165643 8.338521 0.903508
v 0.176887 8.373264 1.490117
v -0.936884 8.410176 1.205328
v -1.523239 8.427634 0.215965
v -1.238700 8.415411 -0.898414
v 0.036528 10.542064 -0.002547
vn 0.2954 0.5997 -0.7437
vn 0.7396 0.6015 -0.3020
vn 0.7416 0.5872 0.3244
vn 0.3002 0.5653 0.7683
vn -0.3261 0.5485 0.7699
vn -0.7703 0.5467 0.3282
vn -0.7723 0.5610 -0.2981
vn -0.3308 0.5829 -0.7421
vn 0.1114 0.6559 -0.7466
vn 0.6190 0.6203 -0.4818
vn 0.7911 0.6082 0.0652
vn 0.5269 0.6267 0.5741
vn -0.0187 0.6650 0.7466
vn -0.5263 0.7006 0.4818
vn -0.6984 0.7127 -0.0652
vn -0.4343 0.6942 -0.5741
vn -0.2203 0.6108 -0.7605
vn 0.4033 0.5730 -0.7134
vn 0.8102 0.5353 -0.2386
vn 0.7622 0.5198 0.3858
vn 0.2873 0.5356 0.7941
vn -0.3363 0.5735 0.7470
vn -0.7432 0.6112 0.2722
vn -0.6952 0.6266 -0.3522
vn -0.5989 0.6204 -0.5064
vn -0.0686 0.6316 -0.7722
vn 0.4942 0.6429 -0.5852
vn 0.7600 0.6476 -0.0548
vn 0.5730 0.6430 0.5082
vn 0.0428 0.6318 0.7740
vn -0.5201 0.6205 0.5869
vn -0.7859 0.6158 0.0566
vn 0.2265 0.5303 -0.8170
vn 0.7419 0.5139 -0.4307
vn 0.8335 0.5123 0.2072
vn 0.4474 0.5265 0.7229
vn -0.1901 0.5482 0.8144
vn -0.7056 0.5647 0.4281
vn -0.7971 0.5663 -0.2097
vn -0.4110 0.5521 -0.7255
vt 1.000000 0.000000
vt 1.000000 1.000000
vt 0.875000 1.000000
vt 0.875000 0.000000
vt 0.750000 1.000000
vt 0.750000 0.000000
vt 0.625000 1.000000
vt 0.625000 0.000000
vt 0.500000 1.000000
vt 0.500000 0.000000
vt 0.375000 1.000000
vt 0.375000 0.000000
vt 0.250000 1.000000
vt 0.250000 0.000000
vt 0.125000 1.000000
vt 0.125000 0.000000
vt 0.000000 1.000000
vt 0.000000 0.000000
vt 0.500000 0.500000
vt 0.853553 0.853553
vt 1.000000 0.500000
vt 0.853553 0.146447
vt 0.146447 0.146447
vt 0.000000 0.500000
vt 0.146447 0.853553
s 0
usemtl Material.002
f 1/1/1 2/2/1 4/3/1 3/4/1
f 3/4/2 4/3/2 6/5/2 5/6/2
f 5/6/3 6/5/3 8/7/3 7/8/3
f 7/8/4 8/7/4 10/9/4 9/10/4
f 9/10/5 10/9/5 12/11/5 11/12/5
f 11/12/6 12/11/6 14/13/6 13/14/6
f 13/14/7 14/13/7 16/15/7 15/16/7
f 15/16/8 16/15/8 2/17/8 1/18/8
f 17/1/9 18/2/9 20/3/9 19/4/9
f 19/4/10 20/3/10 22/5/10 21/6/10
f 21/6/11 22/5/11 24/7/11 23/8/11
f 23/8/12 24/7/12 26/9/12 25/10/12
f 25/10/13 26/9/13 28/11/13 27/12/13
f 27/12/14 28/11/14 30/13/14 29/14/14
f 29/14/15 30/13/15 32/15/15 31/16/15
f 31/16/16 32/15/16 18/17/16 17/18/16
f 33/1/17 34/2/17 36/3/17 35/4/17
f 35/4/18 36/3/18 38/5/18 37/6/18
f 37/6/19 38/5/19 40/7/19 39/8/19
f 39/8/20 40/7/20 42/9/20 41/10/20
f 41/10/21 42/9/21 44/11/21 43/12/21
f 43/12/22 44/11/22 46/13/22 45/14/22
f 45/14/23 46/13/23 48/15/23 47/16/23
f 47/16/24 48/15/24 34/17/24 33/18/24
f 49/1/25 50/2/25 52/3/25 51/4/25
f 51/4/26 52/3/26 54/5/26 53/6/26
f 53/6/27 54/5/27 56/7/27 55/8/27
f 55/8/28 56/7/28 58/9/28 57/10/28
f 57/10/29 58/9/29 60/11/29 59/12/29
f 59/12/30 60/11/30 62/13/30 61/14/30
f 61/14/31 62/13/31 64/15/31 63/16/31
f 63/16/32 64/15/32 50/17/32 49/18/32
f 65/9/33 73/19/33 66/20/33
f 66/20/34 73/19/34 67/21/34
f 67/21/35 73/19/35 68/22/35
f 68/22/36 73/19/36 69/10/36
f 69/10/37 73/19/37 70/23/37
f 70/23/38 73/19/38 71/24/38
f 71/24/39 73/19/39 72/25/39
f 72/25/40 73/19/40 65/9/40
o stump
v 0.000000 -0.011201 -1.000000
v 0.000000 3.279841 -1.000000
v 0.707107 -0.011201 -0.707107
v 0.707107 3.279841 -0.707107
v 1.000000 -0.011201 -0.000000
v 1.000000 3.279841 -0.000000
v 0.707107 -0.011201 0.707107
v 0.707107 3.279841 0.707107
v 0.000000 -0.011201 1.000000
v 0.000000 3.279841 1.000000
v -0.707107 -0.011201 0.707107
v -0.707107 3.279841 0.707107
v -1.000000 -0.011201 -0.000000
v -1.000000 3.279841 -0.000000
v -0.707107 -0.011201 -0.707107
v -0.707107 3.279841 -0.707107
vn 0.3827 -0.0000 -0.9239
vn 0.9239 -0.0000 -0.3827
vn 0.9239 -0.0000 0.3827
vn 0.3827 -0.0000 0.9239
vn -0.3827 -0.0000 0.9239
vn -0.9239 -0.0000 0.3827
vn -0.0000 1.0000 -0.0000
vn -0.9239 -0.0000 -0.3827
vn -0.3827 -0.0000 -0.9239
vn -0.0000 -1.0000 -0.0000
vt 1.000000 0.500000
vt 1.000000 1.000000
vt 0.875000 1.000000
vt 0.875000 0.500000
vt 0.750000 1.000000
vt 0.750000 0.500000
vt 0.625000 1.000000
vt 0.625000 0.500000
vt 0.500000 1.000000
vt 0.500000 0.500000
vt 0.375000 1.000000
vt 0.375000 0.500000
vt 0.250000 1.000000
vt 0.250000 0.500000
vt 0.419706 0.419706
vt 0.250000 0.490000
vt 0.080294 0.419706
vt 0.010000 0.250000
vt 0.080294 0.080294
vt 0.250000 0.010000
vt 0.419706 0.080294
vt 0.490000 0.250000
vt 0.125000 1.000000
vt 0.125000 0.500000
vt 0.000000 1.000000
vt 0.000000 0.500000
vt 0.750000 0.490000
vt 0.919706 0.419706
vt 0.990000 0.250000
vt 0.919706 0.080294
vt 0.750000 0.010000
vt 0.580294 0.080294
vt 0.510000 0.250000
vt 0.580294 0.419706
s 0
usemtl Material.001
f 74/26/41 75/27/41 77/28/41 76/29/41
f 76/29/42 77/28/42 79/30/42 78/31/42
f 78/31/43 79/30/43 81/32/43 80/33/43
f 80/33/44 81/32/44 83/34/44 82/35/44
f 82/35/45 83/34/45 85/36/45 84/37/45
f 84/37/46 85/36/46 87/38/46 86/39/46
f 77/40/47 75/41/47 89/42/47 87/43/47 85/44/47 83/45/47 81/46/47 79/47/47
f 86/39/48 87/38/48 89/48/48 88/49/48
f 88/49/49 89/48/49 75/50/49 74/51/49
f 74/52/50 76/53/50 78/54/50 80/55/50 82/56/50 84/57/50 86/58/50 88/59/50
