# Blender 5.0.1
# www.blender.org
mtllib road_straight.mtl
o road_straight
v -2.000000 0.000000 2.000000
v 2.000000 0.000000 2.000000
v -2.000000 0.000000 -2.000000
v 2.000000 0.000000 -2.000000
v -2.000000 0.000000 -1.500000
v -2.000000 0.000000 -1.000000
v -2.000000 0.000000 -0.500000
v -2.000000 0.000000 0.000000
v -2.000000 0.000000 0.500000
v -2.000000 0.000000 1.000000
v -2.000000 0.000000 1.500000
v 2.000000 0.000000 1.500000
v 2.000000 0.000000 1.000000
v 2.000000 0.000000 0.500000
v 2.000000 0.000000 0.000000
v 2.000000 0.000000 -0.500000
v 2.000000 0.000000 -1.000000
v 2.000000 0.000000 -1.500000
v -2.000000 0.075000 -1.500000
v -2.000000 0.075000 -1.000000
v -2.000000 0.075000 1.000000
v -2.000000 0.075000 1.500000
v 2.000000 0.075000 1.500000
v 2.000000 0.075000 1.000000
v 2.000000 0.075000 -1.000000
v 2.000000 0.075000 -1.500000
v -2.000000 0.000000 2.000000
v 2.000000 0.000000 2.000000
v -2.000000 0.000000 -2.000000
v 2.000000 0.000000 -2.000000
v -2.000000 0.000000 -1.500000
v -2.000000 0.000000 -1.000000
v -2.000000 0.000000 -0.500000
v -2.000000 0.000000 0.000000
v -2.000000 0.000000 0.500000
v -2.000000 0.000000 1.000000
v -2.000000 0.000000 1.500000
v 2.000000 0.000000 1.500000
v 2.000000 0.000000 1.000000
v 2.000000 0.000000 0.500000
v 2.000000 0.000000 0.000000
v 2.000000 0.000000 -0.500000
v 2.000000 0.000000 -1.000000
v 2.000000 0.000000 -1.500000
v -2.000000 0.075000 -1.500000
v -2.000000 0.075000 -1.000000
v -2.000000 0.075000 1.000000
v -2.000000 0.075000 1.500000
v 2.000000 0.075000 1.500000
v 2.000000 0.075000 1.000000
v 2.000000 0.075000 -1.000000
v 2.000000 0.075000 -1.500000
v -2.000000 0.000000 2.000000
v 2.000000 0.000000 2.000000
v -2.000000 0.000000 -2.000000
v 2.000000 0.000000 -2.000000
v -2.000000 0.000000 -1.500000
v -2.000000 0.000000 -1.000000
v -2.000000 0.000000 -0.500000
v -2.000000 0.000000 0.000000
v -2.000000 0.000000 0.500000
v -2.000000 0.000000 1.000000
v -2.000000 0.000000 1.500000
v 2.000000 0.000000 1.500000
v 2.000000 0.000000 1.000000
v 2.000000 0.000000 0.500000
v 2.000000 0.000000 0.000000
v 2.000000 0.000000 -0.500000
v 2.000000 0.000000 -1.000000
v 2.000000 0.000000 -1.500000
v -2.000000 0.075000 -1.500000
v -2.000000 0.075000 -1.000000
v -2.000000 0.075000 1.000000
v -2.000000 0.075000 1.500000
v 2.000000 0.075000 1.500000
v 2.000000 0.075000 1.000000
v 2.000000 0.075000 -1.000000
v 2.000000 0.075000 -1.500000
vn -0.0000 1.0000 -0.0000
vn -0.0000 -0.0000 1.0000
vn -1.0000 -0.0000 -0.0000
vn 1.0000 -0.0000 -0.0000
vn -0.0000 -0.0000 -1.0000
vt 0.000000 0.875000
vt 1.000000 0.875000
vt 1.000000 1.000000
vt 0.000000 1.000000
vt 0.000000 0.000000
vt 1.000000 0.000000
vt 1.000000 0.125000
vt 0.000000 0.125000
vt 0.000000 0.750000
vt 1.000000 0.750000
vt 0.000000 0.250000
vt 1.000000 0.250000
vt 1.000000 0.375000
vt 0.000000 0.375000
vt 1.000000 0.500000
vt 0.000000 0.500000
vt 1.000000 0.625000
vt 0.000000 0.625000
s 0
usemtl straight_road
f 5/1/1 18/2/1 4/3/1 3/4/1
f 1/5/1 2/6/1 12/7/1 11/8/1
f 6/9/2 17/10/2 25/10/2 20/9/2
f 10/11/1 13/12/1 14/13/1 9/14/1
f 9/14/1 14/13/1 15/15/1 8/16/1
f 8/16/1 15/15/1 16/17/1 7/18/1
f 7/18/1 16/17/1 17/10/1 6/9/1
f 5/5/3 6/5/3 20/5/3 19/5/3
f 22/8/1 23/7/1 24/12/1 21/11/1
f 20/9/1 25/10/1 26/2/1 19/1/1
f 12/5/4 13/5/4 24/5/4 23/5/4
f 10/5/3 11/5/3 22/5/3 21/5/3
f 13/12/5 10/11/5 21/11/5 24/12/5
f 17/5/4 18/5/4 26/5/4 25/5/4
f 18/2/5 5/1/5 19/1/5 26/2/5
f 11/8/2 12/7/2 23/7/2 22/8/2
f 31/1/1 44/2/1 30/3/1 29/4/1
f 27/5/1 28/6/1 38/7/1 37/8/1
f 32/9/2 43/10/2 51/10/2 46/9/2
f 36/11/1 39/12/1 40/13/1 35/14/1
f 35/14/1 40/13/1 41/15/1 34/16/1
f 34/16/1 41/15/1 42/17/1 33/18/1
f 33/18/1 42/17/1 43/10/1 32/9/1
f 31/5/3 32/5/3 46/5/3 45/5/3
f 48/8/1 49/7/1 50/12/1 47/11/1
f 46/9/1 51/10/1 52/2/1 45/1/1
f 38/5/4 39/5/4 50/5/4 49/5/4
f 36/5/3 37/5/3 48/5/3 47/5/3
f 39/12/5 36/11/5 47/11/5 50/12/5
f 43/5/4 44/5/4 52/5/4 51/5/4
f 44/2/5 31/1/5 45/1/5 52/2/5
f 37/8/2 38/7/2 49/7/2 48/8/2
f 57/1/1 70/2/1 56/3/1 55/4/1
f 53/5/1 54/6/1 64/7/1 63/8/1
f 58/9/2 69/10/2 77/10/2 72/9/2
f 62/11/1 65/12/1 66/13/1 61/14/1
f 61/14/1 66/13/1 67/15/1 60/16/1
f 60/16/1 67/15/1 68/17/1 59/18/1
f 59/18/1 68/17/1 69/10/1 58/9/1
f 57/5/3 58/5/3 72/5/3 71/5/3
f 74/8/1 75/7/1 76/12/1 73/11/1
f 72/9/1 77/10/1 78/2/1 71/1/1
f 64/5/4 65/5/4 76/5/4 75/5/4
f 62/5/3 63/5/3 74/5/3 73/5/3
f 65/12/5 62/11/5 73/11/5 76/12/5
f 69/5/4 70/5/4 78/5/4 77/5/4
f 70/2/5 57/1/5 71/1/5 78/2/5
f 63/8/2 64/7/2 75/7/2 74/8/2
