# Blender 5.0.1
# www.blender.org
mtllib road_corner.mtl
o road_corner
v -2.000000 0.000000 2.000000
v 2.000000 0.000000 2.000000
v -2.000000 0.000000 -2.000000
v 2.000000 0.000000 -2.000000
v -1.500000 0.000000 2.000000
v -1.000000 0.000000 2.000000
v -0.500000 0.000000 2.000000
v 0.000000 0.000000 2.000000
v 0.500000 0.000000 2.000000
v 1.000000 0.000000 2.000000
v 1.500000 0.000000 2.000000
v 1.500000 0.000000 -2.000000
v 1.000000 0.000000 -2.000000
v 0.500000 0.000000 -2.000000
v 0.000000 0.000000 -2.000000
v -0.500000 0.000000 -2.000000
v -1.000000 0.000000 -2.000000
v -1.500000 0.000000 -2.000000
v -2.000000 0.000000 -1.500000
v -2.000000 0.000000 -1.000000
v -2.000000 0.000000 -0.500000
v -2.000000 0.000000 0.000000
v -2.000000 0.000000 0.500000
v -2.000000 0.000000 1.000000
v -2.000000 0.000000 1.500000
v 2.000000 0.000000 1.500000
v 2.000000 0.000000 1.000000
v 2.000000 0.000000 0.500000
v 2.000000 0.000000 0.000000
v 2.000000 0.000000 -0.500000
v 2.000000 0.000000 -1.000000
v 2.000000 0.000000 -1.500000
v -1.500000 0.000000 1.500000
v -1.500000 0.000000 1.000000
v -1.500000 0.000000 0.500000
v -1.500000 0.000000 0.000000
v -1.500000 0.000000 -0.500000
v -1.500000 0.000000 -1.000000
v -1.500000 0.000000 -1.500000
v -1.000000 0.000000 1.500000
v -1.000000 0.000000 1.000000
v -1.000000 0.000000 0.500000
v -1.000000 0.000000 0.000000
v -1.000000 0.000000 -0.500000
v -1.000000 0.000000 -1.000000
v -1.000000 0.000000 -1.500000
v -0.500000 0.000000 1.500000
v -0.500000 0.000000 1.000000
v -0.500000 0.000000 0.500000
v -0.500000 0.000000 0.000000
v -0.500000 0.000000 -0.500000
v -0.500000 0.000000 -1.000000
v -0.500000 0.000000 -1.500000
v 0.000000 0.000000 1.500000
v 0.000000 0.000000 1.000000
v 0.000000 0.000000 0.500000
v 0.000000 0.000000 0.000000
v 0.000000 0.000000 -0.500000
v 0.000000 0.000000 -1.000000
v 0.000000 0.000000 -1.500000
v 0.500000 0.000000 1.500000
v 0.500000 0.000000 1.000000
v 0.500000 0.000000 0.500000
v 0.500000 0.000000 0.000000
v 0.500000 0.000000 -0.500000
v 0.500000 0.000000 -1.000000
v 0.500000 0.000000 -1.500000
v 1.000000 0.000000 1.500000
v 1.000000 0.000000 1.000000
v 1.000000 0.000000 0.500000
v 1.000000 0.000000 0.000000
v 1.000000 0.000000 -0.500000
v 1.000000 0.000000 -1.000000
v 1.000000 0.000000 -1.500000
v 1.500000 0.000000 1.500000
v 1.500000 0.000000 1.000000
v 1.500000 0.000000 0.500000
v 1.500000 0.000000 0.000000
v 1.500000 0.000000 -0.500000
v 1.500000 0.000000 -1.000000
v 1.500000 0.000000 -1.500000
v 1.500000 0.075000 -2.000000
v 1.000000 0.075000 -2.000000
v -1.000000 0.075000 -2.000000
v -1.500000 0.075000 -2.000000
v -1.500000 0.075000 -1.500000
v -1.000000 0.075000 -1.500000
v 1.000000 0.075000 -1.500000
v 1.500000 0.075000 -1.500000
v 2.000000 0.075000 1.500000
v 2.000000 0.075000 1.000000
v 2.000000 0.075000 -1.000000
v 2.000000 0.075000 -1.500000
v -1.500000 0.075000 1.500000
v -1.500000 0.075000 1.000000
v -1.500000 0.075000 0.500000
v -1.500000 0.075000 0.000000
v -1.500000 0.075000 -0.500000
v -1.500000 0.075000 -1.000000
v -1.000000 0.075000 1.500000
v -1.000000 0.075000 1.000000
v -1.000000 0.075000 0.500000
v -1.000000 0.075000 0.000000
v -1.000000 0.075000 -0.500000
v -1.000000 0.075000 -1.000000
v -0.500000 0.075000 1.500000
v -0.500000 0.075000 1.000000
v 0.000000 0.075000 1.500000
v 0.000000 0.075000 1.000000
v 0.500000 0.075000 1.500000
v 0.500000 0.075000 1.000000
v 1.000000 0.075000 1.500000
v 1.000000 0.075000 1.000000
v 1.000000 0.075000 -1.000000
v 1.500000 0.075000 1.500000
v 1.500000 0.075000 1.000000
v 1.500000 0.075000 -1.000000
vn -0.0000 1.0000 -0.0000
vn 1.0000 -0.0000 -0.0000
vn -0.0000 -0.0000 -1.0000
vn -1.0000 -0.0000 -0.0000
vn -0.0000 -0.0000 1.0000
vt 0.875000 0.125000
vt 0.875000 0.000000
vt 1.000000 0.000000
vt 1.000000 0.125000
vt 0.875000 1.000000
vt 0.875000 0.875000
vt 1.000000 0.875000
vt 1.000000 1.000000
vt 0.500000 0.750000
vt 0.625000 0.750000
vt 0.875000 0.750000
vt 0.875000 0.625000
vt 1.000000 0.625000
vt 1.000000 0.750000
vt 0.875000 0.500000
vt 1.000000 0.500000
vt 0.875000 0.375000
vt 1.000000 0.375000
vt 0.875000 0.250000
vt 1.000000 0.250000
vt 0.250000 0.625000
vt 0.250000 0.750000
vt 0.000000 0.250000
vt 0.000000 0.125000
vt 0.125000 0.125000
vt 0.125000 0.250000
vt 0.250000 0.250000
vt 0.250000 0.125000
vt 0.375000 0.125000
vt 0.375000 0.250000
vt 0.500000 0.125000
vt 0.500000 0.250000
vt 0.625000 0.125000
vt 0.625000 0.250000
vt 0.750000 0.125000
vt 0.750000 0.250000
vt 0.250000 0.375000
vt 0.250000 0.500000
vt 0.000000 0.375000
vt 0.125000 0.375000
vt 0.375000 0.375000
vt 0.500000 0.375000
vt 0.625000 0.375000
vt 0.750000 0.375000
vt 0.000000 0.500000
vt 0.125000 0.500000
vt 0.375000 0.750000
vt 0.375000 0.500000
vt 0.500000 0.500000
vt 0.625000 0.500000
vt 0.750000 0.500000
vt 0.000000 0.625000
vt 0.125000 0.625000
vt 0.125000 0.750000
vt 0.375000 0.625000
vt 0.500000 0.625000
vt 0.625000 0.625000
vt 0.750000 0.625000
vt 0.000000 0.750000
vt 0.750000 0.750000
vt 0.000000 0.875000
vt 0.125000 0.875000
vt 0.750000 0.000000
vt 0.000000 1.000000
vt 0.125000 1.000000
vt 0.250000 0.875000
vt 0.250000 1.000000
vt 0.375000 0.875000
vt 0.375000 1.000000
vt 0.500000 0.875000
vt 0.500000 1.000000
vt 0.625000 0.875000
vt 0.625000 1.000000
vt 0.750000 0.875000
vt 0.750000 1.000000
vt 0.000000 0.000000
vt 0.125000 0.000000
vt 0.250000 0.000000
vt 0.375000 0.000000
vt 0.500000 0.000000
vt 0.625000 0.000000
s 0
usemtl road_corner
f 81/1/1 32/2/1 4/3/1 12/4/1
f 19/5/1 39/6/1 18/7/1 3/8/1
f 43/9/2 44/10/2 104/10/2 103/9/2
f 46/11/1 53/12/1 16/13/1 17/14/1
f 53/12/1 60/15/1 15/16/1 16/13/1
f 60/15/1 67/17/1 14/18/1 15/16/1
f 67/17/1 74/19/1 13/20/1 14/18/1
f 48/21/3 41/22/3 101/22/3 107/21/3
f 10/23/1 11/24/1 75/25/1 68/26/1
f 13/20/4 74/19/4 88/19/4 83/20/4
f 69/27/1 76/28/1 77/29/1 70/30/1
f 70/30/1 77/29/1 78/31/1 71/32/1
f 71/32/1 78/31/1 79/33/1 72/34/1
f 72/34/1 79/33/1 80/35/1 73/36/1
f 62/37/3 55/38/3 109/38/3 111/37/3
f 9/39/1 10/23/1 68/26/1 61/40/1
f 32/2/3 81/1/3 89/1/3 93/2/3
f 62/37/1 69/27/1 70/30/1 63/41/1
f 63/41/1 70/30/1 71/32/1 64/42/1
f 64/42/1 71/32/1 72/34/1 65/43/1
f 65/43/1 72/34/1 73/36/1 66/44/1
f 66/44/1 73/36/1 74/19/1 67/17/1
f 8/45/1 9/39/1 61/40/1 54/46/1
f 42/47/2 43/9/2 103/9/2 102/47/2
f 55/38/1 62/37/1 63/41/1 56/48/1
f 56/48/1 63/41/1 64/42/1 57/49/1
f 57/49/1 64/42/1 65/43/1 58/50/1
f 58/50/1 65/43/1 66/44/1 59/51/1
f 59/51/1 66/44/1 67/17/1 60/15/1
f 7/52/1 8/45/1 54/46/1 47/53/1
f 40/54/5 47/53/5 106/53/5 100/54/5
f 48/21/1 55/38/1 56/48/1 49/55/1
f 49/55/1 56/48/1 57/49/1 50/56/1
f 50/56/1 57/49/1 58/50/1 51/57/1
f 51/57/1 58/50/1 59/51/1 52/58/1
f 52/58/1 59/51/1 60/15/1 53/12/1
f 6/59/1 7/52/1 47/53/1 40/54/1
f 76/28/3 69/27/3 113/27/3 116/28/3
f 41/22/1 48/21/1 49/55/1 42/47/1
f 42/47/1 49/55/1 50/56/1 43/9/1
f 43/9/1 50/56/1 51/57/1 44/10/1
f 44/10/1 51/57/1 52/58/1 45/60/1
f 45/60/1 52/58/1 53/12/1 46/11/1
f 5/61/1 6/59/1 40/54/1 33/62/1
f 54/46/5 61/40/5 110/40/5 108/46/5
f 80/35/5 31/63/5 92/63/5 117/35/5
f 41/22/2 42/47/2 102/47/2 101/22/2
f 68/26/5 75/25/5 115/25/5 112/26/5
f 26/64/2 27/64/2 91/64/2 90/64/2
f 46/11/2 17/14/2 84/14/2 87/11/2
f 1/64/1 5/61/1 33/62/1 25/65/1
f 25/65/1 33/62/1 34/66/1 24/67/1
f 24/67/1 34/66/1 35/68/1 23/69/1
f 23/69/1 35/68/1 36/70/1 22/71/1
f 22/71/1 36/70/1 37/72/1 21/73/1
f 21/73/1 37/72/1 38/74/1 20/75/1
f 20/75/1 38/74/1 39/6/1 19/5/1
f 11/24/1 2/76/1 26/77/1 75/25/1
f 39/6/4 38/74/4 99/74/4 86/6/4
f 76/28/1 27/78/1 28/79/1 77/29/1
f 77/29/1 28/79/1 29/80/1 78/31/1
f 78/31/1 29/80/1 30/81/1 79/33/1
f 79/33/1 30/81/1 31/63/1 80/35/1
f 18/7/4 39/6/4 86/6/4 85/7/4
f 86/6/1 87/11/1 84/14/1 85/7/1
f 88/19/1 89/1/1 82/4/1 83/20/1
f 112/26/1 115/25/1 116/28/1 113/27/1
f 114/36/1 117/35/1 89/1/1 88/19/1
f 110/40/1 112/26/1 113/27/1 111/37/1
f 108/46/1 110/40/1 111/37/1 109/38/1
f 106/53/1 108/46/1 109/38/1 107/21/1
f 100/54/1 106/53/1 107/21/1 101/22/1
f 94/62/1 100/54/1 101/22/1 95/66/1
f 95/66/1 101/22/1 102/47/1 96/68/1
f 96/68/1 102/47/1 103/9/1 97/70/1
f 97/70/1 103/9/1 104/10/1 98/72/1
f 98/72/1 104/10/1 105/60/1 99/74/1
f 99/74/1 105/60/1 87/11/1 86/6/1
f 115/25/1 90/77/1 91/78/1 116/28/1
f 117/35/1 92/63/1 93/2/1 89/1/1
f 81/1/2 12/4/2 82/4/2 89/1/2
f 44/10/2 45/60/2 105/60/2 104/10/2
f 31/64/2 32/64/2 93/64/2 92/64/2
f 45/60/2 46/11/2 87/11/2 105/60/2
f 12/64/3 13/64/3 83/64/3 82/64/3
f 73/36/5 80/35/5 117/35/5 114/36/5
f 74/19/4 73/36/4 114/36/4 88/19/4
f 34/66/4 33/62/4 94/62/4 95/66/4
f 35/68/4 34/66/4 95/66/4 96/68/4
f 61/40/5 68/26/5 112/26/5 110/40/5
f 47/53/5 54/46/5 108/46/5 106/53/5
f 36/70/4 35/68/4 96/68/4 97/70/4
f 69/27/3 62/37/3 111/37/3 113/27/3
f 33/62/5 40/54/5 100/54/5 94/62/5
f 55/38/3 48/21/3 107/21/3 109/38/3
f 37/72/4 36/70/4 97/70/4 98/72/4
f 75/25/5 26/77/5 90/77/5 115/25/5
f 17/64/3 18/64/3 85/64/3 84/64/3
f 38/74/4 37/72/4 98/72/4 99/74/4
f 27/78/3 76/28/3 116/28/3 91/78/3
