# Blender 5.0.1
# www.blender.org
mtllib semafor.mtl
o Pole
v 0.116712 5.127954 -0.129680
v 0.116712 5.692936 -0.116712
v 0.129680 5.127954 -0.116712
v 0.116712 -0.000000 -0.116712
v 0.116712 0.564983 -0.129680
v 0.129680 0.564983 -0.116712
v 0.129680 5.127954 0.116712
v 0.116712 5.692936 0.116712
v 0.116712 5.127954 0.129680
v 0.129680 0.564983 0.116712
v 0.116712 0.564983 0.129680
v 0.116712 -0.000000 0.116712
v -0.116712 5.127954 -0.129680
v -0.129680 5.127954 -0.116712
v -0.116712 5.692936 -0.116712
v -0.129680 0.564983 -0.116712
v -0.116712 0.564983 -0.129680
v -0.116712 -0.000000 -0.116712
v -0.129680 5.127954 0.116712
v -0.116712 5.127954 0.129680
v -0.116712 5.692936 0.116712
v -0.116712 -0.000000 0.116712
v -0.116712 0.564983 0.129680
v -0.129680 0.564983 0.116712
vn 0.7070 0.0162 -0.7070
vn 0.7070 -0.0162 -0.7070
vn 0.7070 0.0162 0.7070
vn 0.7070 -0.0162 0.7070
vn -0.7070 0.0162 -0.7070
vn -0.7070 -0.0162 -0.7070
vn -0.7070 0.0162 0.7070
vn -0.7070 -0.0162 0.7070
vn -0.9997 -0.0229 -0.0000
vn -0.0000 -0.0229 -0.9997
vn 0.7071 -0.0000 -0.7071
vn -0.7071 -0.0000 0.7071
vn 0.7071 -0.0000 0.7071
vn -0.7071 -0.0000 -0.7071
vn -0.0000 0.0229 0.9997
vn 0.9997 0.0229 -0.0000
vn -0.0000 -0.0229 0.9997
vn -0.9997 0.0229 -0.0000
vn -0.0000 0.0229 -0.9997
vn 0.9997 -0.0229 -0.0000
vn -0.0000 -0.0000 -1.0000
vn 1.0000 -0.0000 -0.0000
vn -0.0000 1.0000 -0.0000
vn -0.0000 -1.0000 -0.0000
vn -0.0000 -0.0000 1.0000
vn -1.0000 -0.0000 -0.0000
vt 0.600189 0.487500
vt 0.631250 0.500000
vt 0.600189 0.509375
vt 0.362500 0.512500
vt 0.381155 0.493750
vt 0.393608 0.512500
vt 0.600189 0.740625
vt 0.631250 0.750000
vt 0.600189 0.762500
vt 0.393608 0.737500
vt 0.381155 0.756250
vt 0.362500 0.737500
vt 0.600189 0.259375
vt 0.600189 0.237500
vt 0.625000 0.245833
vt 0.125000 0.512500
vt 0.137500 0.500000
vt 0.137500 0.512500
vt 0.600189 0.012500
vt 0.600189 0.000000
vt 0.625000 0.012500
vt 0.137500 0.737500
vt 0.137500 0.750000
vt 0.125000 0.737500
vt 0.399811 0.000000
vt 0.399811 0.012500
vt 0.399811 0.262500
vt 0.399811 0.237500
vt 0.625000 0.987500
vt 0.600189 0.987500
vt 0.862500 0.512500
vt 0.862500 0.737500
vt 0.399811 0.987500
s 1
usemtl Material
f 1/1/1 2/2/1 3/3/1
f 4/4/2 5/5/2 6/6/2
f 7/7/3 8/8/3 9/9/3
f 10/10/4 11/11/4 12/12/4
f 13/13/5 14/14/5 15/15/5
f 16/16/6 17/17/6 18/18/6
f 19/19/7 20/20/7 21/21/7
f 22/22/8 23/23/8 24/24/8
f 18/18/9 22/22/9 24/24/9 16/16/9
f 4/4/10 18/18/10 17/17/10 5/5/10
f 3/3/11 6/6/11 5/5/11 1/1/11
f 23/25/12 20/20/12 19/19/12 24/26/12
f 9/9/13 11/11/13 10/10/13 7/7/13
f 13/13/14 17/27/14 16/28/14 14/14/14
f 8/8/15 21/29/15 20/30/15 9/9/15
f 2/2/16 8/8/16 7/7/16 3/3/16
f 22/22/17 12/12/17 11/11/17 23/23/17
f 21/21/18 15/15/18 14/14/18 19/19/18
f 15/15/19 2/2/19 1/1/19 13/13/19
f 12/12/20 4/4/20 6/6/20 10/10/20
f 17/27/21 13/13/21 1/1/21 5/5/21
f 6/6/22 3/3/22 7/7/22 10/10/22
f 2/2/23 15/31/23 21/32/23 8/8/23
f 18/18/24 4/4/24 12/12/24 22/22/24
f 11/11/25 9/9/25 20/30/25 23/33/25
f 24/26/26 19/19/26 14/14/26 16/28/26
o Head
v -0.481660 5.692936 0.481660
v -0.481660 6.491942 0.500000
v -0.500000 6.491942 0.481660
v -0.481660 5.708289 0.485238
v -0.481660 5.753757 0.488679
v -0.481660 5.827593 0.491849
v -0.481660 5.926960 0.494628
v -0.485238 5.708289 0.481660
v -0.485348 5.726343 0.485394
v -0.485353 5.774955 0.488862
v -0.485321 5.847394 0.491862
v -0.485303 5.937875 0.494362
v -0.488679 5.753757 0.481660
v -0.488852 5.775166 0.485395
v -0.488760 5.823659 0.488777
v -0.488545 5.888894 0.491527
v -0.488422 5.966681 0.493713
v -0.491849 5.827593 0.481660
v -0.491879 5.848166 0.485344
v -0.491529 5.889196 0.488555
v -0.491031 5.939596 0.491031
v -0.490765 6.001494 0.492918
v -0.492249 6.030636 0.492249
v -0.485238 6.491942 0.499648
v -0.488679 6.491942 0.498604
v -0.491849 6.491942 0.496909
v -0.494628 6.491942 0.494628
v -0.481660 6.336064 0.499648
v -0.485394 6.331288 0.499233
v -0.488862 6.331042 0.498117
v -0.491862 6.332445 0.496455
v -0.494362 6.333242 0.494378
v -0.481660 6.186176 0.498604
v -0.485395 6.178623 0.498112
v -0.488777 6.182627 0.496999
v -0.491527 6.191980 0.495502
v -0.493713 6.197348 0.493717
v -0.481660 6.048038 0.496909
v -0.485344 6.046733 0.496437
v -0.488555 6.061970 0.495495
v -0.491031 6.083700 0.494338
v -0.492918 6.095291 0.492918
v -0.499648 6.336064 0.481660
v -0.498604 6.186176 0.481660
v -0.496909 6.048038 0.481660
v -0.494628 5.926960 0.481660
v -0.499648 6.491942 0.485238
v -0.499233 6.329285 0.485348
v -0.498117 6.178174 0.485353
v -0.496455 6.047501 0.485321
v -0.494378 5.938558 0.485303
v -0.498604 6.491942 0.488679
v -0.498112 6.329241 0.488852
v -0.496999 6.181892 0.488760
v -0.495502 6.062099 0.488545
v -0.493717 5.966847 0.488422
v -0.496909 6.491942 0.491849
v -0.496437 6.331467 0.491879
v -0.495495 6.191556 0.491529
v -0.494338 6.083700 0.491031
v -0.492918 6.001494 0.490765
v -0.481660 7.709135 0.500000
v -0.481660 8.508141 0.481660
v -0.500000 7.709135 0.481660
v -0.481660 7.865012 0.499648
v -0.481660 8.014900 0.498604
v -0.481660 8.153038 0.496909
v -0.481660 8.274117 0.494628
v -0.485238 7.709134 0.499648
v -0.485348 7.871791 0.499233
v -0.485353 8.022902 0.498117
v -0.485321 8.153576 0.496455
v -0.485303 8.262518 0.494378
v -0.488679 7.709134 0.498604
v -0.488852 7.871836 0.498112
v -0.488760 8.019184 0.496999
v -0.488545 8.138977 0.495502
v -0.488422 8.234229 0.493717
v -0.491849 7.709134 0.496909
v -0.491879 7.869609 0.496437
v -0.491529 8.009521 0.495495
v -0.491031 8.117376 0.494338
v -0.490765 8.199582 0.492918
v -0.492249 8.170441 0.492249
v -0.485238 8.492787 0.481660
v -0.488679 8.447319 0.481660
v -0.491849 8.373484 0.481660
v -0.494628 8.274117 0.481660
v -0.481660 8.492787 0.485238
v -0.485394 8.474733 0.485348
v -0.488862 8.426121 0.485353
v -0.491862 8.353683 0.485321
v -0.494362 8.263201 0.485303
v -0.481660 8.447319 0.488679
v -0.485395 8.425911 0.488852
v -0.488777 8.377418 0.488760
v -0.491527 8.312182 0.488545
v -0.493713 8.234396 0.488422
v -0.481660 8.373484 0.491849
v -0.485344 8.352910 0.491879
v -0.488555 8.311880 0.491529
v -0.491031 8.261480 0.491031
v -0.492918 8.199582 0.490765
v -0.499648 7.709134 0.485238
v -0.498604 7.709134 0.488679
v -0.496909 7.709134 0.491849
v -0.494628 7.709134 0.494628
v -0.499648 7.865012 0.481660
v -0.499233 7.869788 0.485394
v -0.498117 7.870034 0.488862
v -0.496455 7.868631 0.491862
v -0.494378 7.867834 0.494362
v -0.498604 8.014900 0.481660
v -0.498112 8.022453 0.485395
v -0.496999 8.018450 0.488777
v -0.495502 8.009097 0.491527
v -0.493717 8.003728 0.493713
v -0.496909 8.153038 0.481660
v -0.496437 8.154344 0.485344
v -0.495495 8.139106 0.488555
v -0.494338 8.117376 0.491031
v -0.492918 8.105785 0.492918
v -0.481660 5.692936 -0.481660
v -0.500000 6.491942 -0.481660
v -0.481660 6.491942 -0.500000
v -0.485238 5.708289 -0.481660
v -0.488679 5.753757 -0.481660
v -0.491849 5.827593 -0.481660
v -0.494628 5.926960 -0.481660
v -0.481660 5.708289 -0.485238
v -0.485394 5.726343 -0.485348
v -0.488862 5.774955 -0.485353
v -0.491862 5.847394 -0.485321
v -0.494362 5.937875 -0.485303
v -0.481660 5.753757 -0.488679
v -0.485395 5.775166 -0.488852
v -0.488777 5.823659 -0.488760
v -0.491527 5.888894 -0.488545
v -0.493713 5.966681 -0.488422
v -0.481660 5.827593 -0.491849
v -0.485344 5.848166 -0.491879
v -0.488555 5.889196 -0.491529
v -0.491031 5.939596 -0.491031
v -0.492918 6.001494 -0.490765
v -0.492249 6.030636 -0.492249
v -0.499648 6.491942 -0.485238
v -0.498604 6.491942 -0.488679
v -0.496909 6.491942 -0.491849
v -0.494628 6.491942 -0.494628
v -0.499648 6.336064 -0.481660
v -0.499233 6.331288 -0.485394
v -0.498117 6.331042 -0.488862
v -0.496455 6.332445 -0.491862
v -0.494378 6.333242 -0.494362
v -0.498604 6.186176 -0.481660
v -0.498112 6.178623 -0.485395
v -0.496999 6.182627 -0.488777
v -0.495502 6.191980 -0.491527
v -0.493717 6.197348 -0.493713
v -0.496909 6.048038 -0.481660
v -0.496437 6.046733 -0.485344
v -0.495495 6.061970 -0.488555
v -0.494338 6.083700 -0.491031
v -0.492918 6.095291 -0.492918
v -0.481660 6.336064 -0.499648
v -0.481660 6.186176 -0.498604
v -0.481660 6.048038 -0.496909
v -0.481660 5.926960 -0.494628
v -0.485238 6.491942 -0.499648
v -0.485348 6.329285 -0.499233
v -0.485353 6.178174 -0.498117
v -0.485321 6.047501 -0.496455
v -0.485303 5.938558 -0.494378
v -0.488679 6.491942 -0.498604
v -0.488852 6.329241 -0.498112
v -0.488760 6.181892 -0.496999
v -0.488545 6.062099 -0.495502
v -0.488422 5.966847 -0.493717
v -0.491849 6.491942 -0.496909
v -0.491879 6.331467 -0.496437
v -0.491529 6.191556 -0.495495
v -0.491031 6.083700 -0.494338
v -0.490765 6.001494 -0.492918
v -0.481660 8.508141 -0.481660
v -0.481660 7.709135 -0.500000
v -0.500000 7.709135 -0.481660
v -0.481660 8.492787 -0.485238
v -0.481660 8.447319 -0.488679
v -0.481660 8.373484 -0.491849
v -0.481660 8.274117 -0.494628
v -0.485238 8.492787 -0.481660
v -0.485348 8.474733 -0.485394
v -0.485353 8.426121 -0.488862
v -0.485321 8.353683 -0.491862
v -0.485303 8.263201 -0.494362
v -0.488679 8.447319 -0.481660
v -0.488852 8.425911 -0.485395
v -0.488760 8.377418 -0.488777
v -0.488545 8.312182 -0.491527
v -0.488422 8.234396 -0.493713
v -0.491849 8.373484 -0.481660
v -0.491879 8.352910 -0.485344
v -0.491529 8.311880 -0.488555
v -0.491031 8.261480 -0.491031
v -0.490765 8.199582 -0.492918
v -0.492249 8.170441 -0.492249
v -0.485238 7.709134 -0.499648
v -0.488679 7.709134 -0.498604
v -0.491849 7.709134 -0.496909
v -0.494628 7.709134 -0.494628
v -0.481660 7.865012 -0.499648
v -0.485394 7.869788 -0.499233
v -0.488862 7.870034 -0.498117
v -0.491862 7.868631 -0.496455
v -0.494362 7.867834 -0.494378
v -0.481660 8.014900 -0.498604
v -0.485395 8.022453 -0.498112
v -0.488777 8.018450 -0.496999
v -0.491527 8.009097 -0.495502
v -0.493713 8.003728 -0.493717
v -0.481660 8.153038 -0.496909
v -0.485344 8.154344 -0.496437
v -0.488555 8.139106 -0.495495
v -0.491031 8.117376 -0.494338
v -0.492918 8.105785 -0.492918
v -0.499648 7.865012 -0.481660
v -0.498604 8.014900 -0.481660
v -0.496909 8.153038 -0.481660
v -0.494628 8.274117 -0.481660
v -0.499648 7.709134 -0.485238
v -0.499233 7.871791 -0.485348
v -0.498117 8.022902 -0.485353
v -0.496455 8.153576 -0.485321
v -0.494378 8.262518 -0.485303
v -0.498604 7.709134 -0.488679
v -0.498112 7.871836 -0.488852
v -0.496999 8.019184 -0.488760
v -0.495502 8.138977 -0.488545
v -0.493717 8.234229 -0.488422
v -0.496909 7.709134 -0.491849
v -0.496437 7.869609 -0.491879
v -0.495495 8.009521 -0.491529
v -0.494338 8.117376 -0.491031
v -0.492918 8.199582 -0.490765
v 0.481660 5.692936 0.481660
v 0.500000 6.491942 0.481660
v 0.481660 6.491942 0.500000
v 0.485238 5.708289 0.481660
v 0.488679 5.753757 0.481660
v 0.491849 5.827593 0.481660
v 0.494628 5.926960 0.481660
v 0.481660 5.708289 0.485238
v 0.485394 5.726343 0.485348
v 0.488862 5.774955 0.485353
v 0.491862 5.847394 0.485321
v 0.494362 5.937875 0.485303
v 0.481660 5.753757 0.488679
v 0.485395 5.775166 0.488852
v 0.488777 5.823659 0.488760
v 0.491527 5.888894 0.488545
v 0.493713 5.966681 0.488422
v 0.481660 5.827593 0.491849
v 0.485344 5.848166 0.491879
v 0.488555 5.889196 0.491529
v 0.491031 5.939596 0.491031
v 0.492918 6.001494 0.490765
v 0.492249 6.030636 0.492249
v 0.499648 6.491942 0.485238
v 0.498604 6.491942 0.488679
v 0.496909 6.491942 0.491849
v 0.494628 6.491942 0.494628
v 0.499648 6.336064 0.481660
v 0.499233 6.331288 0.485394
v 0.498117 6.331042 0.488862
v 0.496455 6.332445 0.491862
v 0.494378 6.333242 0.494362
v 0.498604 6.186176 0.481660
v 0.498112 6.178623 0.485395
v 0.496999 6.182627 0.488777
v 0.495502 6.191980 0.491527
v 0.493717 6.197348 0.493713
v 0.496909 6.048038 0.481660
v 0.496437 6.046733 0.485344
v 0.495495 6.061970 0.488555
v 0.494338 6.083700 0.491031
v 0.492918 6.095291 0.492918
v 0.481660 6.336064 0.499648
v 0.481660 6.186176 0.498604
v 0.481660 6.048038 0.496909
v 0.481660 5.926960 0.494628
v 0.485238 6.491942 0.499648
v 0.485348 6.329285 0.499233
v 0.485353 6.178174 0.498117
v 0.485321 6.047501 0.496455
v 0.485303 5.938558 0.494378
v 0.488679 6.491942 0.498604
v 0.488852 6.329241 0.498112
v 0.488760 6.181892 0.496999
v 0.488545 6.062099 0.495502
v 0.488422 5.966847 0.493717
v 0.491849 6.491942 0.496909
v 0.491879 6.331467 0.496437
v 0.491529 6.191556 0.495495
v 0.491031 6.083700 0.494338
v 0.490765 6.001494 0.492918
v 0.481660 8.508141 0.481660
v 0.481660 7.709135 0.500000
v 0.500000 7.709135 0.481660
v 0.481660 8.492787 0.485238
v 0.481660 8.447319 0.488679
v 0.481660 8.373484 0.491849
v 0.481660 8.274117 0.494628
v 0.485238 8.492787 0.481660
v 0.485348 8.474733 0.485394
v 0.485353 8.426121 0.488862
v 0.485321 8.353683 0.491862
v 0.485303 8.263201 0.494362
v 0.488679 8.447319 0.481660
v 0.488852 8.425911 0.485395
v 0.488760 8.377418 0.488777
v 0.488545 8.312182 0.491527
v 0.488422 8.234396 0.493713
v 0.491849 8.373484 0.481660
v 0.491879 8.352910 0.485344
v 0.491529 8.311880 0.488555
v 0.491031 8.261480 0.491031
v 0.490765 8.199582 0.492918
v 0.492249 8.170441 0.492249
v 0.485238 7.709134 0.499648
v 0.488679 7.709134 0.498604
v 0.491849 7.709134 0.496909
v 0.494628 7.709134 0.494628
v 0.481660 7.865012 0.499648
v 0.485394 7.869788 0.499233
v 0.488862 7.870034 0.498117
v 0.491862 7.868631 0.496455
v 0.494362 7.867834 0.494378
v 0.481660 8.014900 0.498604
v 0.485395 8.022453 0.498112
v 0.488777 8.018450 0.496999
v 0.491527 8.009097 0.495502
v 0.493713 8.003728 0.493717
v 0.481660 8.153038 0.496909
v 0.485344 8.154344 0.496437
v 0.488555 8.139106 0.495495
v 0.491031 8.117376 0.494338
v 0.492918 8.105785 0.492918
v 0.499648 7.865012 0.481660
v 0.498604 8.014900 0.481660
v 0.496909 8.153038 0.481660
v 0.494628 8.274117 0.481660
v 0.499648 7.709134 0.485238
v 0.499233 7.871791 0.485348
v 0.498117 8.022902 0.485353
v 0.496455 8.153576 0.485321
v 0.494378 8.262518 0.485303
v 0.498604 7.709134 0.488679
v 0.498112 7.871836 0.488852
v 0.496999 8.019184 0.488760
v 0.495502 8.138977 0.488545
v 0.493717 8.234229 0.488422
v 0.496909 7.709134 0.491849
v 0.496437 7.869609 0.491879
v 0.495495 8.009521 0.491529
v 0.494338 8.117376 0.491031
v 0.492918 8.199582 0.490765
v 0.481660 5.692936 -0.481660
v 0.481660 6.491942 -0.500000
v 0.500000 6.491942 -0.481660
v 0.481660 5.708289 -0.485238
v 0.481660 5.753757 -0.488679
v 0.481660 5.827593 -0.491849
v 0.481660 5.926960 -0.494628
v 0.485238 5.708289 -0.481660
v 0.485348 5.726343 -0.485394
v 0.485353 5.774955 -0.488862
v 0.485321 5.847394 -0.491862
v 0.485303 5.937875 -0.494362
v 0.488679 5.753757 -0.481660
v 0.488852 5.775166 -0.485395
v 0.488760 5.823659 -0.488777
v 0.488545 5.888894 -0.491527
v 0.488422 5.966681 -0.493713
v 0.491849 5.827593 -0.481660
v 0.491879 5.848166 -0.485344
v 0.491529 5.889196 -0.488555
v 0.491031 5.939596 -0.491031
v 0.490765 6.001494 -0.492918
v 0.492249 6.030636 -0.492249
v 0.485238 6.491942 -0.499648
v 0.488679 6.491942 -0.498604
v 0.491849 6.491942 -0.496909
v 0.494628 6.491942 -0.494628
v 0.481660 6.336064 -0.499648
v 0.485394 6.331288 -0.499233
v 0.488862 6.331042 -0.498117
v 0.491862 6.332445 -0.496455
v 0.494362 6.333242 -0.494378
v 0.481660 6.186176 -0.498604
v 0.485395 6.178623 -0.498112
v 0.488777 6.182627 -0.496999
v 0.491527 6.191980 -0.495502
v 0.493713 6.197348 -0.493717
v 0.481660 6.048038 -0.496909
v 0.485344 6.046733 -0.496437
v 0.488555 6.061970 -0.495495
v 0.491031 6.083700 -0.494338
v 0.492918 6.095291 -0.492918
v 0.499648 6.336064 -0.481660
v 0.498604 6.186176 -0.481660
v 0.496909 6.048038 -0.481660
v 0.494628 5.926960 -0.481660
v 0.499648 6.491942 -0.485238
v 0.499233 6.329285 -0.485348
v 0.498117 6.178174 -0.485353
v 0.496455 6.047501 -0.485321
v 0.494378 5.938558 -0.485303
v 0.498604 6.491942 -0.488679
v 0.498112 6.329241 -0.488852
v 0.496999 6.181892 -0.488760
v 0.495502 6.062099 -0.488545
v 0.493717 5.966847 -0.488422
v 0.496909 6.491942 -0.491849
v 0.496437 6.331467 -0.491879
v 0.495495 6.191556 -0.491529
v 0.494338 6.083700 -0.491031
v 0.492918 6.001494 -0.490765
v 0.481660 8.508141 -0.481660
v 0.500000 7.709135 -0.481660
v 0.481660 7.709135 -0.500000
v 0.485238 8.492787 -0.481660
v 0.488679 8.447319 -0.481660
v 0.491849 8.373484 -0.481660
v 0.494628 8.274117 -0.481660
v 0.481660 8.492787 -0.485238
v 0.485394 8.474733 -0.485348
v 0.488862 8.426121 -0.485353
v 0.491862 8.353683 -0.485321
v 0.494362 8.263201 -0.485303
v 0.481660 8.447319 -0.488679
v 0.485395 8.425911 -0.488852
v 0.488777 8.377418 -0.488760
v 0.491527 8.312182 -0.488545
v 0.493713 8.234396 -0.488422
v 0.481660 8.373484 -0.491849
v 0.485344 8.352910 -0.491879
v 0.488555 8.311880 -0.491529
v 0.491031 8.261480 -0.491031
v 0.492918 8.199582 -0.490765
v 0.492249 8.170441 -0.492249
v 0.499648 7.709134 -0.485238
v 0.498604 7.709134 -0.488679
v 0.496909 7.709134 -0.491849
v 0.494628 7.709134 -0.494628
v 0.499648 7.865012 -0.481660
v 0.499233 7.869788 -0.485394
v 0.498117 7.870034 -0.488862
v 0.496455 7.868631 -0.491862
v 0.494378 7.867834 -0.494362
v 0.498604 8.014900 -0.481660
v 0.498112 8.022453 -0.485395
v 0.496999 8.018450 -0.488777
v 0.495502 8.009097 -0.491527
v 0.493717 8.003728 -0.493713
v 0.496909 8.153038 -0.481660
v 0.496437 8.154344 -0.485344
v 0.495495 8.139106 -0.488555
v 0.494338 8.117376 -0.491031
v 0.492918 8.105785 -0.492918
v 0.481660 7.865012 -0.499648
v 0.481660 8.014900 -0.498604
v 0.481660 8.153038 -0.496909
v 0.481660 8.274117 -0.494628
v 0.485238 7.709134 -0.499648
v 0.485348 7.871791 -0.499233
v 0.485353 8.022902 -0.498117
v 0.485321 8.153576 -0.496455
v 0.485303 8.262518 -0.494378
v 0.488679 7.709134 -0.498604
v 0.488852 7.871836 -0.498112
v 0.488760 8.019184 -0.496999
v 0.488545 8.138977 -0.495502
v 0.488422 8.234229 -0.493717
v 0.491849 7.709134 -0.496909
v 0.491879 7.869609 -0.496437
v 0.491529 8.009521 -0.495495
v 0.491031 8.117376 -0.494338
v 0.490765 8.199582 -0.492918
vn -0.6729 -0.3074 0.6729
vn -0.0502 -0.0012 0.9987
vn -0.9987 -0.0012 0.0502
vn -0.2515 -0.1102 0.9616
vn -0.1306 -0.0547 0.9899
vn -0.0878 -0.0342 0.9956
vn -0.0682 -0.0229 0.9974
vn -0.9612 -0.1101 0.2531
vn -0.7025 -0.0769 0.7075
vn -0.4535 -0.0472 0.8900
vn -0.3282 -0.0317 0.9441
vn -0.2635 -0.0222 0.9644
vn -0.9897 -0.0547 0.1325
vn -0.8884 -0.0472 0.4567
vn -0.7060 -0.0359 0.7073
vn -0.5645 -0.0270 0.8250
vn -0.4761 -0.0202 0.8792
vn -0.9955 -0.0342 0.0886
vn -0.9437 -0.0316 0.3292
vn -0.8247 -0.0270 0.5649
vn -0.7069 -0.0226 0.7070
vn -0.6187 -0.0180 0.7854
vn -0.7070 -0.0162 0.7070
vn -0.1963 -0.0012 0.9805
vn -0.3837 -0.0012 0.9235
vn -0.5560 -0.0011 0.8312
vn -0.7071 -0.0011 0.7071
vn -0.0527 -0.0046 0.9986
vn -0.2067 -0.0047 0.9784
vn -0.3970 -0.0046 0.9178
vn -0.5644 -0.0045 0.8255
vn -0.7068 -0.0044 0.7074
vn -0.0555 -0.0095 0.9984
vn -0.2168 -0.0097 0.9762
vn -0.4117 -0.0094 0.9113
vn -0.5735 -0.0090 0.8191
vn -0.7069 -0.0088 0.7073
vn -0.0594 -0.0153 0.9981
vn -0.2323 -0.0153 0.9725
vn -0.4326 -0.0145 0.9015
vn -0.5834 -0.0134 0.8121
vn -0.7070 -0.0128 0.7071
vn -0.9986 -0.0046 0.0523
vn -0.9985 -0.0095 0.0547
vn -0.9981 -0.0153 0.0589
vn -0.9974 -0.0229 0.0682
vn -0.9805 -0.0012 0.1965
vn -0.9787 -0.0047 0.2053
vn -0.9765 -0.0097 0.2152
vn -0.9728 -0.0153 0.2312
vn -0.9645 -0.0221 0.2633
vn -0.9235 -0.0012 0.3836
vn -0.9180 -0.0047 0.3966
vn -0.9116 -0.0095 0.4110
vn -0.9018 -0.0145 0.4320
vn -0.8793 -0.0202 0.4759
vn -0.8312 -0.0011 0.5559
vn -0.8251 -0.0045 0.5650
vn -0.8190 -0.0090 0.5738
vn -0.8121 -0.0134 0.5834
vn -0.7854 -0.0180 0.6187
vn -0.0502 0.0012 0.9987
vn -0.6729 0.3074 0.6729
vn -0.9987 0.0012 0.0502
vn -0.0523 0.0046 0.9986
vn -0.0547 0.0095 0.9985
vn -0.0589 0.0153 0.9981
vn -0.0682 0.0229 0.9974
vn -0.1965 0.0012 0.9805
vn -0.2053 0.0047 0.9787
vn -0.2152 0.0097 0.9765
vn -0.2312 0.0153 0.9728
vn -0.2633 0.0221 0.9645
vn -0.3836 0.0012 0.9235
vn -0.3966 0.0047 0.9180
vn -0.4110 0.0095 0.9116
vn -0.4320 0.0145 0.9018
vn -0.4759 0.0202 0.8793
vn -0.5559 0.0011 0.8312
vn -0.5650 0.0045 0.8251
vn -0.5738 0.0090 0.8190
vn -0.5834 0.0134 0.8121
vn -0.6187 0.0180 0.7854
vn -0.7070 0.0162 0.7070
vn -0.9616 0.1102 0.2515
vn -0.9899 0.0547 0.1306
vn -0.9956 0.0342 0.0878
vn -0.9974 0.0229 0.0682
vn -0.2531 0.1101 0.9612
vn -0.7075 0.0769 0.7025
vn -0.8900 0.0472 0.4535
vn -0.9441 0.0317 0.3282
vn -0.9644 0.0222 0.2635
vn -0.1325 0.0547 0.9897
vn -0.4567 0.0472 0.8883
vn -0.7073 0.0359 0.7060
vn -0.8250 0.0270 0.5645
vn -0.8792 0.0202 0.4761
vn -0.0886 0.0342 0.9955
vn -0.3292 0.0316 0.9437
vn -0.5649 0.0270 0.8247
vn -0.7070 0.0226 0.7069
vn -0.7854 0.0180 0.6187
vn -0.9805 0.0012 0.1963
vn -0.9235 0.0012 0.3837
vn -0.8312 0.0011 0.5560
vn -0.7071 0.0011 0.7071
vn -0.9986 0.0046 0.0527
vn -0.9784 0.0047 0.2067
vn -0.9178 0.0046 0.3970
vn -0.8255 0.0045 0.5644
vn -0.7074 0.0044 0.7068
vn -0.9984 0.0095 0.0555
vn -0.9762 0.0097 0.2168
vn -0.9113 0.0094 0.4117
vn -0.8191 0.0090 0.5735
vn -0.7073 0.0088 0.7069
vn -0.9981 0.0153 0.0594
vn -0.9725 0.0153 0.2323
vn -0.9015 0.0145 0.4326
vn -0.8121 0.0134 0.5834
vn -0.7071 0.0128 0.7070
vn -0.6729 -0.3074 -0.6729
vn -0.9987 -0.0012 -0.0502
vn -0.0502 -0.0012 -0.9987
vn -0.9616 -0.1102 -0.2515
vn -0.9899 -0.0547 -0.1306
vn -0.9956 -0.0342 -0.0878
vn -0.9974 -0.0229 -0.0682
vn -0.2531 -0.1101 -0.9612
vn -0.7075 -0.0769 -0.7025
vn -0.8900 -0.0472 -0.4535
vn -0.9441 -0.0317 -0.3282
vn -0.9644 -0.0222 -0.2635
vn -0.1325 -0.0547 -0.9897
vn -0.4567 -0.0472 -0.8884
vn -0.7073 -0.0359 -0.7060
vn -0.8250 -0.0270 -0.5645
vn -0.8792 -0.0202 -0.4761
vn -0.0886 -0.0342 -0.9955
vn -0.3292 -0.0316 -0.9437
vn -0.5649 -0.0270 -0.8247
vn -0.7070 -0.0226 -0.7069
vn -0.7854 -0.0180 -0.6187
vn -0.7070 -0.0162 -0.7070
vn -0.9805 -0.0012 -0.1963
vn -0.9235 -0.0012 -0.3837
vn -0.8312 -0.0011 -0.5560
vn -0.7071 -0.0011 -0.7071
vn -0.9986 -0.0046 -0.0527
vn -0.9784 -0.0047 -0.2067
vn -0.9178 -0.0046 -0.3970
vn -0.8255 -0.0045 -0.5644
vn -0.7074 -0.0044 -0.7068
vn -0.9984 -0.0095 -0.0555
vn -0.9762 -0.0097 -0.2168
vn -0.9113 -0.0094 -0.4117
vn -0.8191 -0.0090 -0.5735
vn -0.7073 -0.0088 -0.7069
vn -0.9981 -0.0153 -0.0594
vn -0.9725 -0.0153 -0.2323
vn -0.9015 -0.0145 -0.4326
vn -0.8121 -0.0134 -0.5834
vn -0.7071 -0.0128 -0.7070
vn -0.0523 -0.0046 -0.9986
vn -0.0547 -0.0095 -0.9985
vn -0.0589 -0.0153 -0.9981
vn -0.0682 -0.0229 -0.9974
vn -0.1965 -0.0012 -0.9805
vn -0.2053 -0.0047 -0.9787
vn -0.2152 -0.0097 -0.9765
vn -0.2312 -0.0153 -0.9728
vn -0.2633 -0.0221 -0.9645
vn -0.3836 -0.0012 -0.9235
vn -0.3966 -0.0047 -0.9180
vn -0.4110 -0.0095 -0.9116
vn -0.4320 -0.0145 -0.9018
vn -0.4759 -0.0202 -0.8793
vn -0.5559 -0.0011 -0.8312
vn -0.5650 -0.0045 -0.8251
vn -0.5738 -0.0090 -0.8190
vn -0.5834 -0.0134 -0.8121
vn -0.6187 -0.0180 -0.7854
vn -0.6729 0.3074 -0.6729
vn -0.0502 0.0012 -0.9987
vn -0.9987 0.0012 -0.0502
vn -0.2515 0.1102 -0.9616
vn -0.1306 0.0547 -0.9899
vn -0.0878 0.0342 -0.9956
vn -0.0682 0.0229 -0.9974
vn -0.9612 0.1101 -0.2531
vn -0.7025 0.0769 -0.7075
vn -0.4535 0.0472 -0.8900
vn -0.3282 0.0317 -0.9441
vn -0.2635 0.0222 -0.9644
vn -0.9897 0.0547 -0.1325
vn -0.8884 0.0472 -0.4567
vn -0.7060 0.0359 -0.7073
vn -0.5645 0.0270 -0.8250
vn -0.4761 0.0202 -0.8792
vn -0.9955 0.0342 -0.0886
vn -0.9437 0.0316 -0.3292
vn -0.8247 0.0270 -0.5649
vn -0.7069 0.0226 -0.7070
vn -0.6187 0.0180 -0.7854
vn -0.7070 0.0162 -0.7070
vn -0.1963 0.0012 -0.9805
vn -0.3837 0.0012 -0.9235
vn -0.5560 0.0011 -0.8312
vn -0.7071 0.0011 -0.7071
vn -0.0527 0.0046 -0.9986
vn -0.2067 0.0047 -0.9784
vn -0.3970 0.0046 -0.9178
vn -0.5644 0.0045 -0.8255
vn -0.7068 0.0044 -0.7074
vn -0.0555 0.0095 -0.9984
vn -0.2168 0.0097 -0.9762
vn -0.4117 0.0094 -0.9113
vn -0.5735 0.0090 -0.8191
vn -0.7069 0.0088 -0.7073
vn -0.0594 0.0153 -0.9981
vn -0.2323 0.0153 -0.9725
vn -0.4326 0.0145 -0.9015
vn -0.5834 0.0134 -0.8121
vn -0.7070 0.0128 -0.7071
vn -0.9986 0.0046 -0.0523
vn -0.9985 0.0095 -0.0547
vn -0.9981 0.0153 -0.0589
vn -0.9974 0.0229 -0.0682
vn -0.9805 0.0012 -0.1965
vn -0.9787 0.0047 -0.2053
vn -0.9765 0.0097 -0.2152
vn -0.9728 0.0153 -0.2312
vn -0.9645 0.0221 -0.2633
vn -0.9235 0.0012 -0.3836
vn -0.9180 0.0047 -0.3966
vn -0.9116 0.0095 -0.4110
vn -0.9018 0.0145 -0.4320
vn -0.8793 0.0202 -0.4759
vn -0.8312 0.0011 -0.5559
vn -0.8251 0.0045 -0.5650
vn -0.8190 0.0090 -0.5738
vn -0.8121 0.0134 -0.5834
vn -0.7854 0.0180 -0.6187
vn 0.6729 -0.3074 0.6729
vn 0.9987 -0.0012 0.0502
vn 0.0502 -0.0012 0.9987
vn 0.9616 -0.1102 0.2515
vn 0.9899 -0.0547 0.1306
vn 0.9956 -0.0342 0.0878
vn 0.9974 -0.0229 0.0682
vn 0.2531 -0.1101 0.9612
vn 0.7075 -0.0769 0.7025
vn 0.8900 -0.0472 0.4535
vn 0.9441 -0.0317 0.3282
vn 0.9644 -0.0222 0.2635
vn 0.1325 -0.0547 0.9897
vn 0.4567 -0.0472 0.8884
vn 0.7073 -0.0359 0.7060
vn 0.8250 -0.0270 0.5645
vn 0.8792 -0.0202 0.4761
vn 0.0886 -0.0342 0.9955
vn 0.3292 -0.0316 0.9437
vn 0.5649 -0.0270 0.8247
vn 0.7070 -0.0226 0.7069
vn 0.7854 -0.0180 0.6187
vn 0.7070 -0.0162 0.7070
vn 0.9805 -0.0012 0.1963
vn 0.9235 -0.0012 0.3837
vn 0.8312 -0.0011 0.5560
vn 0.7071 -0.0011 0.7071
vn 0.9986 -0.0046 0.0527
vn 0.9784 -0.0047 0.2067
vn 0.9178 -0.0046 0.3970
vn 0.8255 -0.0045 0.5644
vn 0.7074 -0.0044 0.7068
vn 0.9984 -0.0095 0.0555
vn 0.9762 -0.0097 0.2168
vn 0.9113 -0.0094 0.4117
vn 0.8191 -0.0090 0.5735
vn 0.7073 -0.0088 0.7069
vn 0.9981 -0.0153 0.0594
vn 0.9725 -0.0153 0.2323
vn 0.9015 -0.0145 0.4326
vn 0.8121 -0.0134 0.5834
vn 0.7071 -0.0128 0.7070
vn 0.0523 -0.0046 0.9986
vn 0.0547 -0.0095 0.9985
vn 0.0589 -0.0153 0.9981
vn 0.0682 -0.0229 0.9974
vn 0.1965 -0.0012 0.9805
vn 0.2053 -0.0047 0.9787
vn 0.2152 -0.0097 0.9765
vn 0.2312 -0.0153 0.9728
vn 0.2633 -0.0221 0.9645
vn 0.3836 -0.0012 0.9235
vn 0.3966 -0.0047 0.9180
vn 0.4110 -0.0095 0.9116
vn 0.4320 -0.0145 0.9018
vn 0.4759 -0.0202 0.8793
vn 0.5559 -0.0011 0.8312
vn 0.5650 -0.0045 0.8251
vn 0.5738 -0.0090 0.8190
vn 0.5834 -0.0134 0.8121
vn 0.6187 -0.0180 0.7854
vn 0.6729 0.3074 0.6729
vn 0.0502 0.0012 0.9987
vn 0.9987 0.0012 0.0502
vn 0.2515 0.1102 0.9616
vn 0.1306 0.0547 0.9899
vn 0.0878 0.0342 0.9956
vn 0.0682 0.0229 0.9974
vn 0.9612 0.1101 0.2531
vn 0.7025 0.0769 0.7075
vn 0.4535 0.0472 0.8900
vn 0.3282 0.0317 0.9441
vn 0.2635 0.0222 0.9644
vn 0.9897 0.0547 0.1325
vn 0.8884 0.0472 0.4567
vn 0.7060 0.0359 0.7073
vn 0.5645 0.0270 0.8250
vn 0.4761 0.0202 0.8792
vn 0.9955 0.0342 0.0886
vn 0.9437 0.0316 0.3292
vn 0.8247 0.0270 0.5649
vn 0.7069 0.0226 0.7070
vn 0.6187 0.0180 0.7854
vn 0.7070 0.0162 0.7070
vn 0.1963 0.0012 0.9805
vn 0.3837 0.0012 0.9235
vn 0.5560 0.0011 0.8312
vn 0.7071 0.0011 0.7071
vn 0.0527 0.0046 0.9986
vn 0.2067 0.0047 0.9784
vn 0.3970 0.0046 0.9178
vn 0.5644 0.0045 0.8255
vn 0.7068 0.0044 0.7074
vn 0.0555 0.0095 0.9984
vn 0.2168 0.0097 0.9762
vn 0.4117 0.0094 0.9113
vn 0.5735 0.0090 0.8191
vn 0.7069 0.0088 0.7073
vn 0.0594 0.0153 0.9981
vn 0.2323 0.0153 0.9725
vn 0.4326 0.0145 0.9015
vn 0.5834 0.0134 0.8121
vn 0.7070 0.0128 0.7071
vn 0.9986 0.0046 0.0523
vn 0.9985 0.0095 0.0547
vn 0.9981 0.0153 0.0589
vn 0.9974 0.0229 0.0682
vn 0.9805 0.0012 0.1965
vn 0.9787 0.0047 0.2053
vn 0.9765 0.0097 0.2152
vn 0.9728 0.0153 0.2312
vn 0.9645 0.0221 0.2633
vn 0.9235 0.0012 0.3836
vn 0.9180 0.0047 0.3966
vn 0.9116 0.0095 0.4110
vn 0.9018 0.0145 0.4320
vn 0.8793 0.0202 0.4759
vn 0.8312 0.0011 0.5559
vn 0.8251 0.0045 0.5650
vn 0.8190 0.0090 0.5738
vn 0.8121 0.0134 0.5834
vn 0.7854 0.0180 0.6187
vn 0.6729 -0.3074 -0.6729
vn 0.0502 -0.0012 -0.9987
vn 0.9987 -0.0012 -0.0502
vn 0.2515 -0.1102 -0.9616
vn 0.1306 -0.0547 -0.9899
vn 0.0878 -0.0342 -0.9956
vn 0.0682 -0.0229 -0.9974
vn 0.9612 -0.1101 -0.2531
vn 0.7025 -0.0769 -0.7075
vn 0.4535 -0.0472 -0.8900
vn 0.3282 -0.0317 -0.9441
vn 0.2635 -0.0222 -0.9644
vn 0.9897 -0.0547 -0.1325
vn 0.8884 -0.0472 -0.4567
vn 0.7060 -0.0359 -0.7073
vn 0.5645 -0.0270 -0.8250
vn 0.4761 -0.0202 -0.8792
vn 0.9955 -0.0342 -0.0886
vn 0.9437 -0.0316 -0.3292
vn 0.8247 -0.0270 -0.5649
vn 0.7069 -0.0226 -0.7070
vn 0.6187 -0.0180 -0.7854
vn 0.7070 -0.0162 -0.7070
vn 0.1963 -0.0012 -0.9805
vn 0.3837 -0.0012 -0.9235
vn 0.5560 -0.0011 -0.8312
vn 0.7071 -0.0011 -0.7071
vn 0.0527 -0.0046 -0.9986
vn 0.2067 -0.0047 -0.9784
vn 0.3970 -0.0046 -0.9178
vn 0.5644 -0.0045 -0.8255
vn 0.7068 -0.0044 -0.7074
vn 0.0555 -0.0095 -0.9984
vn 0.2168 -0.0097 -0.9762
vn 0.4117 -0.0094 -0.9113
vn 0.5735 -0.0090 -0.8191
vn 0.7069 -0.0088 -0.7073
vn 0.0594 -0.0153 -0.9981
vn 0.2323 -0.0153 -0.9725
vn 0.4326 -0.0145 -0.9015
vn 0.5834 -0.0134 -0.8121
vn 0.7070 -0.0128 -0.7071
vn 0.9986 -0.0046 -0.0523
vn 0.9985 -0.0095 -0.0547
vn 0.9981 -0.0153 -0.0589
vn 0.9974 -0.0229 -0.0682
vn 0.9805 -0.0012 -0.1965
vn 0.9787 -0.0047 -0.2053
vn 0.9765 -0.0097 -0.2152
vn 0.9728 -0.0153 -0.2312
vn 0.9645 -0.0221 -0.2633
vn 0.9235 -0.0012 -0.3836
vn 0.9180 -0.0047 -0.3966
vn 0.9116 -0.0095 -0.4110
vn 0.9018 -0.0145 -0.4320
vn 0.8793 -0.0202 -0.4759
vn 0.8312 -0.0011 -0.5559
vn 0.8251 -0.0045 -0.5650
vn 0.8190 -0.0090 -0.5738
vn 0.8121 -0.0134 -0.5834
vn 0.7854 -0.0180 -0.6187
vn 0.6729 0.3074 -0.6729
vn 0.9987 0.0012 -0.0502
vn 0.0502 0.0012 -0.9987
vn 0.9616 0.1102 -0.2515
vn 0.9899 0.0547 -0.1306
vn 0.9956 0.0342 -0.0878
vn 0.9974 0.0229 -0.0682
vn 0.2531 0.1101 -0.9612
vn 0.7075 0.0769 -0.7025
vn 0.8900 0.0472 -0.4535
vn 0.9441 0.0317 -0.3282
vn 0.9644 0.0222 -0.2635
vn 0.1325 0.0547 -0.9897
vn 0.4567 0.0472 -0.8883
vn 0.7073 0.0359 -0.7060
vn 0.8250 0.0270 -0.5645
vn 0.8792 0.0202 -0.4761
vn 0.0886 0.0342 -0.9955
vn 0.3292 0.0316 -0.9437
vn 0.5649 0.0270 -0.8247
vn 0.7070 0.0226 -0.7069
vn 0.7854 0.0180 -0.6187
vn 0.7070 0.0162 -0.7070
vn 0.9805 0.0012 -0.1963
vn 0.9235 0.0012 -0.3837
vn 0.8312 0.0011 -0.5560
vn 0.7071 0.0011 -0.7071
vn 0.9986 0.0046 -0.0527
vn 0.9784 0.0047 -0.2067
vn 0.9178 0.0046 -0.3970
vn 0.8255 0.0045 -0.5644
vn 0.7074 0.0044 -0.7068
vn 0.9984 0.0095 -0.0555
vn 0.9762 0.0097 -0.2168
vn 0.9113 0.0094 -0.4117
vn 0.8191 0.0090 -0.5735
vn 0.7073 0.0088 -0.7069
vn 0.9981 0.0153 -0.0594
vn 0.9725 0.0153 -0.2323
vn 0.9015 0.0145 -0.4326
vn 0.8121 0.0134 -0.5834
vn 0.7071 0.0128 -0.7070
vn 0.0523 0.0046 -0.9986
vn 0.0547 0.0095 -0.9985
vn 0.0589 0.0153 -0.9981
vn 0.0682 0.0229 -0.9974
vn 0.1965 0.0012 -0.9805
vn 0.2053 0.0047 -0.9787
vn 0.2152 0.0097 -0.9765
vn 0.2312 0.0153 -0.9728
vn 0.2633 0.0221 -0.9645
vn 0.3836 0.0012 -0.9235
vn 0.3966 0.0047 -0.9180
vn 0.4110 0.0095 -0.9116
vn 0.4320 0.0145 -0.9018
vn 0.4759 0.0202 -0.8793
vn 0.5559 0.0011 -0.8312
vn 0.5650 0.0045 -0.8251
vn 0.5738 0.0090 -0.8190
vn 0.5834 0.0134 -0.8121
vn 0.6187 0.0180 -0.7854
vt 0.129585 0.745415
vt 0.129585 0.746310
vt 0.128663 0.746348
vt 0.128690 0.745415
vt 0.129585 0.747170
vt 0.128662 0.747216
vt 0.129585 0.747962
vt 0.128670 0.747965
vt 0.129585 0.750000
vt 0.128674 0.750000
vt 0.127787 0.746349
vt 0.127830 0.745415
vt 0.127810 0.747194
vt 0.127864 0.747882
vt 0.127894 0.750000
vt 0.127030 0.746336
vt 0.127038 0.745415
vt 0.127118 0.747139
vt 0.127242 0.747758
vt 0.127309 0.750000
vt 0.125000 0.746326
vt 0.125000 0.745415
vt 0.125000 0.747106
vt 0.125000 0.747691
vt 0.126938 0.750000
vt 0.445955 0.995415
vt 0.445955 0.996310
vt 0.431688 0.996348
vt 0.432112 0.995415
vt 0.445955 0.997170
vt 0.431666 0.997216
vt 0.445955 0.997962
vt 0.431791 0.997965
vt 0.445955 1.000000
vt 0.431861 1.000000
vt 0.418131 0.996349
vt 0.418801 0.995415
vt 0.418486 0.997194
vt 0.419317 0.997882
vt 0.419794 1.000000
vt 0.406418 0.996336
vt 0.406534 0.995415
vt 0.407771 0.997139
vt 0.409701 0.997758
vt 0.410730 1.000000
vt 0.375000 0.996326
vt 0.375000 0.995415
vt 0.375000 0.997106
vt 0.375000 0.997691
vt 0.404989 1.000000
vt 0.445955 0.004585
vt 0.432112 0.004585
vt 0.431510 0.003663
vt 0.445955 0.003690
vt 0.418801 0.004585
vt 0.418091 0.003662
vt 0.406534 0.004585
vt 0.406487 0.003670
vt 0.375000 0.004585
vt 0.375000 0.003674
vt 0.431506 0.002787
vt 0.445955 0.002830
vt 0.418421 0.002810
vt 0.407783 0.002864
vt 0.375000 0.002894
vt 0.431704 0.002030
vt 0.445955 0.002038
vt 0.419279 0.002118
vt 0.409701 0.002242
vt 0.375000 0.002309
vt 0.431861 0.000000
vt 0.445955 0.000000
vt 0.419794 0.000000
vt 0.410730 0.000000
vt 0.375000 0.001938
vt 0.554045 0.995415
vt 0.567888 0.995415
vt 0.568490 0.996337
vt 0.554045 0.996310
vt 0.581199 0.995415
vt 0.581909 0.996338
vt 0.593466 0.995415
vt 0.593513 0.996330
vt 0.625000 0.995415
vt 0.625000 0.996326
vt 0.568494 0.997213
vt 0.554045 0.997170
vt 0.581579 0.997190
vt 0.592217 0.997136
vt 0.625000 0.997106
vt 0.568296 0.997970
vt 0.554045 0.997962
vt 0.580721 0.997882
vt 0.590299 0.997758
vt 0.625000 0.997691
vt 0.568139 1.000000
vt 0.554045 1.000000
vt 0.580206 1.000000
vt 0.589269 1.000000
vt 0.625000 0.998062
vt 0.870415 0.745415
vt 0.871310 0.745415
vt 0.871349 0.746337
vt 0.870415 0.746310
vt 0.872170 0.745415
vt 0.872216 0.746338
vt 0.872962 0.745415
vt 0.872965 0.746330
vt 0.875000 0.745415
vt 0.875000 0.746326
vt 0.871349 0.747213
vt 0.870415 0.747170
vt 0.872194 0.747190
vt 0.872882 0.747136
vt 0.875000 0.747106
vt 0.871336 0.747970
vt 0.870415 0.747962
vt 0.872139 0.747882
vt 0.872758 0.747758
vt 0.875000 0.747691
vt 0.871326 0.750000
vt 0.870415 0.750000
vt 0.872106 0.750000
vt 0.872691 0.750000
vt 0.875000 0.748062
vt 0.554045 0.004585
vt 0.554045 0.003690
vt 0.568312 0.003652
vt 0.567888 0.004585
vt 0.554045 0.002830
vt 0.568334 0.002784
vt 0.554045 0.002038
vt 0.568209 0.002035
vt 0.554045 0.000000
vt 0.568139 0.000000
vt 0.581869 0.003651
vt 0.581199 0.004585
vt 0.581514 0.002806
vt 0.580683 0.002118
vt 0.580206 0.000000
vt 0.593582 0.003664
vt 0.593466 0.004585
vt 0.592228 0.002861
vt 0.590299 0.002242
vt 0.589269 0.000000
vt 0.625000 0.003674
vt 0.625000 0.004585
vt 0.625000 0.002894
vt 0.625000 0.002309
vt 0.595011 0.000000
vt 0.129585 0.504585
vt 0.128690 0.504585
vt 0.128652 0.503663
vt 0.129585 0.503690
vt 0.127830 0.504585
vt 0.127784 0.503662
vt 0.127038 0.504585
vt 0.127035 0.503670
vt 0.125000 0.504585
vt 0.125000 0.503674
vt 0.128651 0.502787
vt 0.129585 0.502830
vt 0.127806 0.502810
vt 0.127118 0.502864
vt 0.125000 0.502894
vt 0.128664 0.502030
vt 0.129585 0.502038
vt 0.127861 0.502118
vt 0.127242 0.502242
vt 0.125000 0.502309
vt 0.128674 0.500000
vt 0.129585 0.500000
vt 0.127894 0.500000
vt 0.127309 0.500000
vt 0.125000 0.501938
vt 0.445955 0.245415
vt 0.445955 0.246310
vt 0.431688 0.246348
vt 0.432112 0.245415
vt 0.445955 0.247170
vt 0.431666 0.247216
vt 0.445955 0.247962
vt 0.431791 0.247965
vt 0.445955 0.250000
vt 0.431861 0.250000
vt 0.418131 0.246349
vt 0.418801 0.245415
vt 0.418486 0.247194
vt 0.419317 0.247882
vt 0.419794 0.250000
vt 0.406418 0.246336
vt 0.406534 0.245415
vt 0.407771 0.247139
vt 0.409701 0.247758
vt 0.410730 0.250000
vt 0.375000 0.246326
vt 0.375000 0.245415
vt 0.375000 0.247106
vt 0.375000 0.247691
vt 0.389994 0.250969
vt 0.445955 0.254585
vt 0.432112 0.254585
vt 0.431510 0.253663
vt 0.445955 0.253690
vt 0.418801 0.254585
vt 0.418091 0.253662
vt 0.406534 0.254585
vt 0.406487 0.253670
vt 0.375000 0.254585
vt 0.375000 0.253674
vt 0.431506 0.252787
vt 0.445955 0.252830
vt 0.418421 0.252810
vt 0.407783 0.252864
vt 0.375000 0.252894
vt 0.431704 0.252030
vt 0.445955 0.252038
vt 0.419279 0.252118
vt 0.409701 0.252242
vt 0.375000 0.252309
vt 0.870415 0.504585
vt 0.870415 0.503690
vt 0.871337 0.503651
vt 0.871310 0.504585
vt 0.870415 0.502830
vt 0.871338 0.502784
vt 0.870415 0.502038
vt 0.871330 0.502035
vt 0.870415 0.500000
vt 0.871326 0.500000
vt 0.872213 0.503651
vt 0.872170 0.504585
vt 0.872190 0.502806
vt 0.872136 0.502118
vt 0.872106 0.500000
vt 0.872970 0.503664
vt 0.872962 0.504585
vt 0.872882 0.502861
vt 0.872758 0.502242
vt 0.872691 0.500000
vt 0.875000 0.503674
vt 0.875000 0.504585
vt 0.875000 0.502894
vt 0.875000 0.502309
vt 0.873062 0.500000
vt 0.554045 0.254585
vt 0.554045 0.253690
vt 0.568312 0.253652
vt 0.567888 0.254585
vt 0.554045 0.252830
vt 0.568334 0.252784
vt 0.554045 0.252038
vt 0.568209 0.252035
vt 0.554045 0.250000
vt 0.568139 0.250000
vt 0.581869 0.253651
vt 0.581199 0.254585
vt 0.581514 0.252806
vt 0.580683 0.252118
vt 0.580206 0.250000
vt 0.593582 0.253664
vt 0.593466 0.254585
vt 0.592228 0.252861
vt 0.590299 0.252242
vt 0.589269 0.250000
vt 0.625000 0.253674
vt 0.625000 0.254585
vt 0.625000 0.252894
vt 0.625000 0.252309
vt 0.610005 0.249031
vt 0.554045 0.245415
vt 0.567888 0.245415
vt 0.568490 0.246337
vt 0.554045 0.246310
vt 0.581199 0.245415
vt 0.581909 0.246338
vt 0.593466 0.245415
vt 0.593513 0.246330
vt 0.625000 0.245415
vt 0.625000 0.246326
vt 0.568494 0.247213
vt 0.554045 0.247170
vt 0.581579 0.247190
vt 0.592217 0.247136
vt 0.625000 0.247106
vt 0.568296 0.247970
vt 0.554045 0.247962
vt 0.580721 0.247882
vt 0.590299 0.247758
vt 0.625000 0.247691
vt 0.370415 0.745415
vt 0.371310 0.745415
vt 0.371348 0.746337
vt 0.370415 0.746310
vt 0.372170 0.745415
vt 0.372216 0.746338
vt 0.372962 0.745415
vt 0.372965 0.746330
vt 0.375000 0.745415
vt 0.375000 0.746326
vt 0.371349 0.747213
vt 0.370415 0.747170
vt 0.372194 0.747190
vt 0.372882 0.747136
vt 0.375000 0.747106
vt 0.371336 0.747970
vt 0.370415 0.747962
vt 0.372139 0.747882
vt 0.372758 0.747758
vt 0.375000 0.747691
vt 0.373163 0.751837
vt 0.372708 0.752292
vt 0.373553 0.751447
vt 0.373846 0.751154
vt 0.384996 0.750000
vt 0.445955 0.745415
vt 0.445955 0.746310
vt 0.431688 0.746348
vt 0.432112 0.745415
vt 0.445955 0.747170
vt 0.431666 0.747216
vt 0.445955 0.747962
vt 0.431791 0.747965
vt 0.445955 0.750000
vt 0.431861 0.750000
vt 0.418131 0.746349
vt 0.418801 0.745415
vt 0.418486 0.747194
vt 0.419317 0.747882
vt 0.419794 0.750000
vt 0.406418 0.746336
vt 0.406534 0.745415
vt 0.407771 0.747139
vt 0.409701 0.747758
vt 0.410730 0.750000
vt 0.445955 0.754585
vt 0.432112 0.754585
vt 0.431510 0.753663
vt 0.445955 0.753690
vt 0.418801 0.754585
vt 0.418091 0.753662
vt 0.406534 0.754585
vt 0.406487 0.753670
vt 0.431506 0.752787
vt 0.445955 0.752830
vt 0.418421 0.752810
vt 0.407783 0.752864
vt 0.431704 0.752030
vt 0.445955 0.752038
vt 0.419279 0.752118
vt 0.409701 0.752242
vt 0.629585 0.745415
vt 0.629585 0.746310
vt 0.628663 0.746348
vt 0.628690 0.745415
vt 0.629585 0.747170
vt 0.628662 0.747216
vt 0.629585 0.747962
vt 0.628670 0.747965
vt 0.627292 0.752292
vt 0.626837 0.751837
vt 0.627787 0.746349
vt 0.627830 0.745415
vt 0.627810 0.747194
vt 0.627864 0.747882
vt 0.626447 0.751447
vt 0.627030 0.746336
vt 0.627038 0.745415
vt 0.627118 0.747139
vt 0.627242 0.747758
vt 0.626154 0.751154
vt 0.625000 0.746326
vt 0.625000 0.745415
vt 0.625000 0.747106
vt 0.625000 0.747691
vt 0.615650 0.749354
vt 0.554045 0.754585
vt 0.554045 0.753690
vt 0.568312 0.753651
vt 0.567888 0.754585
vt 0.554045 0.752830
vt 0.568334 0.752784
vt 0.554045 0.752038
vt 0.568209 0.752035
vt 0.554045 0.750000
vt 0.568139 0.750000
vt 0.581869 0.753651
vt 0.581199 0.754585
vt 0.581514 0.752806
vt 0.580683 0.752118
vt 0.580206 0.750000
vt 0.593582 0.753664
vt 0.593466 0.754585
vt 0.592228 0.752861
vt 0.590299 0.752242
vt 0.589269 0.750000
vt 0.554045 0.745415
vt 0.567888 0.745415
vt 0.568490 0.746337
vt 0.554045 0.746310
vt 0.581199 0.745415
vt 0.581909 0.746338
vt 0.593466 0.745415
vt 0.593513 0.746330
vt 0.568494 0.747213
vt 0.554045 0.747170
vt 0.581579 0.747190
vt 0.592217 0.747136
vt 0.568296 0.747970
vt 0.554045 0.747962
vt 0.580721 0.747882
vt 0.590299 0.747758
vt 0.370415 0.504585
vt 0.370415 0.503690
vt 0.371337 0.503651
vt 0.371310 0.504585
vt 0.370415 0.502830
vt 0.371338 0.502784
vt 0.370415 0.502038
vt 0.371330 0.502035
vt 0.372708 0.497708
vt 0.373163 0.498163
vt 0.372213 0.503651
vt 0.372170 0.504585
vt 0.372190 0.502806
vt 0.372136 0.502118
vt 0.373553 0.498553
vt 0.372970 0.503664
vt 0.372962 0.504585
vt 0.372882 0.502861
vt 0.372758 0.502242
vt 0.373846 0.498846
vt 0.375000 0.503674
vt 0.375000 0.504585
vt 0.375000 0.502894
vt 0.375000 0.502309
vt 0.384350 0.500646
vt 0.445955 0.495415
vt 0.445955 0.496310
vt 0.431688 0.496348
vt 0.432112 0.495415
vt 0.445955 0.497170
vt 0.431666 0.497216
vt 0.445955 0.497962
vt 0.431791 0.497965
vt 0.445955 0.500000
vt 0.431861 0.500000
vt 0.418131 0.496349
vt 0.418801 0.495415
vt 0.418486 0.497194
vt 0.419317 0.497882
vt 0.419794 0.500000
vt 0.406418 0.496336
vt 0.406534 0.495415
vt 0.407771 0.497139
vt 0.409701 0.497758
vt 0.410730 0.500000
vt 0.445955 0.504585
vt 0.432112 0.504585
vt 0.431510 0.503663
vt 0.445955 0.503690
vt 0.418801 0.504585
vt 0.418091 0.503662
vt 0.406534 0.504585
vt 0.406487 0.503670
vt 0.431506 0.502787
vt 0.445955 0.502830
vt 0.418421 0.502810
vt 0.407783 0.502864
vt 0.431704 0.502030
vt 0.445955 0.502038
vt 0.419279 0.502118
vt 0.409701 0.502242
vt 0.629585 0.504585
vt 0.628690 0.504585
vt 0.628652 0.503663
vt 0.629585 0.503690
vt 0.627830 0.504585
vt 0.627784 0.503662
vt 0.627038 0.504585
vt 0.627035 0.503670
vt 0.625000 0.504585
vt 0.625000 0.503674
vt 0.628651 0.502787
vt 0.629585 0.502830
vt 0.627806 0.502810
vt 0.627118 0.502864
vt 0.625000 0.502894
vt 0.628664 0.502030
vt 0.629585 0.502038
vt 0.627861 0.502118
vt 0.627242 0.502242
vt 0.625000 0.502309
vt 0.626837 0.498163
vt 0.627292 0.497708
vt 0.626447 0.498553
vt 0.626154 0.498846
vt 0.615004 0.500000
vt 0.554045 0.504585
vt 0.554045 0.503690
vt 0.568312 0.503651
vt 0.567888 0.504585
vt 0.554045 0.502830
vt 0.568334 0.502784
vt 0.554045 0.502038
vt 0.568209 0.502035
vt 0.554045 0.500000
vt 0.568139 0.500000
vt 0.581869 0.503651
vt 0.581199 0.504585
vt 0.581514 0.502806
vt 0.580683 0.502118
vt 0.580206 0.500000
vt 0.593582 0.503664
vt 0.593466 0.504585
vt 0.592228 0.502861
vt 0.590299 0.502242
vt 0.589269 0.500000
vt 0.554045 0.495415
vt 0.567888 0.495415
vt 0.568490 0.496337
vt 0.554045 0.496310
vt 0.581199 0.495415
vt 0.581909 0.496338
vt 0.593466 0.495415
vt 0.593513 0.496330
vt 0.568494 0.497213
vt 0.554045 0.497170
vt 0.581579 0.497190
vt 0.592217 0.497136
vt 0.568296 0.497970
vt 0.554045 0.497962
vt 0.580721 0.497882
vt 0.590299 0.497758
s 1
usemtl Material
f 25/34/27 28/35/30 33/36/35 32/37/34
f 28/35/30 29/38/31 34/39/36 33/36/35
f 29/38/31 30/40/32 35/41/37 34/39/36
f 30/40/32 31/42/33 36/43/38 35/41/37
f 32/37/34 33/36/35 38/44/40 37/45/39
f 33/36/35 34/39/36 39/46/41 38/44/40
f 34/39/36 35/41/37 40/47/42 39/46/41
f 35/41/37 36/43/38 41/48/43 40/47/42
f 37/45/39 38/44/40 43/49/45 42/50/44
f 38/44/40 39/46/41 44/51/46 43/49/45
f 39/46/41 40/47/42 45/52/47 44/51/46
f 40/47/42 41/48/43 46/53/48 45/52/47
f 42/50/44 43/49/45 75/54/77 70/55/72
f 43/49/45 44/51/46 80/56/82 75/54/77
f 44/51/46 45/52/47 85/57/87 80/56/82
f 45/52/47 46/53/48 47/58/49 85/57/87
f 26/59/28 48/60/50 53/61/55 52/62/54
f 48/60/50 49/63/51 54/64/56 53/61/55
f 49/63/51 50/65/52 55/66/57 54/64/56
f 50/65/52 51/67/53 56/68/58 55/66/57
f 52/62/54 53/61/55 58/69/60 57/70/59
f 53/61/55 54/64/56 59/71/61 58/69/60
f 54/64/56 55/66/57 60/72/62 59/71/61
f 55/66/57 56/68/58 61/73/63 60/72/62
f 57/70/59 58/69/60 63/74/65 62/75/64
f 58/69/60 59/71/61 64/76/66 63/74/65
f 59/71/61 60/72/62 65/77/67 64/76/66
f 60/72/62 61/73/63 66/78/68 65/77/67
f 62/75/64 63/74/65 36/79/38 31/80/33
f 63/74/65 64/76/66 41/81/43 36/79/38
f 64/76/66 65/77/67 46/82/48 41/81/43
f 65/77/67 66/78/68 47/83/49 46/82/48
f 27/84/29 67/85/69 72/86/74 71/87/73
f 67/85/69 68/88/70 73/89/75 72/86/74
f 68/88/70 69/90/71 74/91/76 73/89/75
f 69/90/71 70/92/72 75/93/77 74/91/76
f 71/87/73 72/86/74 77/94/79 76/95/78
f 72/86/74 73/89/75 78/96/80 77/94/79
f 73/89/75 74/91/76 79/97/81 78/96/80
f 74/91/76 75/93/77 80/98/82 79/97/81
f 76/95/78 77/94/79 82/99/84 81/100/83
f 77/94/79 78/96/80 83/101/85 82/99/84
f 78/96/80 79/97/81 84/102/86 83/101/85
f 79/97/81 80/98/82 85/103/87 84/102/86
f 81/100/83 82/99/84 56/104/58 51/105/53
f 82/99/84 83/101/85 61/106/63 56/104/58
f 83/101/85 84/102/86 66/107/68 61/106/63
f 84/102/86 85/103/87 47/108/49 66/107/68
f 86/109/88 89/110/91 94/111/96 93/112/95
f 89/110/91 90/113/92 95/114/97 94/111/96
f 90/113/92 91/115/93 96/116/98 95/114/97
f 91/115/93 92/117/94 97/118/99 96/116/98
f 93/112/95 94/111/96 99/119/101 98/120/100
f 94/111/96 95/114/97 100/121/102 99/119/101
f 95/114/97 96/116/98 101/122/103 100/121/102
f 96/116/98 97/118/99 102/123/104 101/122/103
f 98/120/100 99/119/101 104/124/106 103/125/105
f 99/119/101 100/121/102 105/126/107 104/124/106
f 100/121/102 101/122/103 106/127/108 105/126/107
f 101/122/103 102/123/104 107/128/109 106/127/108
f 103/125/105 104/124/106 136/129/138 131/130/133
f 104/124/106 105/126/107 141/131/143 136/129/138
f 105/126/107 106/127/108 146/132/148 141/131/143
f 106/127/108 107/128/109 108/133/110 146/132/148
f 87/134/89 109/135/111 114/136/116 113/137/115
f 109/135/111 110/138/112 115/139/117 114/136/116
f 110/138/112 111/140/113 116/141/118 115/139/117
f 111/140/113 112/142/114 117/143/119 116/141/118
f 113/137/115 114/136/116 119/144/121 118/145/120
f 114/136/116 115/139/117 120/146/122 119/144/121
f 115/139/117 116/141/118 121/147/123 120/146/122
f 116/141/118 117/143/119 122/148/124 121/147/123
f 118/145/120 119/144/121 124/149/126 123/150/125
f 119/144/121 120/146/122 125/151/127 124/149/126
f 120/146/122 121/147/123 126/152/128 125/151/127
f 121/147/123 122/148/124 127/153/129 126/152/128
f 123/150/125 124/149/126 97/154/99 92/155/94
f 124/149/126 125/151/127 102/156/104 97/154/99
f 125/151/127 126/152/128 107/157/109 102/156/104
f 126/152/128 127/153/129 108/158/110 107/157/109
f 88/159/90 128/160/130 133/161/135 132/162/134
f 128/160/130 129/163/131 134/164/136 133/161/135
f 129/163/131 130/165/132 135/166/137 134/164/136
f 130/165/132 131/167/133 136/168/138 135/166/137
f 132/162/134 133/161/135 138/169/140 137/170/139
f 133/161/135 134/164/136 139/171/141 138/169/140
f 134/164/136 135/166/137 140/172/142 139/171/141
f 135/166/137 136/168/138 141/173/143 140/172/142
f 137/170/139 138/169/140 143/174/145 142/175/144
f 138/169/140 139/171/141 144/176/146 143/174/145
f 139/171/141 140/172/142 145/177/147 144/176/146
f 140/172/142 141/173/143 146/178/148 145/177/147
f 142/175/144 143/174/145 117/179/119 112/180/114
f 143/174/145 144/176/146 122/181/124 117/179/119
f 144/176/146 145/177/147 127/182/129 122/181/124
f 145/177/147 146/178/148 108/183/110 127/182/129
f 147/184/149 150/185/152 155/186/157 154/187/156
f 150/185/152 151/188/153 156/189/158 155/186/157
f 151/188/153 152/190/154 157/191/159 156/189/158
f 152/190/154 153/192/155 158/193/160 157/191/159
f 154/187/156 155/186/157 160/194/162 159/195/161
f 155/186/157 156/189/158 161/196/163 160/194/162
f 156/189/158 157/191/159 162/197/164 161/196/163
f 157/191/159 158/193/160 163/198/165 162/197/164
f 159/195/161 160/194/162 165/199/167 164/200/166
f 160/194/162 161/196/163 166/201/168 165/199/167
f 161/196/163 162/197/164 167/202/169 166/201/168
f 162/197/164 163/198/165 168/203/170 167/202/169
f 164/200/166 165/199/167 197/204/199 192/205/194
f 165/199/167 166/201/168 202/206/204 197/204/199
f 166/201/168 167/202/169 207/207/209 202/206/204
f 167/202/169 168/203/170 169/208/171 207/207/209
f 148/209/150 170/210/172 175/211/177 174/212/176
f 170/210/172 171/213/173 176/214/178 175/211/177
f 171/213/173 172/215/174 177/216/179 176/214/178
f 172/215/174 173/217/175 178/218/180 177/216/179
f 174/212/176 175/211/177 180/219/182 179/220/181
f 175/211/177 176/214/178 181/221/183 180/219/182
f 176/214/178 177/216/179 182/222/184 181/221/183
f 177/216/179 178/218/180 183/223/185 182/222/184
f 179/220/181 180/219/182 185/224/187 184/225/186
f 180/219/182 181/221/183 186/226/188 185/224/187
f 181/221/183 182/222/184 187/227/189 186/226/188
f 182/222/184 183/223/185 188/228/190 187/227/189
f 184/225/186 185/224/187 158/229/160 153/230/155
f 185/224/187 186/226/188 163/231/165 158/229/160
f 186/226/188 187/227/189 168/232/170 163/231/165
f 187/227/189 188/228/190 169/233/171 168/232/170
f 149/234/151 189/235/191 194/236/196 193/237/195
f 189/235/191 190/238/192 195/239/197 194/236/196
f 190/238/192 191/240/193 196/241/198 195/239/197
f 191/240/193 192/242/194 197/243/199 196/241/198
f 193/237/195 194/236/196 199/244/201 198/245/200
f 194/236/196 195/239/197 200/246/202 199/244/201
f 195/239/197 196/241/198 201/247/203 200/246/202
f 196/241/198 197/243/199 202/248/204 201/247/203
f 198/245/200 199/244/201 204/249/206 203/250/205
f 199/244/201 200/246/202 205/251/207 204/249/206
f 200/246/202 201/247/203 206/252/208 205/251/207
f 201/247/203 202/248/204 207/253/209 206/252/208
f 203/250/205 204/249/206 178/218/180 173/217/175
f 204/249/206 205/251/207 183/223/185 178/218/180
f 205/251/207 206/252/208 188/228/190 183/223/185
f 206/252/208 207/253/209 169/233/171 188/228/190
f 208/254/210 211/255/213 216/256/218 215/257/217
f 211/255/213 212/258/214 217/259/219 216/256/218
f 212/258/214 213/260/215 218/261/220 217/259/219
f 213/260/215 214/262/216 219/263/221 218/261/220
f 215/257/217 216/256/218 221/264/223 220/265/222
f 216/256/218 217/259/219 222/266/224 221/264/223
f 217/259/219 218/261/220 223/267/225 222/266/224
f 218/261/220 219/263/221 224/268/226 223/267/225
f 220/265/222 221/264/223 226/269/228 225/270/227
f 221/264/223 222/266/224 227/271/229 226/269/228
f 222/266/224 223/267/225 228/272/230 227/271/229
f 223/267/225 224/268/226 229/273/231 228/272/230
f 225/270/227 226/269/228 258/274/260 253/275/255
f 226/269/228 227/271/229 263/276/265 258/274/260
f 227/271/229 228/272/230 268/277/270 263/276/265
f 228/272/230 229/273/231 230/278/232 268/277/270
f 209/279/211 231/280/233 236/281/238 235/282/237
f 231/280/233 232/283/234 237/284/239 236/281/238
f 232/283/234 233/285/235 238/286/240 237/284/239
f 233/285/235 234/287/236 239/288/241 238/286/240
f 235/282/237 236/281/238 241/289/243 240/290/242
f 236/281/238 237/284/239 242/291/244 241/289/243
f 237/284/239 238/286/240 243/292/245 242/291/244
f 238/286/240 239/288/241 244/293/246 243/292/245
f 240/290/242 241/289/243 246/294/248 245/295/247
f 241/289/243 242/291/244 247/296/249 246/294/248
f 242/291/244 243/292/245 248/297/250 247/296/249
f 243/292/245 244/293/246 249/298/251 248/297/250
f 245/295/247 246/294/248 219/299/221 214/300/216
f 246/294/248 247/296/249 224/301/226 219/299/221
f 247/296/249 248/297/250 229/302/231 224/301/226
f 248/297/250 249/298/251 230/303/232 229/302/231
f 210/304/212 250/305/252 255/306/257 254/307/256
f 250/305/252 251/308/253 256/309/258 255/306/257
f 251/308/253 252/310/254 257/311/259 256/309/258
f 252/310/254 253/312/255 258/313/260 257/311/259
f 254/307/256 255/306/257 260/314/262 259/315/261
f 255/306/257 256/309/258 261/316/263 260/314/262
f 256/309/258 257/311/259 262/317/264 261/316/263
f 257/311/259 258/313/260 263/318/265 262/317/264
f 259/315/261 260/314/262 265/319/267 264/320/266
f 260/314/262 261/316/263 266/321/268 265/319/267
f 261/316/263 262/317/264 267/322/269 266/321/268
f 262/317/264 263/318/265 268/323/270 267/322/269
f 264/320/266 265/319/267 239/288/241 234/287/236
f 265/319/267 266/321/268 244/293/246 239/288/241
f 266/321/268 267/322/269 249/298/251 244/293/246
f 267/322/269 268/323/270 230/303/232 249/298/251
f 269/324/271 272/325/274 277/326/279 276/327/278
f 272/325/274 273/328/275 278/329/280 277/326/279
f 273/328/275 274/330/276 279/331/281 278/329/280
f 274/330/276 275/332/277 280/333/282 279/331/281
f 276/327/278 277/326/279 282/334/284 281/335/283
f 277/326/279 278/329/280 283/336/285 282/334/284
f 278/329/280 279/331/281 284/337/286 283/336/285
f 279/331/281 280/333/282 285/338/287 284/337/286
f 281/335/283 282/334/284 287/339/289 286/340/288
f 282/334/284 283/336/285 288/341/290 287/339/289
f 283/336/285 284/337/286 289/342/291 288/341/290
f 284/337/286 285/338/287 290/343/292 289/342/291
f 286/340/288 287/339/289 319/344/321 314/345/316
f 287/339/289 288/341/290 324/346/326 319/344/321
f 288/341/290 289/342/291 329/347/331 324/346/326
f 289/342/291 290/343/292 291/348/293 329/347/331
f 270/349/272 292/350/294 297/351/299 296/352/298
f 292/350/294 293/353/295 298/354/300 297/351/299
f 293/353/295 294/355/296 299/356/301 298/354/300
f 294/355/296 295/357/297 300/358/302 299/356/301
f 296/352/298 297/351/299 302/359/304 301/360/303
f 297/351/299 298/354/300 303/361/305 302/359/304
f 298/354/300 299/356/301 304/362/306 303/361/305
f 299/356/301 300/358/302 305/363/307 304/362/306
f 301/360/303 302/359/304 307/364/309 306/365/308
f 302/359/304 303/361/305 308/366/310 307/364/309
f 303/361/305 304/362/306 309/367/311 308/366/310
f 304/362/306 305/363/307 310/368/312 309/367/311
f 306/365/308 307/364/309 280/333/282 275/332/277
f 307/364/309 308/366/310 285/338/287 280/333/282
f 308/366/310 309/367/311 290/343/292 285/338/287
f 309/367/311 310/368/312 291/348/293 290/343/292
f 271/369/273 311/370/313 316/371/318 315/372/317
f 311/370/313 312/373/314 317/374/319 316/371/318
f 312/373/314 313/375/315 318/376/320 317/374/319
f 313/375/315 314/345/316 319/344/321 318/376/320
f 315/372/317 316/371/318 321/377/323 320/378/322
f 316/371/318 317/374/319 322/379/324 321/377/323
f 317/374/319 318/376/320 323/380/325 322/379/324
f 318/376/320 319/344/321 324/346/326 323/380/325
f 320/378/322 321/377/323 326/381/328 325/382/327
f 321/377/323 322/379/324 327/383/329 326/381/328
f 322/379/324 323/380/325 328/384/330 327/383/329
f 323/380/325 324/346/326 329/347/331 328/384/330
f 325/382/327 326/381/328 300/358/302 295/357/297
f 326/381/328 327/383/329 305/363/307 300/358/302
f 327/383/329 328/384/330 310/368/312 305/363/307
f 328/384/330 329/347/331 291/348/293 310/368/312
f 330/385/332 333/386/335 338/387/340 337/388/339
f 333/386/335 334/389/336 339/390/341 338/387/340
f 334/389/336 335/391/337 340/392/342 339/390/341
f 335/391/337 336/393/338 341/394/343 340/392/342
f 337/388/339 338/387/340 343/395/345 342/396/344
f 338/387/340 339/390/341 344/397/346 343/395/345
f 339/390/341 340/392/342 345/398/347 344/397/346
f 340/392/342 341/394/343 346/399/348 345/398/347
f 342/396/344 343/395/345 348/400/350 347/401/349
f 343/395/345 344/397/346 349/402/351 348/400/350
f 344/397/346 345/398/347 350/403/352 349/402/351
f 345/398/347 346/399/348 351/404/353 350/403/352
f 347/401/349 348/400/350 380/405/382 375/406/377
f 348/400/350 349/402/351 385/407/387 380/405/382
f 349/402/351 350/403/352 390/408/392 385/407/387
f 350/403/352 351/404/353 352/409/354 390/408/392
f 331/410/333 353/411/355 358/412/360 357/413/359
f 353/411/355 354/414/356 359/415/361 358/412/360
f 354/414/356 355/416/357 360/417/362 359/415/361
f 355/416/357 356/418/358 361/419/363 360/417/362
f 357/413/359 358/412/360 363/420/365 362/421/364
f 358/412/360 359/415/361 364/422/366 363/420/365
f 359/415/361 360/417/362 365/423/367 364/422/366
f 360/417/362 361/419/363 366/424/368 365/423/367
f 362/421/364 363/420/365 368/425/370 367/426/369
f 363/420/365 364/422/366 369/427/371 368/425/370
f 364/422/366 365/423/367 370/428/372 369/427/371
f 365/423/367 366/424/368 371/429/373 370/428/372
f 367/426/369 368/425/370 341/394/343 336/393/338
f 368/425/370 369/427/371 346/399/348 341/394/343
f 369/427/371 370/428/372 351/404/353 346/399/348
f 370/428/372 371/429/373 352/409/354 351/404/353
f 332/430/334 372/431/374 377/432/379 376/433/378
f 372/431/374 373/434/375 378/435/380 377/432/379
f 373/434/375 374/436/376 379/437/381 378/435/380
f 374/436/376 375/406/377 380/405/382 379/437/381
f 376/433/378 377/432/379 382/438/384 381/439/383
f 377/432/379 378/435/380 383/440/385 382/438/384
f 378/435/380 379/437/381 384/441/386 383/440/385
f 379/437/381 380/405/382 385/407/387 384/441/386
f 381/439/383 382/438/384 387/442/389 386/443/388
f 382/438/384 383/440/385 388/444/390 387/442/389
f 383/440/385 384/441/386 389/445/391 388/444/390
f 384/441/386 385/407/387 390/408/392 389/445/391
f 386/443/388 387/442/389 361/419/363 356/418/358
f 387/442/389 388/444/390 366/424/368 361/419/363
f 388/444/390 389/445/391 371/429/373 366/424/368
f 389/445/391 390/408/392 352/409/354 371/429/373
f 391/446/393 394/447/396 399/448/401 398/449/400
f 394/447/396 395/450/397 400/451/402 399/448/401
f 395/450/397 396/452/398 401/453/403 400/451/402
f 396/452/398 397/454/399 402/455/404 401/453/403
f 398/449/400 399/448/401 404/456/406 403/457/405
f 399/448/401 400/451/402 405/458/407 404/456/406
f 400/451/402 401/453/403 406/459/408 405/458/407
f 401/453/403 402/455/404 407/460/409 406/459/408
f 403/457/405 404/456/406 409/461/411 408/462/410
f 404/456/406 405/458/407 410/463/412 409/461/411
f 405/458/407 406/459/408 411/464/413 410/463/412
f 406/459/408 407/460/409 412/465/414 411/464/413
f 408/462/410 409/461/411 441/466/443 436/467/438
f 409/461/411 410/463/412 446/468/448 441/466/443
f 410/463/412 411/464/413 451/469/453 446/468/448
f 411/464/413 412/465/414 413/470/415 451/469/453
f 392/471/394 414/472/416 419/473/421 418/474/420
f 414/472/416 415/475/417 420/476/422 419/473/421
f 415/475/417 416/477/418 421/478/423 420/476/422
f 416/477/418 417/479/419 422/480/424 421/478/423
f 418/474/420 419/473/421 424/481/426 423/482/425
f 419/473/421 420/476/422 425/483/427 424/481/426
f 420/476/422 421/478/423 426/484/428 425/483/427
f 421/478/423 422/480/424 427/485/429 426/484/428
f 423/482/425 424/481/426 429/486/431 428/487/430
f 424/481/426 425/483/427 430/488/432 429/486/431
f 425/483/427 426/484/428 431/489/433 430/488/432
f 426/484/428 427/485/429 432/490/434 431/489/433
f 428/487/430 429/486/431 402/455/404 397/454/399
f 429/486/431 430/488/432 407/460/409 402/455/404
f 430/488/432 431/489/433 412/465/414 407/460/409
f 431/489/433 432/490/434 413/470/415 412/465/414
f 393/491/395 433/492/435 438/493/440 437/494/439
f 433/492/435 434/495/436 439/496/441 438/493/440
f 434/495/436 435/497/437 440/498/442 439/496/441
f 435/497/437 436/467/438 441/466/443 440/498/442
f 437/494/439 438/493/440 443/499/445 442/500/444
f 438/493/440 439/496/441 444/501/446 443/499/445
f 439/496/441 440/498/442 445/502/447 444/501/446
f 440/498/442 441/466/443 446/468/448 445/502/447
f 442/500/444 443/499/445 448/503/450 447/504/449
f 443/499/445 444/501/446 449/505/451 448/503/450
f 444/501/446 445/502/447 450/506/452 449/505/451
f 445/502/447 446/468/448 451/469/453 450/506/452
f 447/504/449 448/503/450 422/480/424 417/479/419
f 448/503/450 449/505/451 427/485/429 422/480/424
f 449/505/451 450/506/452 432/490/434 427/485/429
f 450/506/452 451/469/453 413/470/415 432/490/434
f 452/507/454 455/508/457 460/509/462 459/510/461
f 455/508/457 456/511/458 461/512/463 460/509/462
f 456/511/458 457/513/459 462/514/464 461/512/463
f 457/513/459 458/515/460 463/516/465 462/514/464
f 459/510/461 460/509/462 465/517/467 464/518/466
f 460/509/462 461/512/463 466/519/468 465/517/467
f 461/512/463 462/514/464 467/520/469 466/519/468
f 462/514/464 463/516/465 468/521/470 467/520/469
f 464/518/466 465/517/467 470/522/472 469/523/471
f 465/517/467 466/519/468 471/524/473 470/522/472
f 466/519/468 467/520/469 472/525/474 471/524/473
f 467/520/469 468/521/470 473/526/475 472/525/474
f 469/523/471 470/522/472 502/527/504 497/528/499
f 470/522/472 471/524/473 507/529/509 502/527/504
f 471/524/473 472/525/474 512/530/514 507/529/509
f 472/525/474 473/526/475 474/531/476 512/530/514
f 453/532/455 475/533/477 480/534/482 479/535/481
f 475/533/477 476/536/478 481/537/483 480/534/482
f 476/536/478 477/538/479 482/539/484 481/537/483
f 477/538/479 478/540/480 483/541/485 482/539/484
f 479/535/481 480/534/482 485/542/487 484/543/486
f 480/534/482 481/537/483 486/544/488 485/542/487
f 481/537/483 482/539/484 487/545/489 486/544/488
f 482/539/484 483/541/485 488/546/490 487/545/489
f 484/543/486 485/542/487 490/547/492 489/548/491
f 485/542/487 486/544/488 491/549/493 490/547/492
f 486/544/488 487/545/489 492/550/494 491/549/493
f 487/545/489 488/546/490 493/551/495 492/550/494
f 489/548/491 490/547/492 463/516/465 458/515/460
f 490/547/492 491/549/493 468/521/470 463/516/465
f 491/549/493 492/550/494 473/526/475 468/521/470
f 492/550/494 493/551/495 474/531/476 473/526/475
f 454/552/456 494/553/496 499/554/501 498/555/500
f 494/553/496 495/556/497 500/557/502 499/554/501
f 495/556/497 496/558/498 501/559/503 500/557/502
f 496/558/498 497/528/499 502/527/504 501/559/503
f 498/555/500 499/554/501 504/560/506 503/561/505
f 499/554/501 500/557/502 505/562/507 504/560/506
f 500/557/502 501/559/503 506/563/508 505/562/507
f 501/559/503 502/527/504 507/529/509 506/563/508
f 503/561/505 504/560/506 509/564/511 508/565/510
f 504/560/506 505/562/507 510/566/512 509/564/511
f 505/562/507 506/563/508 511/567/513 510/566/512
f 506/563/508 507/529/509 512/530/514 511/567/513
f 508/565/510 509/564/511 483/541/485 478/540/480
f 509/564/511 510/566/512 488/546/490 483/541/485
f 510/566/512 511/567/513 493/551/495 488/546/490
f 511/567/513 512/530/514 474/531/476 493/551/495
f 147/184/149 25/34/27 32/37/34 150/185/152
f 150/185/152 32/37/34 37/45/39 151/188/153
f 151/188/153 37/45/39 42/50/44 152/190/154
f 152/190/154 42/50/44 70/55/72 153/192/155
f 153/230/155 70/92/72 69/90/71 184/225/186
f 184/225/186 69/90/71 68/88/70 179/220/181
f 179/220/181 68/88/70 67/85/69 174/212/176
f 174/212/176 67/85/69 27/84/29 148/209/150
f 26/59/28 86/109/88 93/112/95 48/60/50
f 48/60/50 93/112/95 98/120/100 49/63/51
f 49/63/51 98/120/100 103/125/105 50/65/52
f 50/65/52 103/125/105 131/130/133 51/67/53
f 51/105/53 131/167/133 130/165/132 81/100/83
f 81/100/83 130/165/132 129/163/131 76/95/78
f 76/95/78 129/163/131 128/160/130 71/87/73
f 71/87/73 128/160/130 88/159/90 27/84/29
f 87/134/89 208/254/210 215/257/217 109/135/111
f 109/135/111 215/257/217 220/265/222 110/138/112
f 110/138/112 220/265/222 225/270/227 111/140/113
f 111/140/113 225/270/227 253/275/255 112/142/114
f 112/180/114 253/312/255 252/310/254 142/175/144
f 142/175/144 252/310/254 251/308/253 137/170/139
f 137/170/139 251/308/253 250/305/252 132/162/134
f 132/162/134 250/305/252 210/304/212 88/159/90
f 209/279/211 149/234/151 193/237/195 231/280/233
f 231/280/233 193/237/195 198/245/200 232/283/234
f 232/283/234 198/245/200 203/250/205 233/285/235
f 233/285/235 203/250/205 173/217/175 234/287/236
f 234/287/236 173/217/175 172/215/174 264/320/266
f 264/320/266 172/215/174 171/213/173 259/315/261
f 259/315/261 171/213/173 170/210/172 254/307/256
f 254/307/256 170/210/172 148/209/150 210/304/212
f 391/446/393 147/184/149 154/187/156 394/447/396
f 394/447/396 154/187/156 159/195/161 395/450/397
f 395/450/397 159/195/161 164/200/166 396/452/398
f 396/452/398 164/200/166 192/205/194 397/454/399
f 397/454/399 192/242/194 191/240/193 428/487/430
f 428/487/430 191/240/193 190/238/192 423/482/425
f 423/482/425 190/238/192 189/235/191 418/474/420
f 418/474/420 189/235/191 149/234/151 392/471/394
f 208/254/210 452/507/454 459/510/461 211/255/213
f 211/255/213 459/510/461 464/518/466 212/258/214
f 212/258/214 464/518/466 469/523/471 213/260/215
f 213/260/215 469/523/471 497/528/499 214/262/216
f 214/300/216 497/528/499 496/558/498 245/295/247
f 245/295/247 496/558/498 495/556/497 240/290/242
f 240/290/242 495/556/497 494/553/496 235/282/237
f 235/282/237 494/553/496 454/552/456 209/279/211
f 453/532/455 393/491/395 437/494/439 475/533/477
f 475/533/477 437/494/439 442/500/444 476/536/478
f 476/536/478 442/500/444 447/504/449 477/538/479
f 477/538/479 447/504/449 417/479/419 478/540/480
f 478/540/480 417/479/419 416/477/418 508/565/510
f 508/565/510 416/477/418 415/475/417 503/561/505
f 503/561/505 415/475/417 414/472/416 498/555/500
f 498/555/500 414/472/416 392/471/394 454/552/456
f 269/324/271 391/446/393 398/449/400 272/325/274
f 272/325/274 398/449/400 403/457/405 273/328/275
f 273/328/275 403/457/405 408/462/410 274/330/276
f 274/330/276 408/462/410 436/467/438 275/332/277
f 275/332/277 436/467/438 435/497/437 306/365/308
f 306/365/308 435/497/437 434/495/436 301/360/303
f 301/360/303 434/495/436 433/492/435 296/352/298
f 296/352/298 433/492/435 393/491/395 270/349/272
f 452/507/454 330/385/332 337/388/339 455/508/457
f 455/508/457 337/388/339 342/396/344 456/511/458
f 456/511/458 342/396/344 347/401/349 457/513/459
f 457/513/459 347/401/349 375/406/377 458/515/460
f 458/515/460 375/406/377 374/436/376 489/548/491
f 489/548/491 374/436/376 373/434/375 484/543/486
f 484/543/486 373/434/375 372/431/374 479/535/481
f 479/535/481 372/431/374 332/430/334 453/532/455
f 331/410/333 271/369/273 315/372/317 353/411/355
f 353/411/355 315/372/317 320/378/322 354/414/356
f 354/414/356 320/378/322 325/382/327 355/416/357
f 355/416/357 325/382/327 295/357/297 356/418/358
f 356/418/358 295/357/297 294/355/296 386/443/388
f 386/443/388 294/355/296 293/353/295 381/439/383
f 381/439/383 293/353/295 292/350/294 376/433/378
f 376/433/378 292/350/294 270/349/272 332/430/334
f 25/34/27 269/324/271 276/327/278 28/35/30
f 28/35/30 276/327/278 281/335/283 29/38/31
f 29/38/31 281/335/283 286/340/288 30/40/32
f 30/40/32 286/340/288 314/345/316 31/42/33
f 31/80/33 314/345/316 313/375/315 62/75/64
f 62/75/64 313/375/315 312/373/314 57/70/59
f 57/70/59 312/373/314 311/370/313 52/62/54
f 52/62/54 311/370/313 271/369/273 26/59/28
f 330/385/332 87/134/89 113/137/115 333/386/335
f 333/386/335 113/137/115 118/145/120 334/389/336
f 334/389/336 118/145/120 123/150/125 335/391/337
f 335/391/337 123/150/125 92/155/94 336/393/338
f 336/393/338 92/117/94 91/115/93 367/426/369
f 367/426/369 91/115/93 90/113/92 362/421/364
f 362/421/364 90/113/92 89/110/91 357/413/359
f 357/413/359 89/110/91 86/109/88 331/410/333
f 147/184/149 391/446/393 269/324/271 25/34/27
f 27/84/29 88/159/90 210/304/212 148/209/150
f 271/369/273 331/410/333 86/109/88 26/59/28
f 452/507/454 208/254/210 87/134/89 330/385/332
f 149/234/151 209/279/211 454/552/456 392/471/394
f 393/491/395 453/532/455 332/430/334 270/349/272
o TrafficLight
v 0.000000 8.252594 -0.648219
v 0.000000 8.252594 -0.400662
v 0.068814 8.245816 -0.648219
v 0.068814 8.245816 -0.400662
v 0.134984 8.225744 -0.648219
v 0.134984 8.225744 -0.400662
v 0.195966 8.193148 -0.648219
v 0.195966 8.193148 -0.400662
v 0.249417 8.149282 -0.648219
v 0.249417 8.149282 -0.400662
v 0.293284 8.095830 -0.648219
v 0.293284 8.095830 -0.400662
v 0.325880 8.034848 -0.648219
v 0.325880 8.034848 -0.400662
v 0.345952 7.968678 -0.648219
v 0.345952 7.968678 -0.400662
v 0.352730 7.899864 -0.648219
v 0.352730 7.899864 -0.400662
v 0.345952 7.831050 -0.648219
v 0.345952 7.831050 -0.400662
v 0.325880 7.764881 -0.648219
v 0.325880 7.764881 -0.400662
v 0.293284 7.703898 -0.648219
v 0.293284 7.703898 -0.400662
v 0.249417 7.650447 -0.648219
v 0.249417 7.650447 -0.400662
v 0.195966 7.606580 -0.648219
v 0.195966 7.606580 -0.400662
v 0.134984 7.573985 -0.648219
v 0.134984 7.573985 -0.400662
v 0.068814 7.553912 -0.648219
v 0.068814 7.553912 -0.400662
v 0.000000 7.547134 -0.648219
v 0.000000 7.547134 -0.400662
v -0.068814 7.553912 -0.648219
v -0.068814 7.553912 -0.400662
v -0.134984 7.573985 -0.648219
v -0.134984 7.573985 -0.400662
v -0.195966 7.606580 -0.648219
v -0.195966 7.606580 -0.400662
v -0.249417 7.650447 -0.648219
v -0.249417 7.650447 -0.400662
v -0.293284 7.703898 -0.648219
v -0.293284 7.703898 -0.400662
v -0.325880 7.764881 -0.648219
v -0.325880 7.764881 -0.400662
v -0.345952 7.831050 -0.648219
v -0.345952 7.831050 -0.400662
v -0.352730 7.899864 -0.648219
v -0.352730 7.899864 -0.400662
v -0.345952 7.968678 -0.648219
v -0.345952 7.968678 -0.400662
v -0.325880 8.034848 -0.648219
v -0.325880 8.034848 -0.400662
v -0.293284 8.095830 -0.648219
v -0.293284 8.095830 -0.400662
v -0.249417 8.149282 -0.648219
v -0.249417 8.149282 -0.400662
v -0.195966 8.193148 -0.648219
v -0.195966 8.193148 -0.400662
v -0.134984 8.225744 -0.648219
v -0.134984 8.225744 -0.400662
v -0.068814 8.245816 -0.648219
v -0.068814 8.245816 -0.400662
vn -0.0000 1.0000 -0.0000
vn 0.1951 0.9808 -0.0000
vn 0.3827 0.9239 -0.0000
vn 0.5556 0.8315 -0.0000
vn 0.7071 0.7071 -0.0000
vn 0.8315 0.5556 -0.0000
vn 0.9239 0.3827 -0.0000
vn 0.9808 0.1951 -0.0000
vn 1.0000 -0.0000 -0.0000
vn 0.9808 -0.1951 -0.0000
vn 0.9239 -0.3827 -0.0000
vn 0.8315 -0.5556 -0.0000
vn 0.7071 -0.7071 -0.0000
vn 0.5556 -0.8315 -0.0000
vn 0.3827 -0.9239 -0.0000
vn 0.1951 -0.9808 -0.0000
vn -0.0000 -1.0000 -0.0000
vn -0.1951 -0.9808 -0.0000
vn -0.3827 -0.9239 -0.0000
vn -0.5556 -0.8315 -0.0000
vn -0.7071 -0.7071 -0.0000
vn -0.8315 -0.5556 -0.0000
vn -0.9239 -0.3827 -0.0000
vn -0.9808 -0.1951 -0.0000
vn -1.0000 -0.0000 -0.0000
vn -0.9808 0.1951 -0.0000
vn -0.9239 0.3827 -0.0000
vn -0.8315 0.5556 -0.0000
vn -0.7071 0.7071 -0.0000
vn -0.5556 0.8315 -0.0000
vn -0.3827 0.9239 -0.0000
vn -0.0000 -0.0000 1.0000
vn -0.1951 0.9808 -0.0000
vn -0.0000 -0.0000 -1.0000
vt 1.000000 0.500000
vt 1.000000 1.000000
vt 0.968750 1.000000
vt 0.968750 0.500000
vt 0.937500 1.000000
vt 0.937500 0.500000
vt 0.906250 1.000000
vt 0.906250 0.500000
vt 0.875000 1.000000
vt 0.875000 0.500000
vt 0.843750 1.000000
vt 0.843750 0.500000
vt 0.812500 1.000000
vt 0.812500 0.500000
vt 0.781250 1.000000
vt 0.781250 0.500000
vt 0.750000 1.000000
vt 0.750000 0.500000
vt 0.718750 1.000000
vt 0.718750 0.500000
vt 0.687500 1.000000
vt 0.687500 0.500000
vt 0.656250 1.000000
vt 0.656250 0.500000
vt 0.625000 1.000000
vt 0.625000 0.500000
vt 0.593750 1.000000
vt 0.593750 0.500000
vt 0.562500 1.000000
vt 0.562500 0.500000
vt 0.531250 1.000000
vt 0.531250 0.500000
vt 0.500000 1.000000
vt 0.500000 0.500000
vt 0.468750 1.000000
vt 0.468750 0.500000
vt 0.437500 1.000000
vt 0.437500 0.500000
vt 0.406250 1.000000
vt 0.406250 0.500000
vt 0.375000 1.000000
vt 0.375000 0.500000
vt 0.343750 1.000000
vt 0.343750 0.500000
vt 0.312500 1.000000
vt 0.312500 0.500000
vt 0.281250 1.000000
vt 0.281250 0.500000
vt 0.250000 1.000000
vt 0.250000 0.500000
vt 0.218750 1.000000
vt 0.218750 0.500000
vt 0.187500 1.000000
vt 0.187500 0.500000
vt 0.156250 1.000000
vt 0.156250 0.500000
vt 0.125000 1.000000
vt 0.125000 0.500000
vt 0.093750 1.000000
vt 0.093750 0.500000
vt 0.062500 1.000000
vt 0.062500 0.500000
vt 0.296822 0.485388
vt 0.250000 0.490000
vt 0.203178 0.485388
vt 0.158156 0.471731
vt 0.116663 0.449553
vt 0.080294 0.419706
vt 0.050447 0.383337
vt 0.028269 0.341844
vt 0.014612 0.296822
vt 0.010000 0.250000
vt 0.014612 0.203178
vt 0.028269 0.158156
vt 0.050447 0.116663
vt 0.080294 0.080294
vt 0.116663 0.050447
vt 0.158156 0.028269
vt 0.203178 0.014612
vt 0.250000 0.010000
vt 0.296822 0.014612
vt 0.341844 0.028269
vt 0.383337 0.050447
vt 0.419706 0.080294
vt 0.449553 0.116663
vt 0.471731 0.158156
vt 0.485388 0.203178
vt 0.490000 0.250000
vt 0.485388 0.296822
vt 0.471731 0.341844
vt 0.449553 0.383337
vt 0.419706 0.419706
vt 0.383337 0.449553
vt 0.341844 0.471731
vt 0.031250 1.000000
vt 0.031250 0.500000
vt 0.000000 1.000000
vt 0.000000 0.500000
vt 0.750000 0.490000
vt 0.796822 0.485388
vt 0.841844 0.471731
vt 0.883337 0.449553
vt 0.919706 0.419706
vt 0.949553 0.383337
vt 0.971731 0.341844
vt 0.985388 0.296822
vt 0.990000 0.250000
vt 0.985388 0.203178
vt 0.971731 0.158156
vt 0.949553 0.116663
vt 0.919706 0.080294
vt 0.883337 0.050447
vt 0.841844 0.028269
vt 0.796822 0.014612
vt 0.750000 0.010000
vt 0.703178 0.014612
vt 0.658156 0.028269
vt 0.616663 0.050447
vt 0.580294 0.080294
vt 0.550447 0.116663
vt 0.528269 0.158156
vt 0.514612 0.203178
vt 0.510000 0.250000
vt 0.514612 0.296822
vt 0.528269 0.341844
vt 0.550447 0.383337
vt 0.580294 0.419706
vt 0.616663 0.449553
vt 0.658156 0.471731
vt 0.703178 0.485388
s 1
usemtl Material.001
f 513/568/515 514/569/515 516/570/516 515/571/516
f 515/571/516 516/570/516 518/572/517 517/573/517
f 517/573/517 518/572/517 520/574/518 519/575/518
f 519/575/518 520/574/518 522/576/519 521/577/519
f 521/577/519 522/576/519 524/578/520 523/579/520
f 523/579/520 524/578/520 526/580/521 525/581/521
f 525/581/521 526/580/521 528/582/522 527/583/522
f 527/583/522 528/582/522 530/584/523 529/585/523
f 529/585/523 530/584/523 532/586/524 531/587/524
f 531/587/524 532/586/524 534/588/525 533/589/525
f 533/589/525 534/588/525 536/590/526 535/591/526
f 535/591/526 536/590/526 538/592/527 537/593/527
f 537/593/527 538/592/527 540/594/528 539/595/528
f 539/595/528 540/594/528 542/596/529 541/597/529
f 541/597/529 542/596/529 544/598/530 543/599/530
f 543/599/530 544/598/530 546/600/531 545/601/531
f 545/601/531 546/600/531 548/602/532 547/603/532
f 547/603/532 548/602/532 550/604/533 549/605/533
f 549/605/533 550/604/533 552/606/534 551/607/534
f 551/607/534 552/606/534 554/608/535 553/609/535
f 553/609/535 554/608/535 556/610/536 555/611/536
f 555/611/536 556/610/536 558/612/537 557/613/537
f 557/613/537 558/612/537 560/614/538 559/615/538
f 559/615/538 560/614/538 562/616/539 561/617/539
f 561/617/539 562/616/539 564/618/540 563/619/540
f 563/619/540 564/618/540 566/620/541 565/621/541
f 565/621/541 566/620/541 568/622/542 567/623/542
f 567/623/542 568/622/542 570/624/543 569/625/543
f 569/625/543 570/624/543 572/626/544 571/627/544
f 571/627/544 572/626/544 574/628/545 573/629/545
f 516/630/546 514/631/546 576/632/546 574/633/546 572/634/546 570/635/546 568/636/546 566/637/546 564/638/546 562/639/546 560/640/546 558/641/546 556/642/546 554/643/546 552/644/546 550/645/546 548/646/546 546/647/546 544/648/546 542/649/546 540/650/546 538/651/546 536/652/546 534/653/546 532/654/546 530/655/546 528/656/546 526/657/546 524/658/546 522/659/546 520/660/546 518/661/546
f 573/629/545 574/628/545 576/662/547 575/663/547
f 575/663/547 576/662/547 514/664/515 513/665/515
f 513/666/548 515/667/548 517/668/548 519/669/548 521/670/548 523/671/548 525/672/548 527/673/548 529/674/548 531/675/548 533/676/548 535/677/548 537/678/548 539/679/548 541/680/548 543/681/548 545/682/548 547/683/548 549/684/548 551/685/548 553/686/548 555/687/548 557/688/548 559/689/548 561/690/548 563/691/548 565/692/548 567/693/548 569/694/548 571/695/548 573/696/548 575/697/548
o TrafficLight.001
v 0.000000 7.458952 -0.648219
v 0.068814 7.452175 -0.648219
v 0.000000 7.458952 -0.400662
v -0.068814 7.452175 -0.648219
v -0.134984 7.432102 -0.648219
v -0.068814 7.452175 -0.400662
v -0.134984 7.432102 -0.400662
v -0.195966 7.399507 -0.400662
v -0.249417 7.355640 -0.400662
v -0.195966 7.399507 -0.648219
v -0.249417 7.355640 -0.648219
v -0.293284 7.302189 -0.648219
v -0.325880 7.241207 -0.648219
v -0.293284 7.302189 -0.400662
v -0.325880 7.241207 -0.400662
v -0.345952 7.175037 -0.400662
v -0.352730 7.106223 -0.400662
v -0.345952 7.175037 -0.648219
v -0.352730 7.106223 -0.648219
v -0.345952 7.037409 -0.648219
v -0.325880 6.971239 -0.648219
v -0.345952 7.037409 -0.400662
v -0.325880 6.971239 -0.400662
v -0.293284 6.910257 -0.400662
v -0.249417 6.856805 -0.400662
v -0.293284 6.910257 -0.648219
v -0.249417 6.856805 -0.648219
v -0.195966 6.812939 -0.648219
v -0.134984 6.780343 -0.648219
v -0.195966 6.812939 -0.400662
v -0.134984 6.780343 -0.400662
v -0.068814 6.760271 -0.400662
v 0.000000 6.753493 -0.400662
v -0.068814 6.760271 -0.648219
v 0.000000 6.753493 -0.648219
v 0.068814 6.760271 -0.648219
v 0.134984 6.780343 -0.648219
v 0.068814 6.760271 -0.400662
v 0.134984 6.780343 -0.400662
v 0.195966 6.812939 -0.400662
v 0.249417 6.856805 -0.400662
v 0.195966 6.812939 -0.648219
v 0.249417 6.856805 -0.648219
v 0.293284 6.910257 -0.648219
v 0.325880 6.971239 -0.648219
v 0.293284 6.910257 -0.400662
v 0.325880 6.971239 -0.400662
v 0.345952 7.037409 -0.400662
v 0.352730 7.106223 -0.400662
v 0.345952 7.037409 -0.648219
v 0.352730 7.106223 -0.648219
v 0.345952 7.175037 -0.648219
v 0.325880 7.241207 -0.648219
v 0.345952 7.175037 -0.400662
v 0.325880 7.241207 -0.400662
v 0.293284 7.302189 -0.400662
v 0.249417 7.355640 -0.400662
v 0.293284 7.302189 -0.648219
v 0.249417 7.355640 -0.648219
v 0.195966 7.399507 -0.648219
v 0.134984 7.432102 -0.648219
v 0.195966 7.399507 -0.400662
v 0.134984 7.432102 -0.400662
v 0.068814 7.452175 -0.400662
vn -0.0000 -0.0000 -1.0000
vn -0.0000 1.0000 -0.0000
vn 0.1951 0.9808 -0.0000
vn -0.1951 0.9808 -0.0000
vn -0.3827 0.9239 -0.0000
vn -0.0000 -0.0000 1.0000
vn -0.5556 0.8315 -0.0000
vn -0.7071 0.7071 -0.0000
vn -0.8315 0.5556 -0.0000
vn -0.9239 0.3827 -0.0000
vn -0.9808 0.1951 -0.0000
vn -1.0000 -0.0000 -0.0000
vn -0.9808 -0.1951 -0.0000
vn -0.9239 -0.3827 -0.0000
vn -0.8315 -0.5556 -0.0000
vn -0.7071 -0.7071 -0.0000
vn -0.5556 -0.8315 -0.0000
vn -0.3827 -0.9239 -0.0000
vn -0.1951 -0.9808 -0.0000
vn -0.0000 -1.0000 -0.0000
vn 0.1951 -0.9808 -0.0000
vn 0.3827 -0.9239 -0.0000
vn 0.5556 -0.8315 -0.0000
vn 0.7071 -0.7071 -0.0000
vn 0.8315 -0.5556 -0.0000
vn 0.9239 -0.3827 -0.0000
vn 0.9808 -0.1951 -0.0000
vn 1.0000 -0.0000 -0.0000
vn 0.9808 0.1951 -0.0000
vn 0.9239 0.3827 -0.0000
vn 0.8315 0.5556 -0.0000
vn 0.7071 0.7071 -0.0000
vn 0.5556 0.8315 -0.0000
vn 0.3827 0.9239 -0.0000
vt 0.750000 0.490000
vt 0.796822 0.485388
vt 0.841844 0.471731
vt 0.883337 0.449553
vt 0.919706 0.419706
vt 0.949553 0.383337
vt 0.971731 0.341844
vt 0.985388 0.296822
vt 0.990000 0.250000
vt 0.985388 0.203178
vt 0.971731 0.158156
vt 0.949553 0.116663
vt 0.919706 0.080294
vt 0.883337 0.050447
vt 0.841844 0.028269
vt 0.796822 0.014612
vt 0.750000 0.010000
vt 0.703178 0.014612
vt 0.658156 0.028269
vt 0.616663 0.050447
vt 0.580294 0.080294
vt 0.550447 0.116663
vt 0.528269 0.158156
vt 0.514612 0.203178
vt 0.510000 0.250000
vt 0.514612 0.296822
vt 0.528269 0.341844
vt 0.550447 0.383337
vt 0.580294 0.419706
vt 0.616663 0.449553
vt 0.658156 0.471731
vt 0.703178 0.485388
vt 1.000000 0.500000
vt 1.000000 1.000000
vt 0.968750 1.000000
vt 0.968750 0.500000
vt 0.031250 0.500000
vt 0.031250 1.000000
vt 0.000000 1.000000
vt 0.000000 0.500000
vt 0.062500 0.500000
vt 0.062500 1.000000
vt 0.296822 0.485388
vt 0.250000 0.490000
vt 0.203178 0.485388
vt 0.158156 0.471731
vt 0.116663 0.449553
vt 0.080294 0.419706
vt 0.050447 0.383337
vt 0.028269 0.341844
vt 0.014612 0.296822
vt 0.010000 0.250000
vt 0.014612 0.203178
vt 0.028269 0.158156
vt 0.050447 0.116663
vt 0.080294 0.080294
vt 0.116663 0.050447
vt 0.158156 0.028269
vt 0.203178 0.014612
vt 0.250000 0.010000
vt 0.296822 0.014612
vt 0.341844 0.028269
vt 0.383337 0.050447
vt 0.419706 0.080294
vt 0.449553 0.116663
vt 0.471731 0.158156
vt 0.485388 0.203178
vt 0.490000 0.250000
vt 0.485388 0.296822
vt 0.471731 0.341844
vt 0.449553 0.383337
vt 0.419706 0.419706
vt 0.383337 0.449553
vt 0.341844 0.471731
vt 0.093750 0.500000
vt 0.093750 1.000000
vt 0.125000 0.500000
vt 0.125000 1.000000
vt 0.156250 0.500000
vt 0.156250 1.000000
vt 0.187500 0.500000
vt 0.187500 1.000000
vt 0.218750 0.500000
vt 0.218750 1.000000
vt 0.250000 0.500000
vt 0.250000 1.000000
vt 0.281250 0.500000
vt 0.281250 1.000000
vt 0.312500 0.500000
vt 0.312500 1.000000
vt 0.343750 0.500000
vt 0.343750 1.000000
vt 0.375000 0.500000
vt 0.375000 1.000000
vt 0.406250 0.500000
vt 0.406250 1.000000
vt 0.437500 0.500000
vt 0.437500 1.000000
vt 0.468750 0.500000
vt 0.468750 1.000000
vt 0.500000 0.500000
vt 0.500000 1.000000
vt 0.531250 0.500000
vt 0.531250 1.000000
vt 0.562500 0.500000
vt 0.562500 1.000000
vt 0.593750 0.500000
vt 0.593750 1.000000
vt 0.625000 0.500000
vt 0.625000 1.000000
vt 0.656250 0.500000
vt 0.656250 1.000000
vt 0.687500 0.500000
vt 0.687500 1.000000
vt 0.718750 0.500000
vt 0.718750 1.000000
vt 0.750000 0.500000
vt 0.750000 1.000000
vt 0.781250 0.500000
vt 0.781250 1.000000
vt 0.812500 0.500000
vt 0.812500 1.000000
vt 0.843750 0.500000
vt 0.843750 1.000000
vt 0.875000 0.500000
vt 0.875000 1.000000
vt 0.906250 0.500000
vt 0.906250 1.000000
vt 0.937500 0.500000
vt 0.937500 1.000000
s 1
usemtl Material.002
f 577/698/549 578/699/549 637/700/549 636/701/549 635/702/549 634/703/549 629/704/549 628/705/549 627/706/549 626/707/549 621/708/549 620/709/549 619/710/549 618/711/549 613/712/549 612/713/549 611/714/549 610/715/549 605/716/549 604/717/549 603/718/549 602/719/549 597/720/549 596/721/549 595/722/549 594/723/549 589/724/549 588/725/549 587/726/549 586/727/549 581/728/549 580/729/549
f 577/730/550 579/731/550 640/732/551 578/733/551
f 580/734/552 582/735/552 579/736/550 577/737/550
f 581/738/553 583/739/553 582/735/552 580/734/552
f 640/740/554 579/741/554 582/742/554 583/743/554 584/744/554 585/745/554 590/746/554 591/747/554 592/748/554 593/749/554 598/750/554 599/751/554 600/752/554 601/753/554 606/754/554 607/755/554 608/756/554 609/757/554 614/758/554 615/759/554 616/760/554 617/761/554 622/762/554 623/763/554 624/764/554 625/765/554 630/766/554 631/767/554 632/768/554 633/769/554 638/770/554 639/771/554
f 586/772/555 584/773/555 583/739/553 581/738/553
f 587/774/556 585/775/556 584/773/555 586/772/555
f 588/776/557 590/777/557 585/775/556 587/774/556
f 589/778/558 591/779/558 590/777/557 588/776/557
f 594/780/559 592/781/559 591/779/558 589/778/558
f 595/782/560 593/783/560 592/781/559 594/780/559
f 596/784/561 598/785/561 593/783/560 595/782/560
f 597/786/562 599/787/562 598/785/561 596/784/561
f 602/788/563 600/789/563 599/787/562 597/786/562
f 603/790/564 601/791/564 600/789/563 602/788/563
f 604/792/565 606/793/565 601/791/564 603/790/564
f 605/794/566 607/795/566 606/793/565 604/792/565
f 610/796/567 608/797/567 607/795/566 605/794/566
f 611/798/568 609/799/568 608/797/567 610/796/567
f 612/800/569 614/801/569 609/799/568 611/798/568
f 613/802/570 615/803/570 614/801/569 612/800/569
f 618/804/571 616/805/571 615/803/570 613/802/570
f 619/806/572 617/807/572 616/805/571 618/804/571
f 620/808/573 622/809/573 617/807/572 619/806/572
f 621/810/574 623/811/574 622/809/573 620/808/573
f 626/812/575 624/813/575 623/811/574 621/810/574
f 627/814/576 625/815/576 624/813/575 626/812/575
f 628/816/577 630/817/577 625/815/576 627/814/576
f 629/818/578 631/819/578 630/817/577 628/816/577
f 634/820/579 632/821/579 631/819/578 629/818/578
f 635/822/580 633/823/580 632/821/579 634/820/579
f 636/824/581 638/825/581 633/823/580 635/822/580
f 637/826/582 639/827/582 638/825/581 636/824/581
f 578/733/551 640/732/551 639/827/582 637/826/582
o TrafficLight.002
v 0.000000 6.665311 -0.648219
v 0.068814 6.658533 -0.648219
v 0.000000 6.665311 -0.400662
v -0.068814 6.658533 -0.648219
v -0.134984 6.638461 -0.648219
v -0.068814 6.658533 -0.400662
v -0.134984 6.638461 -0.400662
v -0.195966 6.605865 -0.400662
v -0.249417 6.561998 -0.400662
v -0.195966 6.605865 -0.648219
v -0.249417 6.561998 -0.648219
v -0.293284 6.508547 -0.648219
v -0.325880 6.447565 -0.648219
v -0.293284 6.508547 -0.400662
v -0.325880 6.447565 -0.400662
v -0.345952 6.381395 -0.400662
v -0.352730 6.312581 -0.400662
v -0.345952 6.381395 -0.648219
v -0.352730 6.312581 -0.648219
v -0.345952 6.243767 -0.648219
v -0.325880 6.177598 -0.648219
v -0.345952 6.243767 -0.400662
v -0.325880 6.177598 -0.400662
v -0.293284 6.116615 -0.400662
v -0.249417 6.063164 -0.400662
v -0.293284 6.116615 -0.648219
v -0.249417 6.063164 -0.648219
v -0.195966 6.019297 -0.648219
v -0.134984 5.986701 -0.648219
v -0.195966 6.019297 -0.400662
v -0.134984 5.986701 -0.400662
v -0.068814 5.966629 -0.400662
v 0.000000 5.959852 -0.400662
v -0.068814 5.966629 -0.648219
v 0.000000 5.959852 -0.648219
v 0.068814 5.966629 -0.648219
v 0.134984 5.986701 -0.648219
v 0.068814 5.966629 -0.400662
v 0.134984 5.986701 -0.400662
v 0.195966 6.019297 -0.400662
v 0.249417 6.063164 -0.400662
v 0.195966 6.019297 -0.648219
v 0.249417 6.063164 -0.648219
v 0.293284 6.116615 -0.648219
v 0.325880 6.177598 -0.648219
v 0.293284 6.116615 -0.400662
v 0.325880 6.177598 -0.400662
v 0.345952 6.243767 -0.400662
v 0.352730 6.312581 -0.400662
v 0.345952 6.243767 -0.648219
v 0.352730 6.312581 -0.648219
v 0.345952 6.381395 -0.648219
v 0.325880 6.447565 -0.648219
v 0.345952 6.381395 -0.400662
v 0.325880 6.447565 -0.400662
v 0.293284 6.508547 -0.400662
v 0.249417 6.561998 -0.400662
v 0.293284 6.508547 -0.648219
v 0.249417 6.561998 -0.648219
v 0.195966 6.605865 -0.648219
v 0.134984 6.638461 -0.648219
v 0.195966 6.605865 -0.400662
v 0.134984 6.638461 -0.400662
v 0.068814 6.658533 -0.400662
vn -0.0000 -0.0000 -1.0000
vn -0.0000 1.0000 -0.0000
vn 0.1951 0.9808 -0.0000
vn -0.1951 0.9808 -0.0000
vn -0.3827 0.9239 -0.0000
vn -0.0000 -0.0000 1.0000
vn -0.5556 0.8315 -0.0000
vn -0.7071 0.7071 -0.0000
vn -0.8315 0.5556 -0.0000
vn -0.9239 0.3827 -0.0000
vn -0.9808 0.1951 -0.0000
vn -1.0000 -0.0000 -0.0000
vn -0.9808 -0.1951 -0.0000
vn -0.9239 -0.3827 -0.0000
vn -0.8315 -0.5556 -0.0000
vn -0.7071 -0.7071 -0.0000
vn -0.5556 -0.8315 -0.0000
vn -0.3827 -0.9239 -0.0000
vn -0.1951 -0.9808 -0.0000
vn -0.0000 -1.0000 -0.0000
vn 0.1951 -0.9808 -0.0000
vn 0.3827 -0.9239 -0.0000
vn 0.5556 -0.8315 -0.0000
vn 0.7071 -0.7071 -0.0000
vn 0.8315 -0.5556 -0.0000
vn 0.9239 -0.3827 -0.0000
vn 0.9808 -0.1951 -0.0000
vn 1.0000 -0.0000 -0.0000
vn 0.9808 0.1951 -0.0000
vn 0.9239 0.3827 -0.0000
vn 0.8315 0.5556 -0.0000
vn 0.7071 0.7071 -0.0000
vn 0.5556 0.8315 -0.0000
vn 0.3827 0.9239 -0.0000
vt 0.750000 0.490000
vt 0.796822 0.485388
vt 0.841844 0.471731
vt 0.883337 0.449553
vt 0.919706 0.419706
vt 0.949553 0.383337
vt 0.971731 0.341844
vt 0.985388 0.296822
vt 0.990000 0.250000
vt 0.985388 0.203178
vt 0.971731 0.158156
vt 0.949553 0.116663
vt 0.919706 0.080294
vt 0.883337 0.050447
vt 0.841844 0.028269
vt 0.796822 0.014612
vt 0.750000 0.010000
vt 0.703178 0.014612
vt 0.658156 0.028269
vt 0.616663 0.050447
vt 0.580294 0.080294
vt 0.550447 0.116663
vt 0.528269 0.158156
vt 0.514612 0.203178
vt 0.510000 0.250000
vt 0.514612 0.296822
vt 0.528269 0.341844
vt 0.550447 0.383337
vt 0.580294 0.419706
vt 0.616663 0.449553
vt 0.658156 0.471731
vt 0.703178 0.485388
vt 1.000000 0.500000
vt 1.000000 1.000000
vt 0.968750 1.000000
vt 0.968750 0.500000
vt 0.031250 0.500000
vt 0.031250 1.000000
vt 0.000000 1.000000
vt 0.000000 0.500000
vt 0.062500 0.500000
vt 0.062500 1.000000
vt 0.296822 0.485388
vt 0.250000 0.490000
vt 0.203178 0.485388
vt 0.158156 0.471731
vt 0.116663 0.449553
vt 0.080294 0.419706
vt 0.050447 0.383337
vt 0.028269 0.341844
vt 0.014612 0.296822
vt 0.010000 0.250000
vt 0.014612 0.203178
vt 0.028269 0.158156
vt 0.050447 0.116663
vt 0.080294 0.080294
vt 0.116663 0.050447
vt 0.158156 0.028269
vt 0.203178 0.014612
vt 0.250000 0.010000
vt 0.296822 0.014612
vt 0.341844 0.028269
vt 0.383337 0.050447
vt 0.419706 0.080294
vt 0.449553 0.116663
vt 0.471731 0.158156
vt 0.485388 0.203178
vt 0.490000 0.250000
vt 0.485388 0.296822
vt 0.471731 0.341844
vt 0.449553 0.383337
vt 0.419706 0.419706
vt 0.383337 0.449553
vt 0.341844 0.471731
vt 0.093750 0.500000
vt 0.093750 1.000000
vt 0.125000 0.500000
vt 0.125000 1.000000
vt 0.156250 0.500000
vt 0.156250 1.000000
vt 0.187500 0.500000
vt 0.187500 1.000000
vt 0.218750 0.500000
vt 0.218750 1.000000
vt 0.250000 0.500000
vt 0.250000 1.000000
vt 0.281250 0.500000
vt 0.281250 1.000000
vt 0.312500 0.500000
vt 0.312500 1.000000
vt 0.343750 0.500000
vt 0.343750 1.000000
vt 0.375000 0.500000
vt 0.375000 1.000000
vt 0.406250 0.500000
vt 0.406250 1.000000
vt 0.437500 0.500000
vt 0.437500 1.000000
vt 0.468750 0.500000
vt 0.468750 1.000000
vt 0.500000 0.500000
vt 0.500000 1.000000
vt 0.531250 0.500000
vt 0.531250 1.000000
vt 0.562500 0.500000
vt 0.562500 1.000000
vt 0.593750 0.500000
vt 0.593750 1.000000
vt 0.625000 0.500000
vt 0.625000 1.000000
vt 0.656250 0.500000
vt 0.656250 1.000000
vt 0.687500 0.500000
vt 0.687500 1.000000
vt 0.718750 0.500000
vt 0.718750 1.000000
vt 0.750000 0.500000
vt 0.750000 1.000000
vt 0.781250 0.500000
vt 0.781250 1.000000
vt 0.812500 0.500000
vt 0.812500 1.000000
vt 0.843750 0.500000
vt 0.843750 1.000000
vt 0.875000 0.500000
vt 0.875000 1.000000
vt 0.906250 0.500000
vt 0.906250 1.000000
vt 0.937500 0.500000
vt 0.937500 1.000000
s 1
usemtl Material.003
f 641/828/583 642/829/583 701/830/583 700/831/583 699/832/583 698/833/583 693/834/583 692/835/583 691/836/583 690/837/583 685/838/583 684/839/583 683/840/583 682/841/583 677/842/583 676/843/583 675/844/583 674/845/583 669/846/583 668/847/583 667/848/583 666/849/583 661/850/583 660/851/583 659/852/583 658/853/583 653/854/583 652/855/583 651/856/583 650/857/583 645/858/583 644/859/583
f 641/860/584 643/861/584 704/862/585 642/863/585
f 644/864/586 646/865/586 643/866/584 641/867/584
f 645/868/587 647/869/587 646/865/586 644/864/586
f 704/870/588 643/871/588 646/872/588 647/873/588 648/874/588 649/875/588 654/876/588 655/877/588 656/878/588 657/879/588 662/880/588 663/881/588 664/882/588 665/883/588 670/884/588 671/885/588 672/886/588 673/887/588 678/888/588 679/889/588 680/890/588 681/891/588 686/892/588 687/893/588 688/894/588 689/895/588 694/896/588 695/897/588 696/898/588 697/899/588 702/900/588 703/901/588
f 650/902/589 648/903/589 647/869/587 645/868/587
f 651/904/590 649/905/590 648/903/589 650/902/589
f 652/906/591 654/907/591 649/905/590 651/904/590
f 653/908/592 655/909/592 654/907/591 652/906/591
f 658/910/593 656/911/593 655/909/592 653/908/592
f 659/912/594 657/913/594 656/911/593 658/910/593
f 660/914/595 662/915/595 657/913/594 659/912/594
f 661/916/596 663/917/596 662/915/595 660/914/595
f 666/918/597 664/919/597 663/917/596 661/916/596
f 667/920/598 665/921/598 664/919/597 666/918/597
f 668/922/599 670/923/599 665/921/598 667/920/598
f 669/924/600 671/925/600 670/923/599 668/922/599
f 674/926/601 672/927/601 671/925/600 669/924/600
f 675/928/602 673/929/602 672/927/601 674/926/601
f 676/930/603 678/931/603 673/929/602 675/928/602
f 677/932/604 679/933/604 678/931/603 676/930/603
f 682/934/605 680/935/605 679/933/604 677/932/604
f 683/936/606 681/937/606 680/935/605 682/934/605
f 684/938/607 686/939/607 681/937/606 683/936/606
f 685/940/608 687/941/608 686/939/607 684/938/607
f 690/942/609 688/943/609 687/941/608 685/940/608
f 691/944/610 689/945/610 688/943/609 690/942/609
f 692/946/611 694/947/611 689/945/610 691/944/610
f 693/948/612 695/949/612 694/947/611 692/946/611
f 698/950/613 696/951/613 695/949/612 693/948/612
f 699/952/614 697/953/614 696/951/613 698/950/613
f 700/954/615 702/955/615 697/953/614 699/952/614
f 701/956/616 703/957/616 702/955/615 700/954/615
f 642/863/585 704/862/585 703/957/616 701/956/616
