# Blender 5.0.1
# www.blender.org
mtllib slide.mtl
o ladder
v -1.394363 0.049659 -1.840101
v 2.796556 13.972214 -1.840101
v -1.394363 0.049659 -2.159899
v 2.796556 13.972214 -2.159899
v -1.061813 -0.050444 -1.840101
v 3.129106 13.872110 -1.840101
v -1.061813 -0.050444 -2.159899
v 3.129106 13.872110 -2.159899
v -1.394363 0.049659 2.159899
v 2.796556 13.972214 2.159899
v -1.394363 0.049659 1.840101
v 2.796556 13.972214 1.840101
v -1.061813 -0.050444 2.159899
v 3.129106 13.872110 2.159899
v -1.061813 -0.050444 1.840101
v 3.129106 13.872110 1.840101
v 2.636488 12.825534 -1.911149
v 2.636488 12.825534 1.911149
v 2.752948 12.846208 -1.911149
v 2.752948 12.846209 1.911149
v 2.831951 12.956974 -1.911149
v 2.831951 12.956974 1.911149
v 2.827219 13.092944 -1.911149
v 2.827219 13.092945 1.911149
v 2.741524 13.174471 -1.911149
v 2.741524 13.174471 1.911149
v 2.625065 13.153796 -1.911149
v 2.625065 13.153797 1.911149
v 2.546061 13.043032 -1.911149
v 2.546061 13.043032 1.911149
v 2.550793 12.907060 -1.911149
v 2.550793 12.907061 1.911149
v 2.111307 11.080842 -1.911149
v 2.111308 11.080843 1.911149
v 2.227767 11.101517 -1.911149
v 2.227767 11.101517 1.911149
v 2.306770 11.212283 -1.911149
v 2.306770 11.212283 1.911149
v 2.302039 11.348253 -1.911149
v 2.302039 11.348253 1.911149
v 2.216344 11.429780 -1.911149
v 2.216344 11.429780 1.911149
v 2.099884 11.409105 -1.911149
v 2.099884 11.409105 1.911149
v 2.020880 11.298341 -1.911149
v 2.020880 11.298341 1.911149
v 2.025612 11.162369 -1.911149
v 2.025612 11.162369 1.911149
v 1.586127 9.336151 -1.911149
v 1.586127 9.336151 1.911149
v 1.702586 9.356826 -1.911149
v 1.702586 9.356826 1.911149
v 1.781590 9.467592 -1.911149
v 1.781590 9.467592 1.911149
v 1.776858 9.603562 -1.911149
v 1.776858 9.603562 1.911149
v 1.691163 9.685089 -1.911149
v 1.691163 9.685089 1.911149
v 1.574703 9.664414 -1.911149
v 1.574703 9.664414 1.911149
v 1.495700 9.553650 -1.911149
v 1.495700 9.553650 1.911149
v 1.500432 9.417678 -1.911149
v 1.500432 9.417678 1.911149
v 1.060946 7.591460 -1.911149
v 1.060946 7.591460 1.911149
v 1.177405 7.612134 -1.911149
v 1.177405 7.612134 1.911149
v 1.256409 7.722900 -1.911149
v 1.256409 7.722900 1.911149
v 1.251677 7.858871 -1.911149
v 1.251677 7.858871 1.911149
v 1.165982 7.940398 -1.911149
v 1.165982 7.940398 1.911149
v 1.049522 7.919723 -1.911149
v 1.049522 7.919723 1.911149
v 0.970519 7.808958 -1.911149
v 0.970519 7.808958 1.911149
v 0.975250 7.672986 -1.911149
v 0.975250 7.672986 1.911149
v 0.535765 5.846768 -1.911149
v 0.535765 5.846768 1.911149
v 0.652224 5.867443 -1.911149
v 0.652224 5.867443 1.911149
v 0.731228 5.978209 -1.911149
v 0.731228 5.978209 1.911149
v 0.726496 6.114180 -1.911149
v 0.726496 6.114180 1.911149
v 0.640801 6.195706 -1.911149
v 0.640801 6.195706 1.911149
v 0.524341 6.175032 -1.911149
v 0.524341 6.175032 1.911149
v 0.445338 6.064266 -1.911149
v 0.445338 6.064266 1.911149
v 0.450070 5.928295 -1.911149
v 0.450070 5.928295 1.911149
v 0.010584 4.102077 -1.911149
v 0.010584 4.102077 1.911149
v 0.127043 4.122752 -1.911149
v 0.127043 4.122752 1.911149
v 0.206047 4.233518 -1.911149
v 0.206047 4.233518 1.911149
v 0.201315 4.369489 -1.911149
v 0.201315 4.369489 1.911149
v 0.115620 4.451015 -1.911149
v 0.115620 4.451015 1.911149
v -0.000839 4.430341 -1.911149
v -0.000839 4.430341 1.911149
v -0.079843 4.319575 -1.911149
v -0.079843 4.319575 1.911149
v -0.075112 4.183604 -1.911149
v -0.075112 4.183604 1.911149
v -0.514597 2.357386 -1.911149
v -0.514597 2.357386 1.911149
v -0.398138 2.378061 -1.911149
v -0.398138 2.378061 1.911149
v -0.319134 2.488827 -1.911149
v -0.319134 2.488827 1.911149
v -0.323866 2.624798 -1.911149
v -0.323866 2.624798 1.911149
v -0.409561 2.706324 -1.911149
v -0.409561 2.706324 1.911149
v -0.526021 2.685649 -1.911149
v -0.526021 2.685649 1.911149
v -0.605024 2.574884 -1.911149
v -0.605024 2.574884 1.911149
v -0.600292 2.438913 -1.911149
v -0.600292 2.438913 1.911149
v -1.039778 0.612695 -1.911148
v -1.039778 0.612695 1.911150
v -0.923319 0.633370 -1.911148
v -0.923319 0.633370 1.911150
v -0.844315 0.744135 -1.911148
v -0.844315 0.744135 1.911150
v -0.849047 0.880106 -1.911148
v -0.849047 0.880106 1.911150
v -0.934742 0.961633 -1.911148
v -0.934742 0.961633 1.911150
v -1.051201 0.940958 -1.911148
v -1.051201 0.940958 1.911150
v -1.130205 0.830192 -1.911148
v -1.130205 0.830192 1.911150
v -1.125473 0.694222 -1.911148
v -1.125473 0.694222 1.911150
vn -0.9576 0.2882 -0.0000
vn -0.0000 -0.0000 -1.0000
vn 0.9576 -0.2882 -0.0000
vn -0.0000 -0.0000 1.0000
vn -0.2882 -0.9576 -0.0000
vn 0.2882 0.9576 -0.0000
vn -0.6839 0.7296 -0.0000
vn -0.8141 0.5807 -0.0000
vn -0.9994 -0.0348 -0.0000
vn -0.9730 -0.2309 -0.0000
vn 0.6839 -0.7296 -0.0000
vn 0.8141 -0.5807 -0.0000
vn 0.9994 0.0348 -0.0000
vn 0.9730 0.2309 -0.0000
vt 0.375000 0.000000
vt 0.625000 0.000000
vt 0.625000 0.250000
vt 0.375000 0.250000
vt 0.625000 0.500000
vt 0.375000 0.500000
vt 0.625000 0.750000
vt 0.375000 0.750000
vt 0.625000 1.000000
vt 0.375000 1.000000
vt 0.125000 0.500000
vt 0.125000 0.750000
vt 0.875000 0.500000
vt 0.875000 0.750000
vt 1.000000 0.500000
vt 1.000000 1.000000
vt 0.875000 1.000000
vt 0.750000 1.000000
vt 0.750000 0.500000
vt 0.500000 1.000000
vt 0.500000 0.500000
vt 0.250000 1.000000
vt 0.250000 0.500000
vt 0.419706 0.419706
vt 0.250000 0.490000
vt 0.080294 0.419706
vt 0.010000 0.250000
vt 0.080294 0.080294
vt 0.250000 0.010000
vt 0.419706 0.080294
vt 0.490000 0.250000
vt 0.125000 1.000000
vt 0.000000 1.000000
vt 0.000000 0.500000
vt 0.750000 0.490000
vt 0.919706 0.419706
vt 0.990000 0.250000
vt 0.919706 0.080294
vt 0.750000 0.010000
vt 0.580294 0.080294
vt 0.510000 0.250000
vt 0.580294 0.419706
s 1
usemtl wood
f 1/1/1 2/2/1 4/3/1 3/4/1
f 3/4/2 4/3/2 8/5/2 7/6/2
f 7/6/3 8/5/3 6/7/3 5/8/3
f 5/8/4 6/7/4 2/9/4 1/10/4
f 3/11/5 7/6/5 5/8/5 1/12/5
f 8/5/6 4/13/6 2/14/6 6/7/6
f 9/1/1 10/2/1 12/3/1 11/4/1
f 11/4/2 12/3/2 16/5/2 15/6/2
f 15/6/3 16/5/3 14/7/3 13/8/3
f 13/8/4 14/7/4 10/9/4 9/10/4
f 11/11/5 15/6/5 13/8/5 9/12/5
f 16/5/6 12/13/6 10/14/6 14/7/6
f 17/15/6 18/16/6 20/17/7 19/13/7
f 19/13/7 20/17/7 22/18/8 21/19/8
f 21/19/9 22/18/9 24/9/10 23/5/10
f 23/5/10 24/9/10 26/20/5 25/21/5
f 25/21/5 26/20/5 28/10/11 27/6/11
f 27/6/11 28/10/11 30/22/12 29/23/12
f 20/24/2 18/25/2 32/26/2 30/27/2 28/28/2 26/29/2 24/30/2 22/31/2
f 29/23/13 30/22/13 32/32/14 31/11/14
f 31/11/14 32/32/14 18/33/6 17/34/6
f 17/35/4 19/36/4 21/37/4 23/38/4 25/39/4 27/40/4 29/41/4 31/42/4
f 33/15/6 34/16/6 36/17/7 35/13/7
f 35/13/7 36/17/7 38/18/8 37/19/8
f 37/19/9 38/18/9 40/9/10 39/5/10
f 39/5/10 40/9/10 42/20/5 41/21/5
f 41/21/5 42/20/5 44/10/11 43/6/11
f 43/6/11 44/10/11 46/22/12 45/23/12
f 36/24/2 34/25/2 48/26/2 46/27/2 44/28/2 42/29/2 40/30/2 38/31/2
f 45/23/13 46/22/13 48/32/14 47/11/14
f 47/11/14 48/32/14 34/33/6 33/34/6
f 33/35/4 35/36/4 37/37/4 39/38/4 41/39/4 43/40/4 45/41/4 47/42/4
f 49/15/6 50/16/6 52/17/7 51/13/7
f 51/13/7 52/17/7 54/18/8 53/19/8
f 53/19/9 54/18/9 56/9/10 55/5/10
f 55/5/10 56/9/10 58/20/5 57/21/5
f 57/21/5 58/20/5 60/10/11 59/6/11
f 59/6/11 60/10/11 62/22/12 61/23/12
f 52/24/2 50/25/2 64/26/2 62/27/2 60/28/2 58/29/2 56/30/2 54/31/2
f 61/23/13 62/22/13 64/32/14 63/11/14
f 63/11/14 64/32/14 50/33/6 49/34/6
f 49/35/4 51/36/4 53/37/4 55/38/4 57/39/4 59/40/4 61/41/4 63/42/4
f 65/15/6 66/16/6 68/17/7 67/13/7
f 67/13/7 68/17/7 70/18/8 69/19/8
f 69/19/9 70/18/9 72/9/10 71/5/10
f 71/5/10 72/9/10 74/20/5 73/21/5
f 73/21/5 74/20/5 76/10/11 75/6/11
f 75/6/11 76/10/11 78/22/12 77/23/12
f 68/24/2 66/25/2 80/26/2 78/27/2 76/28/2 74/29/2 72/30/2 70/31/2
f 77/23/13 78/22/13 80/32/14 79/11/14
f 79/11/14 80/32/14 66/33/6 65/34/6
f 65/35/4 67/36/4 69/37/4 71/38/4 73/39/4 75/40/4 77/41/4 79/42/4
f 81/15/6 82/16/6 84/17/7 83/13/7
f 83/13/7 84/17/7 86/18/8 85/19/8
f 85/19/9 86/18/9 88/9/10 87/5/10
f 87/5/10 88/9/10 90/20/5 89/21/5
f 89/21/5 90/20/5 92/10/11 91/6/11
f 91/6/11 92/10/11 94/22/12 93/23/12
f 84/24/2 82/25/2 96/26/2 94/27/2 92/28/2 90/29/2 88/30/2 86/31/2
f 93/23/13 94/22/13 96/32/14 95/11/14
f 95/11/14 96/32/14 82/33/6 81/34/6
f 81/35/4 83/36/4 85/37/4 87/38/4 89/39/4 91/40/4 93/41/4 95/42/4
f 97/15/6 98/16/6 100/17/7 99/13/7
f 99/13/7 100/17/7 102/18/8 101/19/8
f 101/19/9 102/18/9 104/9/10 103/5/10
f 103/5/10 104/9/10 106/20/5 105/21/5
f 105/21/5 106/20/5 108/10/11 107/6/11
f 107/6/11 108/10/11 110/22/12 109/23/12
f 100/24/2 98/25/2 112/26/2 110/27/2 108/28/2 106/29/2 104/30/2 102/31/2
f 109/23/13 110/22/13 112/32/14 111/11/14
f 111/11/14 112/32/14 98/33/6 97/34/6
f 97/35/4 99/36/4 101/37/4 103/38/4 105/39/4 107/40/4 109/41/4 111/42/4
f 113/15/6 114/16/6 116/17/7 115/13/7
f 115/13/7 116/17/7 118/18/8 117/19/8
f 117/19/9 118/18/9 120/9/10 119/5/10
f 119/5/10 120/9/10 122/20/5 121/21/5
f 121/21/5 122/20/5 124/10/11 123/6/11
f 123/6/11 124/10/11 126/22/12 125/23/12
f 116/24/2 114/25/2 128/26/2 126/27/2 124/28/2 122/29/2 120/30/2 118/31/2
f 125/23/13 126/22/13 128/32/14 127/11/14
f 127/11/14 128/32/14 114/33/6 113/34/6
f 113/35/4 115/36/4 117/37/4 119/38/4 121/39/4 123/40/4 125/41/4 127/42/4
f 129/15/6 130/16/6 132/17/7 131/13/7
f 131/13/7 132/17/7 134/18/8 133/19/8
f 133/19/9 134/18/9 136/9/10 135/5/10
f 135/5/10 136/9/10 138/20/5 137/21/5
f 137/21/5 138/20/5 140/10/11 139/6/11
f 139/6/11 140/10/11 142/22/12 141/23/12
f 132/24/2 130/25/2 144/26/2 142/27/2 140/28/2 138/29/2 136/30/2 134/31/2
f 141/23/13 142/22/13 144/32/14 143/11/14
f 143/11/14 144/32/14 130/33/6 129/34/6
f 129/35/4 131/36/4 133/37/4 135/38/4 137/39/4 139/40/4 141/41/4 143/42/4
o base_platform
v 2.902395 13.899579 3.213445
v 2.902395 14.192311 3.213445
v 2.902395 13.899579 -3.213445
v 2.902395 14.192311 -3.213445
v 9.997839 13.899579 3.213445
v 9.997839 14.192311 3.213445
v 9.997839 13.899579 -3.213445
v 9.997839 14.192311 -3.213445
vn -1.0000 -0.0000 -0.0000
vn -0.0000 -0.0000 -1.0000
vn 1.0000 -0.0000 -0.0000
vn -0.0000 -0.0000 1.0000
vn -0.0000 -1.0000 -0.0000
vn -0.0000 1.0000 -0.0000
vt 0.375000 0.000000
vt 0.625000 0.000000
vt 0.625000 0.250000
vt 0.375000 0.250000
vt 0.625000 0.500000
vt 0.375000 0.500000
vt 0.625000 0.750000
vt 0.375000 0.750000
vt 0.625000 1.000000
vt 0.375000 1.000000
vt 0.125000 0.500000
vt 0.125000 0.750000
vt 0.875000 0.500000
vt 0.875000 0.750000
s 1
usemtl metal
f 145/43/15 146/44/15 148/45/15 147/46/15
f 147/46/16 148/45/16 152/47/16 151/48/16
f 151/48/17 152/47/17 150/49/17 149/50/17
f 149/50/18 150/49/18 146/51/18 145/52/18
f 147/53/19 151/48/19 149/50/19 145/54/19
f 152/47/20 148/55/20 146/56/20 150/49/20
o slide
v 9.907074 13.309521 2.148006
v 9.907074 13.758669 2.148006
v 9.907074 13.309521 -2.148006
v 9.907074 13.758669 -2.148006
v 11.380203 13.309521 2.148006
v 11.380203 13.758669 2.148006
v 11.380203 13.309521 -2.148006
v 11.380203 13.758669 -2.148006
v 12.390262 13.509745 -2.148006
v 12.390262 13.060596 -2.148006
v 12.390262 13.060596 2.148006
v 12.390262 13.509745 2.148006
v 13.405788 12.887857 -2.148006
v 13.405788 12.438708 -2.148006
v 13.405788 12.438708 2.148006
v 13.405788 12.887857 2.148006
v 15.196169 11.631149 -2.148006
v 15.196169 11.182000 -2.148006
v 15.196169 11.182000 2.148006
v 15.196169 11.631149 2.148006
v 22.674622 5.126137 -2.148006
v 22.674622 4.676988 -2.148006
v 22.674622 4.676988 2.148006
v 22.674622 5.126137 2.148006
v 25.622320 3.104794 -2.148006
v 25.622320 2.655644 -2.148006
v 25.622320 2.655644 2.148006
v 25.622320 3.104794 2.148006
v 27.985750 1.913166 -2.148006
v 27.985750 1.464017 -2.148006
v 27.985750 1.464017 2.148006
v 27.985750 1.913166 2.148006
v 30.378292 1.005548 -2.148006
v 30.378292 0.556398 -2.148006
v 30.378292 0.556398 2.148006
v 30.378292 1.005548 2.148006
v 32.958637 0.559135 -2.148006
v 32.958637 0.109986 -2.148006
v 32.958637 0.109986 2.148006
v 32.958637 0.559135 2.148006
v 35.776787 0.559135 -2.148006
v 35.776787 0.109986 -2.148006
v 35.776787 0.109986 2.148006
v 35.776787 0.559135 2.148006
v 9.907074 13.309521 2.148006
v 9.907074 13.758669 2.148006
v 9.907074 13.758669 -2.148006
v 9.907074 13.309521 -2.148006
v 11.380203 13.309521 -2.148006
v 11.380203 13.758669 -2.148006
v 11.380203 13.758669 2.148006
v 11.380203 13.309521 2.148006
v 12.390262 13.509745 -2.148006
v 12.390262 13.060596 -2.148006
v 12.390262 13.509745 2.148006
v 12.390262 13.060596 2.148006
v 13.405788 12.887857 -2.148006
v 13.405788 12.438708 -2.148006
v 13.405788 12.887857 2.148006
v 13.405788 12.438708 2.148006
v 15.196169 11.631149 -2.148006
v 15.196169 11.182000 -2.148006
v 15.196169 11.631149 2.148006
v 15.196169 11.182000 2.148006
v 22.674622 5.126137 -2.148006
v 22.674622 4.676988 -2.148006
v 22.674622 5.126137 2.148006
v 22.674622 4.676988 2.148006
v 25.622320 3.104794 -2.148006
v 25.622320 2.655644 -2.148006
v 25.622320 3.104794 2.148006
v 25.622320 2.655644 2.148006
v 27.985750 1.913166 -2.148006
v 27.985750 1.464017 -2.148006
v 27.985750 1.913166 2.148006
v 27.985750 1.464017 2.148006
v 30.378292 1.005548 -2.148006
v 30.378292 0.556398 -2.148006
v 30.378292 1.005548 2.148006
v 30.378292 0.556398 2.148006
v 32.958637 0.559135 -2.148006
v 32.958637 0.109986 -2.148006
v 32.958637 0.559135 2.148006
v 32.958637 0.109986 2.148006
v 35.776787 0.559135 -2.148006
v 35.776787 0.109986 -2.148006
v 35.776787 0.559135 2.148006
v 35.776787 0.109986 2.148006
v 9.907074 13.309521 2.583159
v 9.907074 13.758669 2.583159
v 9.907074 13.758669 -2.583159
v 9.907074 13.309521 -2.583159
v 11.380203 13.309521 -2.583159
v 11.380203 13.758669 -2.583159
v 11.380203 13.758669 2.583159
v 11.380203 13.309521 2.583159
v 12.390262 13.509745 -2.583159
v 12.390262 13.060596 -2.583159
v 12.390262 13.509745 2.583159
v 12.390262 13.060596 2.583159
v 13.405788 12.887857 -2.583159
v 13.405788 12.438708 -2.583159
v 13.405788 12.887857 2.583159
v 13.405788 12.438708 2.583159
v 15.196169 11.631149 -2.583159
v 15.196169 11.182000 -2.583159
v 15.196169 11.631149 2.583159
v 15.196169 11.182000 2.583159
v 22.674622 5.126137 -2.583159
v 22.674622 4.676988 -2.583159
v 22.674622 5.126137 2.583159
v 22.674622 4.676988 2.583159
v 25.622320 3.104794 -2.583159
v 25.622320 2.655644 -2.583159
v 25.622320 3.104794 2.583159
v 25.622320 2.655644 2.583159
v 27.985750 1.913166 -2.583159
v 27.985750 1.464017 -2.583159
v 27.985750 1.913166 2.583159
v 27.985750 1.464017 2.583159
v 30.378292 1.005548 -2.583159
v 30.378292 0.556398 -2.583159
v 30.378292 1.005548 2.583159
v 30.378292 0.556398 2.583159
v 32.958637 0.559135 -2.583159
v 32.958637 0.109986 -2.583159
v 32.958637 0.559135 2.583159
v 32.958637 0.109986 2.583159
v 35.776787 0.559135 -2.583159
v 35.776787 0.109986 -2.583159
v 35.776787 0.559135 2.583159
v 35.776787 0.109986 2.583159
v 9.907074 13.608274 2.991707
v 9.907074 14.057423 2.991707
v 9.907074 14.057423 -2.991707
v 9.907074 13.608274 -2.991707
v 11.380203 13.608274 -2.991707
v 11.380203 14.057423 -2.991707
v 11.380203 14.057423 2.991707
v 11.380203 13.608274 2.991707
v 12.390262 13.808497 -2.991707
v 12.390262 13.359348 -2.991707
v 12.390262 13.808497 2.991707
v 12.390262 13.359348 2.991707
v 13.405788 13.186611 -2.991707
v 13.405788 12.737462 -2.991707
v 13.405788 13.186611 2.991707
v 13.405788 12.737462 2.991707
v 15.196169 11.929903 -2.991707
v 15.196169 11.480753 -2.991707
v 15.196169 11.929903 2.991707
v 15.196169 11.480753 2.991707
v 22.674622 5.424891 -2.991707
v 22.674622 4.975741 -2.991707
v 22.674622 5.424891 2.991707
v 22.674622 4.975741 2.991707
v 25.622320 3.403547 -2.991707
v 25.622320 2.954398 -2.991707
v 25.622320 3.403547 2.991707
v 25.622320 2.954398 2.991707
v 27.985750 2.211920 -2.991707
v 27.985750 1.762771 -2.991707
v 27.985750 2.211920 2.991707
v 27.985750 1.762771 2.991707
v 30.378292 1.304301 -2.991707
v 30.378292 0.855152 -2.991707
v 30.378292 1.304301 2.991707
v 30.378292 0.855152 2.991707
v 32.958637 0.857889 -2.991707
v 32.958637 0.408740 -2.991707
v 32.958637 0.857889 2.991707
v 32.958637 0.408740 2.991707
v 35.776787 0.643762 -2.991707
v 35.776787 0.194613 -2.991707
v 35.776787 0.643762 2.991707
v 35.776787 0.194613 2.991707
v 9.907074 14.886202 3.523250
v 9.907074 15.335351 3.523250
v 9.907074 15.335351 -3.523250
v 9.907074 14.886202 -3.523250
v 11.380203 14.886202 -3.523250
v 11.380203 15.335351 -3.523250
v 11.380203 15.335351 3.523250
v 11.380203 14.886202 3.523250
v 12.390262 15.086426 -3.523250
v 12.390262 14.637277 -3.523250
v 12.390262 15.086426 3.523250
v 12.390262 14.637277 3.523250
v 13.405788 14.464539 -3.523250
v 13.405788 14.015389 -3.523250
v 13.405788 14.464539 3.523250
v 13.405788 14.015389 3.523250
v 15.196169 13.207830 -3.523250
v 15.196169 12.758681 -3.523250
v 15.196169 13.207830 3.523250
v 15.196169 12.758681 3.523250
v 22.674622 6.702818 -3.523250
v 22.674622 6.253670 -3.523250
v 22.674622 6.702818 3.523250
v 22.674622 6.253670 3.523250
v 25.622320 4.681475 -3.523250
v 25.622320 4.232326 -3.523250
v 25.622320 4.681475 3.523250
v 25.622320 4.232326 3.523250
v 27.985750 3.489848 -3.523250
v 27.985750 3.040699 -3.523250
v 27.985750 3.489848 3.523250
v 27.985750 3.040699 3.523250
v 30.378292 2.582230 -3.523250
v 30.378292 2.133080 -3.523250
v 30.378292 2.582230 3.523250
v 30.378292 2.133080 3.523250
v 32.958637 2.135817 -3.523250
v 32.958637 1.686667 -3.523250
v 32.958637 2.135817 3.523250
v 32.958637 1.686667 3.523250
v 35.776787 1.136514 -3.523250
v 35.776787 0.687365 -3.523250
v 35.776787 1.136514 3.523250
v 35.776787 0.687365 3.523250
v 9.907074 16.471527 3.958784
v 9.907074 16.920677 3.958784
v 9.907074 16.920677 -3.958784
v 9.907074 16.471527 -3.958784
v 11.380203 16.471527 -3.958784
v 11.380203 16.920677 -3.958784
v 11.380203 16.920677 3.958784
v 11.380203 16.471527 3.958784
v 12.390262 16.671751 -3.958784
v 12.390262 16.222603 -3.958784
v 12.390262 16.671751 3.958784
v 12.390262 16.222603 3.958784
v 13.405788 16.049866 -3.958784
v 13.405788 15.600716 -3.958784
v 13.405788 16.049866 3.958784
v 13.405788 15.600716 3.958784
v 15.196169 14.793157 -3.958784
v 15.196169 14.344007 -3.958784
v 15.196169 14.793157 3.958784
v 15.196169 14.344007 3.958784
v 22.674622 8.288145 -3.958784
v 22.674622 7.838996 -3.958784
v 22.674622 8.288145 3.958784
v 22.674622 7.838996 3.958784
v 25.622320 6.266801 -3.958784
v 25.622320 5.817652 -3.958784
v 25.622320 6.266801 3.958784
v 25.622320 5.817652 3.958784
v 27.985750 4.545563 -3.958784
v 27.985750 2.218660 -3.958784
v 27.985750 4.545563 3.958784
v 27.985750 2.218660 3.958784
v 30.378292 3.329531 -3.958784
v 30.378292 1.311042 -3.958784
v 30.378292 3.329531 3.958784
v 30.378292 1.311042 3.958784
v 32.958637 2.578848 -3.958784
v 32.958637 0.864629 -3.958784
v 32.958637 2.578848 3.958784
v 32.958637 0.864629 3.958784
v 35.776787 2.721840 -3.958784
v 35.776787 -0.134674 -3.958784
v 35.776787 2.721840 3.958784
v 35.776787 -0.134674 3.958784
v 9.907074 16.471527 4.478675
v 9.907074 16.920677 4.478675
v 9.907074 16.920677 -4.478675
v 9.907074 16.471527 -4.478675
v 11.380203 16.471527 -4.478675
v 11.380203 16.920677 -4.478675
v 11.380203 16.920677 4.478675
v 11.380203 16.471527 4.478675
v 12.390262 16.671751 -4.478675
v 12.390262 16.222603 -4.478675
v 12.390262 16.671751 4.478675
v 12.390262 16.222603 4.478675
v 13.405788 16.049866 -4.478675
v 13.405788 15.600716 -4.478675
v 13.405788 16.049866 4.478675
v 13.405788 15.600716 4.478675
v 15.196169 14.793157 -4.478675
v 15.196169 14.344007 -4.478675
v 15.196169 14.793157 4.478675
v 15.196169 14.344007 4.478675
v 22.674622 8.288145 -4.478675
v 22.674622 7.838996 -4.478675
v 22.674622 8.288145 4.478675
v 22.674622 7.838996 4.478675
v 25.622320 6.266801 -4.478675
v 25.622320 5.817652 -4.478675
v 25.622320 6.266801 4.478675
v 25.622320 5.817652 4.478675
v 27.985750 4.545563 -4.478675
v 27.985750 0.211917 -4.478675
v 27.985750 4.545563 4.478675
v 27.985750 0.211917 4.478675
v 30.378292 3.329531 -4.478675
v 30.378292 -0.032994 -4.478675
v 30.378292 3.329531 4.478675
v 30.378292 -0.032994 4.478675
v 32.958637 2.578848 -4.478675
v 32.958637 -0.091163 -4.478675
v 32.958637 2.578848 4.478675
v 32.958637 -0.091163 4.478675
v 35.776787 2.721840 -4.478675
v 35.776787 -0.134674 -4.478675
v 35.776787 2.721840 4.478675
v 35.776787 -0.134674 4.478675
vn -1.0000 -0.0000 -0.0000
vn -0.0000 1.0000 -0.0000
vn -0.2393 -0.9709 -0.0000
vn -0.3550 -0.9349 -0.0000
vn 0.1103 0.9939 -0.0000
vn -0.0000 -1.0000 -0.0000
vn 0.3550 0.9349 -0.0000
vn 0.5477 0.8367 -0.0000
vn 0.2393 0.9709 -0.0000
vn -0.5477 -0.8367 -0.0000
vn 0.6141 0.7892 -0.0000
vn 0.6093 0.7930 -0.0000
vn -0.6141 -0.7892 -0.0000
vn 0.0389 0.9992 -0.0000
vn -0.6093 -0.7930 -0.0000
vn 0.5043 0.8635 -0.0000
vn 0.3995 0.9167 -0.0000
vn -0.5043 -0.8635 -0.0000
vn -0.3995 -0.9167 -0.0000
vn -0.2511 -0.9680 -0.0000
vn -0.0802 -0.9968 -0.0000
vn 1.0000 -0.0000 -0.0000
vn 0.2511 0.9680 -0.0000
vn 0.0802 0.9968 -0.0000
vn 0.3089 0.7677 -0.5614
vn 0.3934 0.7421 -0.5427
vn 0.3857 0.6165 -0.6864
vn 0.2952 0.6407 -0.7088
vn 0.1159 0.8018 0.5863
vn 0.3856 0.7448 0.5446
vn 0.2292 0.6188 0.7514
vn 0.0662 0.6171 0.7841
vn 0.0692 0.8745 -0.4801
vn 0.1778 0.7943 -0.5809
vn 0.2006 0.6724 -0.7125
vn 0.0950 0.7490 -0.6558
vn 0.3856 0.7448 -0.5446
vn 0.1159 0.8018 -0.5863
vn 0.0662 0.6171 -0.7841
vn 0.2292 0.6188 -0.7514
vn -0.1778 -0.7943 0.5809
vn -0.0692 -0.8745 0.4801
vn -0.0950 -0.7490 0.6558
vn -0.2006 -0.6724 0.7125
vn 0.4857 0.7056 0.5160
vn 0.5643 0.6664 0.4873
vn 0.4428 0.5878 0.6771
vn 0.3883 0.6062 0.6941
vn -0.1159 -0.8018 0.5863
vn -0.3856 -0.7448 0.5446
vn -0.2292 -0.6188 0.7514
vn -0.0662 -0.6171 0.7841
vn -0.5643 -0.6664 -0.4873
vn -0.4857 -0.7056 -0.5160
vn -0.3883 -0.6062 -0.6941
vn -0.4428 -0.5878 -0.6771
vn 0.4957 0.7010 0.5126
vn 0.3934 0.7421 0.5427
vn 0.3857 0.6165 0.6864
vn 0.4737 0.5839 0.6593
vn -0.3856 -0.7448 -0.5446
vn -0.1159 -0.8018 -0.5863
vn -0.0662 -0.6171 -0.7841
vn -0.2292 -0.6188 -0.7514
vn 0.5643 0.6664 -0.4873
vn 0.4857 0.7056 -0.5160
vn 0.3883 0.6062 -0.6941
vn 0.4428 0.5878 -0.6771
vn -0.3934 -0.7421 -0.5427
vn -0.4957 -0.7010 -0.5126
vn -0.4737 -0.5839 -0.6593
vn -0.3857 -0.6165 -0.6864
vn -0.4857 -0.7056 0.5160
vn -0.5643 -0.6664 0.4873
vn -0.4428 -0.5878 0.6771
vn -0.3883 -0.6062 0.6941
vn 0.4957 0.7010 -0.5126
vn 0.4737 0.5839 -0.6593
vn -0.3089 -0.7677 0.5614
vn -0.2952 -0.6407 0.7088
vn -0.0344 -0.9048 0.4245
vn -0.0571 -0.8256 0.5613
vn -0.4957 -0.7010 0.5126
vn -0.3934 -0.7421 0.5427
vn -0.3857 -0.6165 0.6864
vn -0.4737 -0.5839 0.6593
vn -0.0000 0.8072 -0.5903
vn -0.0000 0.6646 -0.7472
vn -0.1778 -0.7943 -0.5809
vn -0.3089 -0.7677 -0.5614
vn -0.2952 -0.6407 -0.7088
vn -0.2006 -0.6724 -0.7125
vn -0.2512 -0.3173 0.9145
vn -0.2436 -0.3152 0.9172
vn 0.2071 0.3183 0.9251
vn 0.1286 0.3156 0.9401
vn -0.2436 -0.3152 -0.9172
vn -0.2512 -0.3173 -0.9145
vn -0.0000 0.6646 0.7472
vn 0.0368 0.3132 0.9490
vn -0.0000 0.3264 0.9452
vn -0.4399 -0.5262 0.7277
vn -0.4519 -0.5081 0.7332
vn 0.1286 0.3156 -0.9401
vn 0.2071 0.3183 -0.9251
vn 0.2512 0.3173 0.9145
vn 0.2436 0.3152 0.9172
vn -0.0000 -0.6646 -0.7472
vn -0.0000 -0.3264 -0.9452
vn -0.0368 -0.3132 -0.9490
vn -0.4519 -0.5081 -0.7332
vn -0.4399 -0.5262 -0.7277
vn 0.2006 0.6724 0.7125
vn 0.0950 0.7490 0.6558
vn 0.0824 0.4422 0.8931
vn 0.1345 0.4626 0.8763
vn 0.2436 0.3152 -0.9172
vn 0.2512 0.3173 -0.9145
vn 0.2952 0.6407 0.7088
vn 0.1851 0.3918 0.9012
vn 0.2180 0.3394 0.9150
vn -0.0950 -0.7490 -0.6558
vn -0.1210 -0.3812 -0.9165
vn -0.0783 -0.4187 -0.9047
vn 0.2180 0.3394 -0.9150
vn 0.1851 0.3918 -0.9012
vn 0.1345 0.4626 -0.8763
vn 0.0824 0.4422 -0.8931
vn -0.0692 -0.8745 -0.4801
vn 0.3089 0.7677 0.5614
vn 0.1778 0.7943 0.5809
vn 0.0692 0.8745 0.4801
vn -0.0000 -0.8072 -0.5903
vn -0.0000 0.8072 0.5903
vn 0.0344 0.9048 -0.4245
vn 0.0571 0.8256 -0.5613
vn 0.0344 0.9048 0.4245
vn 0.0571 0.8256 0.5613
vn -0.0000 -0.8072 0.5903
vn -0.0000 -0.6646 0.7472
vn -0.0344 -0.9048 -0.4245
vn -0.0571 -0.8256 -0.5613
vn 0.1875 0.2602 0.9472
vn 0.1632 0.2614 0.9514
vn -0.0368 -0.3132 0.9490
vn -0.1286 -0.3156 0.9401
vn -0.0815 -0.2640 0.9611
vn -0.0236 -0.2648 0.9640
vn -0.2071 -0.3183 -0.9251
vn -0.1632 -0.2614 -0.9514
vn -0.1875 -0.2602 -0.9472
vn 0.1802 0.2667 0.9468
vn 0.2187 0.2585 0.9409
vn -0.1286 -0.3156 -0.9401
vn -0.0236 -0.2648 -0.9640
vn -0.0815 -0.2640 -0.9611
vn 0.1632 0.2614 -0.9514
vn 0.1875 0.2602 -0.9472
vn -0.2187 -0.2585 -0.9409
vn -0.2310 -0.3048 -0.9240
vn 0.1898 0.3285 -0.9252
vn 0.1763 0.4692 -0.8653
vn -0.2071 -0.3183 0.9251
vn -0.1875 -0.2602 0.9472
vn -0.1632 -0.2614 0.9514
vn 0.2187 0.2585 -0.9409
vn 0.1802 0.2667 -0.9468
vn -0.1749 -0.4610 -0.8700
vn -0.1470 -0.4631 -0.8740
vn -0.0813 -0.3942 -0.9154
vn -0.4520 -0.3984 -0.7981
vn -0.1021 -0.4657 -0.8790
vn -0.1638 -0.4618 -0.8717
vn -0.1440 -0.6673 -0.7307
vn -0.1085 -0.4902 -0.8648
vn -0.2310 -0.3048 0.9240
vn -0.2187 -0.2585 0.9409
vn 0.0368 0.3132 -0.9490
vn -0.0000 0.3264 -0.9452
vn -0.0000 0.2649 -0.9643
vn 0.0236 0.2648 -0.9640
vn -0.1470 -0.4631 0.8740
vn -0.1749 -0.4610 0.8700
vn -0.4520 -0.3984 0.7981
vn -0.0813 -0.3942 0.9154
vn -0.1638 -0.4618 0.8717
vn -0.1021 -0.4657 0.8790
vn -0.1085 -0.4902 0.8648
vn -0.1440 -0.6673 0.7307
vn -0.0000 -0.3264 0.9452
vn -0.0000 -0.2649 0.9643
vn 0.1763 0.4692 0.8653
vn 0.1898 0.3285 0.9252
vn 0.0995 0.4872 0.8676
vn 0.0598 0.3939 0.9172
vn 0.1065 0.5131 0.8517
vn 0.0995 0.4872 -0.8676
vn -0.1101 -0.5116 -0.8521
vn -0.1101 -0.5116 0.8521
vn -0.0783 -0.4187 0.9047
vn -0.1210 -0.3812 0.9165
vn -0.6673 -0.3427 -0.6613
vn -0.1245 -0.3050 -0.9442
vn -0.6673 -0.3427 0.6613
vn -0.1245 -0.3050 0.9442
vn 0.3562 0.9344 -0.0000
vn 0.2793 0.9602 -0.0000
vn 0.5770 0.8167 -0.0000
vn 0.5161 0.8565 -0.0000
vn -0.0534 -0.3636 0.9300
vn -0.0985 -0.6127 0.7841
vn -0.0985 -0.6127 -0.7841
vn -0.0534 -0.3636 -0.9300
vn 0.0815 0.2640 -0.9611
vn 0.1065 0.5131 -0.8517
vn 0.0815 0.2640 0.9611
vn 0.0236 0.2648 0.9640
vn -0.6062 -0.5981 -0.5241
vn -0.0000 -0.2649 -0.9643
vn -0.6062 -0.5981 0.5241
vn -0.0000 0.2649 0.9643
vn 0.0598 0.3939 -0.9172
vn -0.0000 -0.0000 -1.0000
vn -0.0000 -0.0000 1.0000
vn -0.0507 0.9987 -0.0000
vn -0.1350 -0.7295 0.6706
vn -0.5655 -0.8247 -0.0000
vn -0.1350 -0.7295 -0.6706
vt 0.375000 0.000000
vt 0.625000 0.000000
vt 0.625000 0.250000
vt 0.375000 0.250000
vt 0.625000 0.750000
vt 0.375000 0.750000
vt 0.375000 0.500000
vt 0.625000 0.500000
vt 0.125000 0.500000
vt 0.125000 0.750000
vt 0.875000 0.500000
vt 0.875000 0.750000
vt 0.625000 1.000000
vt 0.375000 1.000000
s 1
usemtl color
f 153/57/21 154/58/21 156/59/21 155/60/21
f 168/61/22 164/61/22 207/61/22 211/61/22
f 157/62/23 159/63/23 162/63/24 163/62/24
f 181/64/22 185/64/25 229/64/25 225/64/22
f 155/65/26 159/63/26 157/62/26 153/66/26
f 160/64/22 156/67/22 154/68/22 158/61/22
f 161/64/27 164/61/27 168/61/28 165/64/28
f 160/64/29 158/61/29 164/61/27 161/64/27
f 153/66/22 157/62/22 204/62/22 197/66/22
f 178/63/22 174/63/22 218/63/22 222/63/22
f 193/64/22 194/63/22 238/63/22 237/64/22
f 180/61/22 176/61/22 219/61/22 223/61/22
f 165/64/22 169/64/22 213/64/22 209/64/22
f 163/62/24 162/63/24 166/63/30 167/62/30
f 169/64/31 172/61/31 176/61/32 173/64/32
f 167/62/30 166/63/30 170/63/33 171/62/33
f 165/64/28 168/61/28 172/61/31 169/64/31
f 185/64/25 189/64/34 233/64/34 229/64/25
f 175/62/22 179/62/22 224/62/22 220/62/22
f 170/63/22 166/63/22 210/63/22 214/63/22
f 190/63/22 186/63/22 230/63/22 234/63/22
f 171/62/33 170/63/33 174/63/35 175/62/35
f 177/64/36 180/61/36 184/61/37 181/64/37
f 175/62/35 174/63/35 178/63/38 179/62/38
f 173/64/32 176/61/32 180/61/36 177/64/36
f 172/61/22 168/61/22 211/61/22 215/61/22
f 192/61/34 188/61/25 231/61/25 235/61/34
f 160/64/22 161/64/22 205/64/22 202/64/22
f 179/62/22 183/62/22 228/62/22 224/62/22
f 179/62/38 178/63/38 182/63/39 183/62/39
f 167/62/22 171/62/22 216/62/22 212/62/22
f 156/67/22 160/64/22 202/64/22 199/67/22
f 183/62/39 182/63/39 186/63/40 187/62/40
f 181/64/37 184/61/37 188/61/25 185/64/25
f 189/64/34 192/61/34 196/61/22 193/64/22
f 187/62/40 186/63/40 190/63/41 191/62/41
f 185/64/25 188/61/25 192/61/34 189/64/34
f 187/62/22 191/62/22 236/62/22 232/62/22
f 194/63/42 193/64/42 196/61/42 195/62/42
f 164/61/22 158/61/22 203/61/22 207/61/22
f 182/63/22 178/63/22 222/63/22 226/63/22
f 191/62/41 190/63/41 194/63/26 195/62/26
f 225/64/37 229/64/25 273/64/43 269/64/37
f 208/62/24 212/62/30 256/62/30 252/62/24
f 233/64/34 237/64/22 281/64/22 277/64/44
f 210/63/30 206/63/24 250/63/24 254/63/30
f 239/61/22 235/61/34 279/61/44 283/61/22
f 216/62/33 220/62/35 264/62/35 260/62/33
f 205/64/27 209/64/28 253/64/28 249/64/27
f 240/62/42 239/61/42 283/61/42 284/62/42
f 218/63/35 214/63/33 258/63/33 262/63/35
f 199/67/22 202/64/22 246/64/22 243/67/22
f 224/62/38 228/62/39 272/62/39 268/62/38
f 211/61/28 207/61/27 251/61/27 255/61/28
f 237/64/42 238/63/42 282/63/42 281/64/42
f 213/64/31 217/64/32 261/64/32 257/64/31
f 201/63/26 200/65/26 244/65/26 245/63/26
f 226/63/39 222/63/38 266/63/38 270/63/39
f 229/64/25 233/64/34 277/64/44 273/64/43
f 219/61/32 215/61/31 259/61/31 263/61/32
f 200/60/21 199/59/21 243/59/21 244/60/21
f 221/64/36 225/64/37 269/64/37 265/64/36
f 173/64/22 177/64/22 221/64/22 217/64/22
f 158/61/22 154/68/22 198/68/22 203/61/22
f 186/63/22 182/63/22 226/63/22 230/63/22
f 161/64/22 165/64/22 209/64/22 205/64/22
f 195/62/22 196/61/22 239/61/22 240/62/22
f 183/62/22 187/62/22 232/62/22 228/62/22
f 166/63/22 162/63/22 206/63/22 210/63/22
f 196/61/22 192/61/34 235/61/34 239/61/22
f 176/61/22 172/61/22 215/61/22 219/61/22
f 188/61/25 184/61/22 227/61/22 231/61/25
f 163/62/22 167/62/22 212/62/22 208/62/22
f 189/64/34 193/64/22 237/64/22 233/64/34
f 169/64/22 173/64/22 217/64/22 213/64/22
f 154/58/22 153/57/22 197/57/22 198/58/22
f 194/63/22 190/63/22 234/63/22 238/63/22
f 174/63/22 170/63/22 214/63/22 218/63/22
f 184/61/22 180/61/22 223/61/22 227/61/22
f 191/62/22 195/62/22 240/62/22 236/62/22
f 162/63/22 159/63/22 201/63/22 206/63/22
f 171/62/22 175/62/22 220/62/22 216/62/22
f 155/60/22 156/59/22 199/59/22 200/60/22
f 177/64/22 181/64/22 225/64/22 221/64/22
f 157/62/22 163/62/22 208/62/22 204/62/22
f 159/63/22 155/65/22 200/65/22 201/63/22
f 271/61/45 267/61/46 311/61/47 315/61/48
f 246/64/49 249/64/50 293/64/51 290/64/52
f 279/61/53 275/61/54 319/61/55 323/61/56
f 251/61/57 247/61/58 291/61/59 295/61/60
f 276/62/61 280/62/62 324/62/63 320/62/64
f 253/64/65 257/64/66 301/64/67 297/64/68
f 248/62/69 252/62/70 296/62/71 292/62/72
f 258/63/73 254/63/74 298/63/75 302/63/76
f 261/64/77 265/64/78 309/64/79 305/64/80
f 250/63/81 245/63/82 289/63/83 294/63/84
f 259/61/85 255/61/86 299/61/87 303/61/88
f 266/63/89 262/63/90 306/63/91 310/63/92
f 275/61/54 271/61/45 315/61/48 319/61/55
f 256/62/93 260/62/94 304/62/95 300/62/96
f 267/61/46 263/61/97 307/61/98 311/61/47
f 272/62/99 276/62/61 320/62/64 316/62/100
f 280/62/62 284/62/101 328/62/102 324/62/63
f 264/62/103 268/62/104 312/62/105 308/62/106
f 247/61/58 242/68/107 286/68/108 291/61/59
f 274/63/109 270/63/110 314/63/111 318/63/112
f 197/66/26 204/62/26 248/62/26 241/66/26
f 238/63/26 234/63/41 278/63/41 282/63/26
f 230/63/40 226/63/39 270/63/39 274/63/40
f 203/61/22 198/68/22 242/68/22 247/61/22
f 220/62/35 224/62/38 268/62/38 264/62/35
f 236/62/41 240/62/26 284/62/26 280/62/41
f 228/62/39 232/62/40 276/62/40 272/62/39
f 223/61/36 219/61/32 263/61/32 267/61/36
f 212/62/30 216/62/33 260/62/33 256/62/30
f 231/61/25 227/61/37 271/61/37 275/61/43
f 222/63/38 218/63/35 262/63/35 266/63/38
f 215/61/31 211/61/28 255/61/28 259/61/31
f 206/63/24 201/63/23 245/63/23 250/63/24
f 217/64/32 221/64/36 265/64/36 261/64/32
f 214/63/33 210/63/30 254/63/30 258/63/33
f 204/62/23 208/62/24 252/62/24 248/62/23
f 209/64/28 213/64/31 257/64/31 253/64/28
f 232/62/40 236/62/41 280/62/41 276/62/40
f 207/61/27 203/61/29 247/61/29 251/61/27
f 235/61/34 231/61/25 275/61/43 279/61/44
f 202/64/29 205/64/27 249/64/27 246/64/29
f 227/61/37 223/61/36 267/61/36 271/61/37
f 198/58/21 197/57/21 241/57/21 242/58/21
f 234/63/41 230/63/40 274/63/40 278/63/41
f 304/62/95 308/62/106 352/62/113 348/62/114
f 293/64/51 297/64/68 341/64/115 337/64/116
f 328/62/42 327/61/42 371/61/42 372/62/42
f 306/63/91 302/63/76 346/63/117 350/63/118
f 287/67/119 290/64/52 334/64/120 331/67/121
f 312/62/105 316/62/100 360/62/122 356/62/123
f 299/61/87 295/61/60 339/61/124 343/61/125
f 325/64/42 326/63/42 370/63/42 369/64/42
f 301/64/67 305/64/80 349/64/126 345/64/127
f 289/63/83 288/65/128 332/65/129 333/63/130
f 314/63/111 310/63/92 354/63/131 358/63/132
f 317/64/133 321/64/134 365/64/135 361/64/136
f 307/61/98 303/61/88 347/61/137 351/61/138
f 288/60/21 287/59/21 331/59/21 332/60/21
f 309/64/79 313/64/139 357/64/140 353/64/141
f 322/63/142 318/63/112 362/63/143 366/63/144
f 286/58/21 285/57/21 329/57/21 330/58/21
f 315/61/48 311/61/47 355/61/145 359/61/146
f 290/64/52 293/64/51 337/64/116 334/64/120
f 323/61/56 319/61/55 363/61/147 367/61/148
f 242/58/21 241/57/21 285/57/21 286/58/21
f 278/63/149 274/63/109 318/63/112 322/63/142
f 265/64/78 269/64/150 313/64/139 309/64/79
f 244/60/21 243/59/21 287/59/21 288/60/21
f 263/61/97 259/61/85 303/61/88 307/61/98
f 273/64/151 277/64/152 321/64/134 317/64/133
f 270/63/110 266/63/89 310/63/92 314/63/111
f 245/63/82 244/65/153 288/65/128 289/63/83
f 257/64/66 261/64/77 305/64/80 301/64/67
f 281/64/42 282/63/42 326/63/42 325/64/42
f 255/61/86 251/61/57 295/61/60 299/61/87
f 268/62/104 272/62/99 316/62/100 312/62/105
f 243/67/154 246/64/49 290/64/52 287/67/119
f 262/63/90 258/63/73 302/63/76 306/63/91
f 284/62/42 283/61/42 327/61/42 328/62/42
f 249/64/50 253/64/65 297/64/68 293/64/51
f 260/62/94 264/62/103 308/62/106 304/62/95
f 283/61/155 279/61/53 323/61/56 327/61/156
f 254/63/74 250/63/81 294/63/84 298/63/75
f 277/64/152 281/64/157 325/64/158 321/64/134
f 252/62/70 256/62/93 300/62/96 296/62/71
f 269/64/150 273/64/151 317/64/133 313/64/139
f 241/66/159 248/62/69 292/62/72 285/66/160
f 282/63/161 278/63/149 322/63/142 326/63/162
f 341/64/115 345/64/127 389/64/163 385/64/164
f 336/62/165 340/62/166 384/62/167 380/62/168
f 346/63/117 342/63/169 386/63/170 390/63/171
f 349/64/126 353/64/141 397/64/172 393/64/173
f 338/63/174 333/63/130 377/63/175 382/63/176
f 347/61/137 343/61/125 387/61/177 391/61/178
f 354/63/131 350/63/118 394/63/179 398/63/180
f 363/61/147 359/61/146 403/61/181 407/61/182
f 344/62/183 348/62/114 392/62/184 388/62/185
f 355/61/145 351/61/138 395/61/186 399/61/187
f 360/62/188 364/62/189 408/62/190 404/62/191
f 368/62/192 372/62/193 416/62/194 412/62/195
f 352/62/113 356/62/123 400/62/196 396/62/197
f 335/61/198 330/68/199 374/68/200 379/61/201
f 362/63/202 358/63/203 402/63/204 406/63/205
f 370/63/206 366/63/207 410/63/208 414/63/209
f 329/66/210 336/62/165 380/62/168 373/66/211
f 357/64/140 361/64/136 405/64/212 401/64/213
f 340/62/166 344/62/183 388/62/185 384/62/167
f 365/64/135 369/64/214 413/64/215 409/64/216
f 327/61/156 323/61/56 367/61/148 371/61/217
f 298/63/75 294/63/84 338/63/174 342/63/169
f 321/64/134 325/64/158 369/64/214 365/64/135
f 296/62/71 300/62/96 344/62/183 340/62/166
f 313/64/139 317/64/133 361/64/136 357/64/140
f 285/66/160 292/62/72 336/62/165 329/66/210
f 326/63/162 322/63/142 366/63/144 370/63/218
f 318/63/112 314/63/111 358/63/132 362/63/143
f 291/61/59 286/68/108 330/68/199 335/61/198
f 308/62/106 312/62/105 356/62/123 352/62/113
f 324/62/63 328/62/102 372/62/219 368/62/220
f 316/62/100 320/62/64 364/62/221 360/62/122
f 311/61/47 307/61/98 351/61/138 355/61/145
f 300/62/96 304/62/95 348/62/114 344/62/183
f 319/61/55 315/61/48 359/61/146 363/61/147
f 310/63/92 306/63/91 350/63/118 354/63/131
f 303/61/88 299/61/87 343/61/125 347/61/137
f 294/63/84 289/63/83 333/63/130 338/63/174
f 305/64/80 309/64/79 353/64/141 349/64/126
f 302/63/76 298/63/75 342/63/169 346/63/117
f 292/62/72 296/62/71 340/62/166 336/62/165
f 297/64/68 301/64/67 345/64/127 341/64/115
f 320/62/64 324/62/63 368/62/220 364/62/221
f 295/61/60 291/61/59 335/61/198 339/61/124
f 400/62/222 404/62/191 448/62/223 444/62/222
f 387/61/28 383/61/27 427/61/27 431/61/28
f 413/64/42 414/63/42 458/63/42 457/64/42
f 389/64/31 393/64/32 437/64/32 433/64/31
f 377/63/26 376/65/26 420/65/26 421/63/26
f 402/63/204 398/63/224 442/63/224 446/63/225
f 405/64/226 409/64/227 453/64/227 449/64/226
f 395/61/32 391/61/31 435/61/31 439/61/32
f 376/60/21 375/59/21 419/59/21 420/60/21
f 397/64/228 401/64/229 445/64/229 441/64/228
f 410/63/208 406/63/205 450/63/230 454/63/231
f 374/58/21 373/57/21 417/57/21 418/58/21
f 403/61/229 399/61/228 443/61/228 447/61/229
f 378/64/29 381/64/27 425/64/27 422/64/29
f 411/61/227 407/61/226 451/61/226 455/61/227
f 383/61/27 379/61/29 423/61/29 427/61/27
f 408/62/190 412/62/195 456/62/232 452/62/233
f 385/64/28 389/64/31 433/64/31 429/64/28
f 380/62/23 384/62/24 428/62/24 424/62/23
f 390/63/33 386/63/30 430/63/30 434/63/33
f 364/62/189 368/62/192 412/62/195 408/62/190
f 339/61/124 335/61/198 379/61/201 383/61/234
f 367/61/148 363/61/147 407/61/182 411/61/235
f 334/64/120 337/64/116 381/64/236 378/64/237
f 359/61/146 355/61/145 399/61/187 403/61/181
f 330/58/21 329/57/21 373/57/21 374/58/21
f 366/63/207 362/63/202 406/63/205 410/63/208
f 353/64/141 357/64/140 401/64/213 397/64/172
f 332/60/21 331/59/21 375/59/21 376/60/21
f 351/61/138 347/61/137 391/61/178 395/61/186
f 361/64/136 365/64/135 409/64/216 405/64/212
f 358/63/132 354/63/131 398/63/180 402/63/238
f 333/63/130 332/65/129 376/65/239 377/63/175
f 345/64/127 349/64/126 393/64/173 389/64/163
f 369/64/42 370/63/42 414/63/42 413/64/42
f 343/61/125 339/61/124 383/61/234 387/61/177
f 356/62/123 360/62/122 404/62/240 400/62/196
f 331/67/121 334/64/120 378/64/237 375/67/241
f 350/63/118 346/63/117 390/63/171 394/63/179
f 372/62/42 371/61/42 415/61/42 416/62/42
f 337/64/116 341/64/115 385/64/164 381/64/236
f 348/62/114 352/62/113 396/62/197 392/62/184
f 371/61/217 367/61/148 411/61/235 415/61/242
f 342/63/169 338/63/174 382/63/176 386/63/170
f 420/60/243 419/59/243 422/64/243 421/63/243
f 424/62/244 423/61/244 418/69/244 417/70/244
f 421/63/243 422/64/243 425/64/243 426/63/243
f 423/61/244 424/62/244 428/62/244 427/61/244
f 431/61/244 432/62/244 436/62/244 435/61/244
f 426/63/243 425/64/243 429/64/243 430/63/243
f 427/61/244 428/62/244 432/62/244 431/61/244
f 430/63/243 429/64/243 433/64/243 434/63/243
f 439/61/244 440/62/244 444/62/244 443/61/244
f 434/63/243 433/64/243 437/64/243 438/63/243
f 435/61/244 436/62/244 440/62/244 439/61/244
f 438/63/243 437/64/243 441/64/243 442/63/243
f 446/63/243 445/64/243 449/64/243 450/63/243
f 442/63/243 441/64/243 445/64/243 446/63/243
f 443/61/244 444/62/244 448/62/244 447/61/244
f 451/61/244 452/62/244 456/62/244 455/61/244
f 447/61/244 448/62/244 452/62/244 451/61/244
f 450/63/243 449/64/243 453/64/243 454/63/243
f 454/63/243 453/64/243 457/64/243 458/63/243
f 455/61/244 456/62/244 460/62/244 459/61/244
f 375/67/22 378/64/22 422/64/22 419/67/22
f 394/63/35 390/63/33 434/63/33 438/63/35
f 416/62/42 415/61/42 459/61/42 460/62/42
f 381/64/27 385/64/28 429/64/28 425/64/27
f 392/62/33 396/62/35 440/62/35 436/62/33
f 415/61/245 411/61/245 455/61/245 459/61/245
f 386/63/30 382/63/24 426/63/24 430/63/30
f 409/64/245 413/64/245 457/64/245 453/64/245
f 384/62/24 388/62/30 432/62/30 428/62/24
f 401/64/229 405/64/226 449/64/226 445/64/229
f 373/66/26 380/62/26 424/62/26 417/66/26
f 414/63/209 410/63/208 454/63/231 458/63/246
f 406/63/205 402/63/204 446/63/225 450/63/230
f 379/61/22 374/68/22 418/68/22 423/61/22
f 396/62/35 400/62/247 444/62/247 440/62/35
f 412/62/195 416/62/194 460/62/248 456/62/232
f 404/62/191 408/62/190 452/62/233 448/62/223
f 399/61/228 395/61/32 439/61/32 443/61/228
f 388/62/30 392/62/33 436/62/33 432/62/30
f 407/61/226 403/61/229 447/61/229 451/61/226
f 398/63/247 394/63/35 438/63/35 442/63/247
f 391/61/31 387/61/28 431/61/28 435/61/31
f 382/63/24 377/63/23 421/63/23 426/63/24
f 393/64/32 397/64/228 441/64/228 437/64/32
o base_poles
v 9.475856 -0.163177 -3.156755
v 9.475856 19.034544 -3.156755
v 9.475856 -0.163177 -3.640879
v 9.475856 19.034544 -3.640879
v 9.959979 -0.163177 -3.156755
v 9.959979 19.034544 -3.156755
v 9.959979 -0.163177 -3.640879
v 9.959979 19.034544 -3.640879
v 9.475856 -0.163177 3.694650
v 9.475856 19.034542 3.694650
v 9.475856 -0.163177 3.210526
v 9.475856 19.034542 3.210526
v 9.959979 -0.163177 3.694650
v 9.959979 19.034542 3.694650
v 9.959979 -0.163177 3.210526
v 9.959979 19.034542 3.210526
v 2.908981 -0.163177 3.694650
v 2.908981 19.034542 3.694650
v 2.908981 -0.163177 3.210526
v 2.908981 19.034542 3.210526
v 3.393105 -0.163177 3.694650
v 3.393105 19.034542 3.694650
v 3.393105 -0.163177 3.210526
v 3.393105 19.034542 3.210526
v 2.908981 -0.163177 -3.156755
v 2.908981 19.034542 -3.156755
v 2.908981 -0.163177 -3.640879
v 2.908981 19.034542 -3.640879
v 3.393105 -0.163177 -3.156755
v 3.393105 19.034542 -3.156755
v 3.393105 -0.163177 -3.640879
v 3.393105 19.034542 -3.640879
vn -1.0000 -0.0000 -0.0000
vn -0.0000 -0.0000 -1.0000
vn 1.0000 -0.0000 -0.0000
vn -0.0000 -0.0000 1.0000
vn -0.0000 -1.0000 -0.0000
vn -0.0000 1.0000 -0.0000
vt 0.375000 0.000000
vt 0.625000 0.000000
vt 0.625000 0.250000
vt 0.375000 0.250000
vt 0.625000 0.500000
vt 0.375000 0.500000
vt 0.625000 0.750000
vt 0.375000 0.750000
vt 0.625000 1.000000
vt 0.375000 1.000000
vt 0.125000 0.500000
vt 0.125000 0.750000
vt 0.875000 0.500000
vt 0.875000 0.750000
s 1
usemtl wood
f 461/71/249 462/72/249 464/73/249 463/74/249
f 463/74/250 464/73/250 468/75/250 467/76/250
f 467/76/251 468/75/251 466/77/251 465/78/251
f 465/78/252 466/77/252 462/79/252 461/80/252
f 463/81/253 467/76/253 465/78/253 461/82/253
f 468/75/254 464/83/254 462/84/254 466/77/254
f 469/71/249 470/72/249 472/73/249 471/74/249
f 471/74/250 472/73/250 476/75/250 475/76/250
f 475/76/251 476/75/251 474/77/251 473/78/251
f 473/78/252 474/77/252 470/79/252 469/80/252
f 471/81/253 475/76/253 473/78/253 469/82/253
f 476/75/254 472/83/254 470/84/254 474/77/254
f 477/71/249 478/72/249 480/73/249 479/74/249
f 479/74/250 480/73/250 484/75/250 483/76/250
f 483/76/251 484/75/251 482/77/251 481/78/251
f 481/78/252 482/77/252 478/79/252 477/80/252
f 479/81/253 483/76/253 481/78/253 477/82/253
f 484/75/254 480/83/254 478/84/254 482/77/254
f 485/71/249 486/72/249 488/73/249 487/74/249
f 487/74/250 488/73/250 492/75/250 491/76/250
f 491/76/251 492/75/251 490/77/251 489/78/251
f 489/78/252 490/77/252 486/79/252 485/80/252
f 487/81/253 491/76/253 489/78/253 485/82/253
f 492/75/254 488/83/254 486/84/254 490/77/254
o safety_planks
v 9.711299 18.117378 -3.555748
v 3.174706 18.117378 -3.555752
v 9.711299 18.117378 -3.249939
v 3.174706 18.117378 -3.249943
v 9.711299 17.327030 -3.555748
v 3.174706 17.327030 -3.555752
v 9.711299 17.327030 -3.249939
v 3.174706 17.327030 -3.249943
v 9.711299 18.117378 3.369145
v 3.174706 18.117378 3.369141
v 9.711299 18.117378 3.674954
v 3.174706 18.117378 3.674951
v 9.711299 17.327030 3.369145
v 3.174706 17.327030 3.369141
v 9.711299 17.327030 3.674954
v 3.174706 17.327030 3.674951
vn -0.0000 1.0000 -0.0000
vn -0.0000 -0.0000 1.0000
vn -0.0000 -1.0000 -0.0000
vn -0.0000 -0.0000 -1.0000
vn 1.0000 -0.0000 -0.0000
vn -1.0000 -0.0000 -0.0000
vt 0.375000 0.000000
vt 0.625000 0.000000
vt 0.625000 0.250000
vt 0.375000 0.250000
vt 0.625000 0.500000
vt 0.375000 0.500000
vt 0.625000 0.750000
vt 0.375000 0.750000
vt 0.625000 1.000000
vt 0.375000 1.000000
vt 0.125000 0.500000
vt 0.125000 0.750000
vt 0.875000 0.500000
vt 0.875000 0.750000
s 1
usemtl wood
f 493/85/255 494/86/255 496/87/255 495/88/255
f 495/88/256 496/87/256 500/89/256 499/90/256
f 499/90/257 500/89/257 498/91/257 497/92/257
f 497/92/258 498/91/258 494/93/258 493/94/258
f 495/95/259 499/90/259 497/92/259 493/96/259
f 500/89/260 496/97/260 494/98/260 498/91/260
f 501/85/255 502/86/255 504/87/255 503/88/255
f 503/88/256 504/87/256 508/89/256 507/90/256
f 507/90/257 508/89/257 506/91/257 505/92/257
f 505/92/258 506/91/258 502/93/258 501/94/258
f 503/95/259 507/90/259 505/92/259 501/96/259
f 508/89/260 504/97/260 502/98/260 506/91/260
