# Blender 5.0.1
# www.blender.org
mtllib woodfence.mtl
o Cube.002
v 0.022155 0.878036 2.790290
v 0.022155 1.105865 2.790290
v 0.022155 0.878036 -2.798464
v 0.022155 1.105865 -2.798464
v -0.022155 0.878036 2.790290
v -0.022155 1.105865 2.790290
v -0.022155 0.878036 -2.798464
v -0.022155 1.105865 -2.798464
v 0.087867 2.008562 2.149021
v 0.085780 -0.008514 2.150391
v 0.089070 2.018402 2.326685
v 0.085780 -0.008514 2.313049
v -0.077733 1.955150 2.158126
v -0.085780 -0.008514 2.150391
v -0.093488 1.975405 2.303469
v -0.085780 -0.008514 2.313049
v 0.087867 2.008562 1.244781
v 0.085780 -0.008514 1.246151
v 0.089070 2.018402 1.422445
v 0.085780 -0.008514 1.408809
v -0.077733 1.955150 1.253886
v -0.085780 -0.008514 1.246151
v -0.093488 1.975405 1.399229
v -0.085780 -0.008514 1.408809
v 0.087867 2.008562 0.341706
v 0.085780 -0.008514 0.343076
v 0.089070 2.018402 0.519370
v 0.085780 -0.008514 0.505734
v -0.077733 1.955150 0.350811
v -0.085780 -0.008514 0.343076
v -0.093488 1.975405 0.496155
v -0.085780 -0.008514 0.505734
v 0.087867 2.008562 -0.552920
v 0.085780 -0.008514 -0.551550
v 0.089070 2.018402 -0.375256
v 0.085780 -0.008514 -0.388892
v -0.077733 1.955150 -0.543815
v -0.085780 -0.008514 -0.551550
v -0.093488 1.975405 -0.398471
v -0.085780 -0.008514 -0.388892
v 0.087867 2.008562 -1.366671
v 0.085780 -0.008514 -1.365301
v 0.089070 2.018402 -1.189008
v 0.085780 -0.008514 -1.202644
v -0.077733 1.955150 -1.357567
v -0.085780 -0.008514 -1.365301
v -0.093488 1.975405 -1.212223
v -0.085780 -0.008514 -1.202644
v 0.087867 2.008562 -2.320615
v 0.085780 -0.008514 -2.319245
v 0.089070 2.018402 -2.142951
v 0.085780 -0.008514 -2.156588
v -0.077733 1.955150 -2.311510
v -0.085780 -0.008514 -2.319245
v -0.093488 1.975405 -2.166167
v -0.085780 -0.008514 -2.156588
v 0.022074 1.491110 2.783230
v 0.022027 1.719107 2.860569
v 0.021843 1.490197 -2.758599
v 0.022453 1.718372 -2.847833
v -0.021818 1.489617 2.757074
v -0.021823 1.720479 2.811894
v -0.021902 1.488779 -2.807533
v -0.022099 1.718681 -2.804285
vn 1.0000 -0.0000 -0.0000
vn -0.0000 -0.0000 -1.0000
vn -1.0000 -0.0000 -0.0000
vn -0.0000 -0.0000 1.0000
vn -0.0000 -1.0000 -0.0000
vn -0.0000 1.0000 -0.0000
vn 0.2617 -0.9598 0.1012
vn 0.0653 0.0011 -0.9979
vn 0.9987 -0.0001 0.0511
vn -1.0000 0.0013 0.0035
vn 0.0273 -0.0017 0.9996
vn 1.0000 -0.0012 -0.0000
vn 0.0621 -0.1842 -0.9809
vn -1.0000 -0.0004 -0.0000
vn -0.6337 -0.2142 0.7434
vn 0.0331 -0.9995 0.0002
vn 0.0190 0.9998 -0.0002
vt 0.375000 0.000000
vt 0.625000 0.000000
vt 0.625000 0.250000
vt 0.375000 0.250000
vt 0.625000 0.500000
vt 0.375000 0.500000
vt 0.625000 0.750000
vt 0.375000 0.750000
vt 0.625000 1.000000
vt 0.375000 1.000000
vt 0.125000 0.500000
vt 0.125000 0.750000
vt 0.875000 0.500000
vt 0.875000 0.750000
s 0
usemtl Material.001
f 1/1/1 3/4/1 4/3/1 2/2/1
f 3/4/2 7/6/2 8/5/2 4/3/2
f 7/6/3 5/8/3 6/7/3 8/5/3
f 5/8/4 1/10/4 2/9/4 6/7/4
f 3/11/5 1/12/5 5/8/5 7/6/5
f 8/5/6 6/7/6 2/14/6 4/13/6
f 9/5/7 11/7/7 15/14/7 13/13/7
f 12/8/8 16/10/8 15/9/8 11/7/8
f 16/1/9 14/4/9 13/3/9 15/2/9
f 14/11/6 16/12/6 12/8/6 10/6/6
f 10/6/10 12/8/10 11/7/10 9/5/10
f 14/4/11 10/6/11 9/5/11 13/3/11
f 17/5/7 19/7/7 23/14/7 21/13/7
f 20/8/8 24/10/8 23/9/8 19/7/8
f 24/1/9 22/4/9 21/3/9 23/2/9
f 22/11/6 24/12/6 20/8/6 18/6/6
f 18/6/10 20/8/10 19/7/10 17/5/10
f 22/4/11 18/6/11 17/5/11 21/3/11
f 25/5/7 27/7/7 31/14/7 29/13/7
f 28/8/8 32/10/8 31/9/8 27/7/8
f 32/1/9 30/4/9 29/3/9 31/2/9
f 30/11/6 32/12/6 28/8/6 26/6/6
f 26/6/10 28/8/10 27/7/10 25/5/10
f 30/4/11 26/6/11 25/5/11 29/3/11
f 33/5/7 35/7/7 39/14/7 37/13/7
f 36/8/8 40/10/8 39/9/8 35/7/8
f 40/1/9 38/4/9 37/3/9 39/2/9
f 38/11/6 40/12/6 36/8/6 34/6/6
f 34/6/10 36/8/10 35/7/10 33/5/10
f 38/4/11 34/6/11 33/5/11 37/3/11
f 41/5/7 43/7/7 47/14/7 45/13/7
f 44/8/8 48/10/8 47/9/8 43/7/8
f 48/1/9 46/4/9 45/3/9 47/2/9
f 46/11/6 48/12/6 44/8/6 42/6/6
f 42/6/10 44/8/10 43/7/10 41/5/10
f 46/4/11 42/6/11 41/5/11 45/3/11
f 49/5/7 51/7/7 55/14/7 53/13/7
f 52/8/8 56/10/8 55/9/8 51/7/8
f 56/1/9 54/4/9 53/3/9 55/2/9
f 54/11/6 56/12/6 52/8/6 50/6/6
f 50/6/10 52/8/10 51/7/10 49/5/10
f 54/4/11 50/6/11 49/5/11 53/3/11
f 57/1/12 59/4/12 60/3/12 58/2/12
f 59/4/13 63/6/13 64/5/13 60/3/13
f 63/6/14 61/8/14 62/7/14 64/5/14
f 61/8/15 57/10/15 58/9/15 62/7/15
f 59/11/16 57/12/16 61/8/16 63/6/16
f 64/5/17 62/7/17 58/14/17 60/13/17
